<svg width="1363" height="167" viewBox="0 0 1363 167" fill="none" xmlns="http://www.w3.org/2000/svg">
<g style="mix-blend-mode:exclusion">
<rect width="1363" height="167" rx="15" fill="white" fill-opacity="0.05"/>
</g>
<g style="mix-blend-mode:exclusion">
<path d="M0 15C0 6.71573 6.71573 0 15 0H37V167H15C6.71573 167 0 160.284 0 152V15Z" fill="white" fill-opacity="0.25"/>
</g>
<g style="mix-blend-mode:exclusion">
<path d="M100.906 54.9219L93.3945 52.2383V49.0859L103.602 53.375V55.6367L100.906 54.9219ZM93.3945 57.1719L100.918 54.4297L103.602 53.7852V56.0352L93.3945 60.3242V57.1719ZM120.781 57.5352C120.781 57.2305 120.734 56.957 120.641 56.7148C120.555 56.4648 120.391 56.2383 120.148 56.0352C119.906 55.8242 119.566 55.6172 119.129 55.4141C118.691 55.2109 118.125 55 117.43 54.7812C116.656 54.5312 115.922 54.25 115.227 53.9375C114.539 53.625 113.93 53.2617 113.398 52.8477C112.875 52.4258 112.461 51.9375 112.156 51.3828C111.859 50.8281 111.711 50.1836 111.711 49.4492C111.711 48.7383 111.867 48.0938 112.18 47.5156C112.492 46.9297 112.93 46.4297 113.492 46.0156C114.055 45.5938 114.719 45.2695 115.484 45.043C116.258 44.8164 117.105 44.7031 118.027 44.7031C119.285 44.7031 120.383 44.9297 121.32 45.3828C122.258 45.8359 122.984 46.457 123.5 47.2461C124.023 48.0352 124.285 48.9375 124.285 49.9531H120.793C120.793 49.4531 120.688 49.0156 120.477 48.6406C120.273 48.2578 119.961 47.957 119.539 47.7383C119.125 47.5195 118.602 47.4102 117.969 47.4102C117.359 47.4102 116.852 47.5039 116.445 47.6914C116.039 47.8711 115.734 48.1172 115.531 48.4297C115.328 48.7344 115.227 49.0781 115.227 49.4609C115.227 49.75 115.297 50.0117 115.438 50.2461C115.586 50.4805 115.805 50.6992 116.094 50.9023C116.383 51.1055 116.738 51.2969 117.16 51.4766C117.582 51.6562 118.07 51.832 118.625 52.0039C119.555 52.2852 120.371 52.6016 121.074 52.9531C121.785 53.3047 122.379 53.6992 122.855 54.1367C123.332 54.5742 123.691 55.0703 123.934 55.625C124.176 56.1797 124.297 56.8086 124.297 57.5117C124.297 58.2539 124.152 58.918 123.863 59.5039C123.574 60.0898 123.156 60.5859 122.609 60.9922C122.062 61.3984 121.41 61.707 120.652 61.918C119.895 62.1289 119.047 62.2344 118.109 62.2344C117.266 62.2344 116.434 62.125 115.613 61.9062C114.793 61.6797 114.047 61.3398 113.375 60.8867C112.711 60.4336 112.18 59.8555 111.781 59.1523C111.383 58.4492 111.184 57.6172 111.184 56.6562H114.711C114.711 57.1875 114.793 57.6367 114.957 58.0039C115.121 58.3711 115.352 58.668 115.648 58.8945C115.953 59.1211 116.312 59.2852 116.727 59.3867C117.148 59.4883 117.609 59.5391 118.109 59.5391C118.719 59.5391 119.219 59.4531 119.609 59.2812C120.008 59.1094 120.301 58.8711 120.488 58.5664C120.684 58.2617 120.781 57.918 120.781 57.5352ZM129.77 44V62H126.395V44H129.77ZM129.289 55.2148H128.363C128.371 54.332 128.488 53.5195 128.715 52.7773C128.941 52.0273 129.266 51.3789 129.688 50.832C130.109 50.2773 130.613 49.8477 131.199 49.543C131.793 49.2383 132.449 49.0859 133.168 49.0859C133.793 49.0859 134.359 49.1758 134.867 49.3555C135.383 49.5273 135.824 49.8086 136.191 50.1992C136.566 50.582 136.855 51.0859 137.059 51.7109C137.262 52.3359 137.363 53.0938 137.363 53.9844V62H133.965V53.9609C133.965 53.3984 133.883 52.957 133.719 52.6367C133.562 52.3086 133.332 52.0781 133.027 51.9453C132.73 51.8047 132.363 51.7344 131.926 51.7344C131.441 51.7344 131.027 51.8242 130.684 52.0039C130.348 52.1836 130.078 52.4336 129.875 52.7539C129.672 53.0664 129.523 53.4336 129.43 53.8555C129.336 54.2773 129.289 54.7305 129.289 55.2148ZM145.766 62.2344C144.781 62.2344 143.898 62.0781 143.117 61.7656C142.336 61.4453 141.672 61.0039 141.125 60.4414C140.586 59.8789 140.172 59.2266 139.883 58.4844C139.594 57.7344 139.449 56.9375 139.449 56.0938V55.625C139.449 54.6641 139.586 53.7852 139.859 52.9883C140.133 52.1914 140.523 51.5 141.031 50.9141C141.547 50.3281 142.172 49.8789 142.906 49.5664C143.641 49.2461 144.469 49.0859 145.391 49.0859C146.289 49.0859 147.086 49.2344 147.781 49.5312C148.477 49.8281 149.059 50.25 149.527 50.7969C150.004 51.3438 150.363 52 150.605 52.7656C150.848 53.5234 150.969 54.3672 150.969 55.2969V56.7031H140.891V54.4531H147.652V54.1953C147.652 53.7266 147.566 53.3086 147.395 52.9414C147.23 52.5664 146.98 52.2695 146.645 52.0508C146.309 51.832 145.879 51.7227 145.355 51.7227C144.91 51.7227 144.527 51.8203 144.207 52.0156C143.887 52.2109 143.625 52.4844 143.422 52.8359C143.227 53.1875 143.078 53.6016 142.977 54.0781C142.883 54.5469 142.836 55.0625 142.836 55.625V56.0938C142.836 56.6016 142.906 57.0703 143.047 57.5C143.195 57.9297 143.402 58.3008 143.668 58.6133C143.941 58.9258 144.27 59.168 144.652 59.3398C145.043 59.5117 145.484 59.5977 145.977 59.5977C146.586 59.5977 147.152 59.4805 147.676 59.2461C148.207 59.0039 148.664 58.6406 149.047 58.1562L150.688 59.9375C150.422 60.3203 150.059 60.6875 149.598 61.0391C149.145 61.3906 148.598 61.6797 147.957 61.9062C147.316 62.125 146.586 62.2344 145.766 62.2344ZM156.453 44V62H153.066V44H156.453ZM163.555 59.5391L166.367 49.3203H169.895L165.617 62H163.484L163.555 59.5391ZM161.621 49.3203L164.445 59.5508L164.504 62H162.359L158.082 49.3203H161.621ZM177.078 62.2344C176.094 62.2344 175.211 62.0781 174.43 61.7656C173.648 61.4453 172.984 61.0039 172.438 60.4414C171.898 59.8789 171.484 59.2266 171.195 58.4844C170.906 57.7344 170.762 56.9375 170.762 56.0938V55.625C170.762 54.6641 170.898 53.7852 171.172 52.9883C171.445 52.1914 171.836 51.5 172.344 50.9141C172.859 50.3281 173.484 49.8789 174.219 49.5664C174.953 49.2461 175.781 49.0859 176.703 49.0859C177.602 49.0859 178.398 49.2344 179.094 49.5312C179.789 49.8281 180.371 50.25 180.84 50.7969C181.316 51.3438 181.676 52 181.918 52.7656C182.16 53.5234 182.281 54.3672 182.281 55.2969V56.7031H172.203V54.4531H178.965V54.1953C178.965 53.7266 178.879 53.3086 178.707 52.9414C178.543 52.5664 178.293 52.2695 177.957 52.0508C177.621 51.832 177.191 51.7227 176.668 51.7227C176.223 51.7227 175.84 51.8203 175.52 52.0156C175.199 52.2109 174.938 52.4844 174.734 52.8359C174.539 53.1875 174.391 53.6016 174.289 54.0781C174.195 54.5469 174.148 55.0625 174.148 55.625V56.0938C174.148 56.6016 174.219 57.0703 174.359 57.5C174.508 57.9297 174.715 58.3008 174.98 58.6133C175.254 58.9258 175.582 59.168 175.965 59.3398C176.355 59.5117 176.797 59.5977 177.289 59.5977C177.898 59.5977 178.465 59.4805 178.988 59.2461C179.52 59.0039 179.977 58.6406 180.359 58.1562L182 59.9375C181.734 60.3203 181.371 60.6875 180.91 61.0391C180.457 61.3906 179.91 61.6797 179.27 61.9062C178.629 62.125 177.898 62.2344 177.078 62.2344ZM191.059 58.4961C191.059 58.2539 190.988 58.0352 190.848 57.8398C190.707 57.6445 190.445 57.4648 190.062 57.3008C189.688 57.1289 189.145 56.9727 188.434 56.832C187.793 56.6914 187.195 56.5156 186.641 56.3047C186.094 56.0859 185.617 55.8242 185.211 55.5195C184.812 55.2148 184.5 54.8555 184.273 54.4414C184.047 54.0195 183.934 53.5391 183.934 53C183.934 52.4688 184.047 51.9688 184.273 51.5C184.508 51.0312 184.84 50.6172 185.27 50.2578C185.707 49.8906 186.238 49.6055 186.863 49.4023C187.496 49.1914 188.207 49.0859 188.996 49.0859C190.098 49.0859 191.043 49.2617 191.832 49.6133C192.629 49.9648 193.238 50.4492 193.66 51.0664C194.09 51.6758 194.305 52.3711 194.305 53.1523H190.93C190.93 52.8242 190.859 52.5312 190.719 52.2734C190.586 52.0078 190.375 51.8008 190.086 51.6523C189.805 51.4961 189.438 51.418 188.984 51.418C188.609 51.418 188.285 51.4844 188.012 51.6172C187.738 51.7422 187.527 51.9141 187.379 52.1328C187.238 52.3438 187.168 52.5781 187.168 52.8359C187.168 53.0312 187.207 53.207 187.285 53.3633C187.371 53.5117 187.508 53.6484 187.695 53.7734C187.883 53.8984 188.125 54.0156 188.422 54.125C188.727 54.2266 189.102 54.3203 189.547 54.4062C190.461 54.5938 191.277 54.8398 191.996 55.1445C192.715 55.4414 193.285 55.8477 193.707 56.3633C194.129 56.8711 194.34 57.5391 194.34 58.3672C194.34 58.9297 194.215 59.4453 193.965 59.9141C193.715 60.3828 193.355 60.793 192.887 61.1445C192.418 61.4883 191.855 61.7578 191.199 61.9531C190.551 62.1406 189.82 62.2344 189.008 62.2344C187.828 62.2344 186.828 62.0234 186.008 61.6016C185.195 61.1797 184.578 60.6445 184.156 59.9961C183.742 59.3398 183.535 58.668 183.535 57.9805H186.734C186.75 58.4414 186.867 58.8125 187.086 59.0938C187.312 59.375 187.598 59.5781 187.941 59.7031C188.293 59.8281 188.672 59.8906 189.078 59.8906C189.516 59.8906 189.879 59.832 190.168 59.7148C190.457 59.5898 190.676 59.4258 190.824 59.2227C190.98 59.0117 191.059 58.7695 191.059 58.4961ZM209.715 44.9375V62H206.211V44.9375H209.715ZM214.965 44.9375V47.6914H201.043V44.9375H214.965ZM219.312 52.0859V62H215.938V49.3203H219.113L219.312 52.0859ZM223.133 49.2383L223.074 52.3672C222.91 52.3438 222.711 52.3242 222.477 52.3086C222.25 52.2852 222.043 52.2734 221.855 52.2734C221.379 52.2734 220.965 52.3359 220.613 52.4609C220.27 52.5781 219.98 52.7539 219.746 52.9883C219.52 53.2227 219.348 53.5078 219.23 53.8438C219.121 54.1797 219.059 54.5625 219.043 54.9922L218.363 54.7812C218.363 53.9609 218.445 53.207 218.609 52.5195C218.773 51.8242 219.012 51.2188 219.324 50.7031C219.645 50.1875 220.035 49.7891 220.496 49.5078C220.957 49.2266 221.484 49.0859 222.078 49.0859C222.266 49.0859 222.457 49.1016 222.652 49.1328C222.848 49.1562 223.008 49.1914 223.133 49.2383ZM231.172 59.1406V53.4922C231.172 53.0859 231.105 52.7383 230.973 52.4492C230.84 52.1523 230.633 51.9219 230.352 51.7578C230.078 51.5938 229.723 51.5117 229.285 51.5117C228.91 51.5117 228.586 51.5781 228.312 51.7109C228.039 51.8359 227.828 52.0195 227.68 52.2617C227.531 52.4961 227.457 52.7734 227.457 53.0938H224.082C224.082 52.5547 224.207 52.043 224.457 51.5586C224.707 51.0742 225.07 50.6484 225.547 50.2812C226.023 49.9062 226.59 49.6133 227.246 49.4023C227.91 49.1914 228.652 49.0859 229.473 49.0859C230.457 49.0859 231.332 49.25 232.098 49.5781C232.863 49.9062 233.465 50.3984 233.902 51.0547C234.348 51.7109 234.57 52.5312 234.57 53.5156V58.9414C234.57 59.6367 234.613 60.207 234.699 60.6523C234.785 61.0898 234.91 61.4727 235.074 61.8008V62H231.664C231.5 61.6562 231.375 61.2266 231.289 60.7109C231.211 60.1875 231.172 59.6641 231.172 59.1406ZM231.617 54.2773L231.641 56.1875H229.754C229.309 56.1875 228.922 56.2383 228.594 56.3398C228.266 56.4414 227.996 56.5859 227.785 56.7734C227.574 56.9531 227.418 57.1641 227.316 57.4062C227.223 57.6484 227.176 57.9141 227.176 58.2031C227.176 58.4922 227.242 58.7539 227.375 58.9883C227.508 59.2148 227.699 59.3945 227.949 59.5273C228.199 59.6523 228.492 59.7148 228.828 59.7148C229.336 59.7148 229.777 59.6133 230.152 59.4102C230.527 59.207 230.816 58.957 231.02 58.6602C231.23 58.3633 231.34 58.082 231.348 57.8164L232.238 59.2461C232.113 59.5664 231.941 59.8984 231.723 60.2422C231.512 60.5859 231.242 60.9102 230.914 61.2148C230.586 61.5117 230.191 61.7578 229.73 61.9531C229.27 62.1406 228.723 62.2344 228.09 62.2344C227.285 62.2344 226.555 62.0742 225.898 61.7539C225.25 61.4258 224.734 60.9766 224.352 60.4062C223.977 59.8281 223.789 59.1719 223.789 58.4375C223.789 57.7734 223.914 57.1836 224.164 56.668C224.414 56.1523 224.781 55.7188 225.266 55.3672C225.758 55.0078 226.371 54.7383 227.105 54.5586C227.84 54.3711 228.691 54.2773 229.66 54.2773H231.617ZM242.41 59.5977C242.824 59.5977 243.191 59.5195 243.512 59.3633C243.832 59.1992 244.082 58.9727 244.262 58.6836C244.449 58.3867 244.547 58.0391 244.555 57.6406H247.73C247.723 58.5312 247.484 59.3242 247.016 60.0195C246.547 60.707 245.918 61.25 245.129 61.6484C244.34 62.0391 243.457 62.2344 242.48 62.2344C241.496 62.2344 240.637 62.0703 239.902 61.7422C239.176 61.4141 238.57 60.9609 238.086 60.3828C237.602 59.7969 237.238 59.1172 236.996 58.3438C236.754 57.5625 236.633 56.7266 236.633 55.8359V55.4961C236.633 54.5977 236.754 53.7617 236.996 52.9883C237.238 52.207 237.602 51.5273 238.086 50.9492C238.57 50.3633 239.176 49.9062 239.902 49.5781C240.629 49.25 241.48 49.0859 242.457 49.0859C243.496 49.0859 244.406 49.2852 245.188 49.6836C245.977 50.082 246.594 50.6523 247.039 51.3945C247.492 52.1289 247.723 53 247.73 54.0078H244.555C244.547 53.5859 244.457 53.2031 244.285 52.8594C244.121 52.5156 243.879 52.2422 243.559 52.0391C243.246 51.8281 242.859 51.7227 242.398 51.7227C241.906 51.7227 241.504 51.8281 241.191 52.0391C240.879 52.2422 240.637 52.5234 240.465 52.8828C240.293 53.2344 240.172 53.6367 240.102 54.0898C240.039 54.5352 240.008 55.0039 240.008 55.4961V55.8359C240.008 56.3281 240.039 56.8008 240.102 57.2539C240.164 57.707 240.281 58.1094 240.453 58.4609C240.633 58.8125 240.879 59.0898 241.191 59.293C241.504 59.4961 241.91 59.5977 242.41 59.5977ZM253.062 43.9883V62H249.688V43.9883H253.062ZM261.055 49.3203L255.547 55.6016L252.594 58.5898L251.363 56.1523L253.707 53.1758L257 49.3203H261.055ZM257.551 62L253.801 56.1406L256.133 54.1016L261.441 62H257.551ZM268.109 62.2344C267.125 62.2344 266.242 62.0781 265.461 61.7656C264.68 61.4453 264.016 61.0039 263.469 60.4414C262.93 59.8789 262.516 59.2266 262.227 58.4844C261.938 57.7344 261.793 56.9375 261.793 56.0938V55.625C261.793 54.6641 261.93 53.7852 262.203 52.9883C262.477 52.1914 262.867 51.5 263.375 50.9141C263.891 50.3281 264.516 49.8789 265.25 49.5664C265.984 49.2461 266.812 49.0859 267.734 49.0859C268.633 49.0859 269.43 49.2344 270.125 49.5312C270.82 49.8281 271.402 50.25 271.871 50.7969C272.348 51.3438 272.707 52 272.949 52.7656C273.191 53.5234 273.312 54.3672 273.312 55.2969V56.7031H263.234V54.4531H269.996V54.1953C269.996 53.7266 269.91 53.3086 269.738 52.9414C269.574 52.5664 269.324 52.2695 268.988 52.0508C268.652 51.832 268.223 51.7227 267.699 51.7227C267.254 51.7227 266.871 51.8203 266.551 52.0156C266.23 52.2109 265.969 52.4844 265.766 52.8359C265.57 53.1875 265.422 53.6016 265.32 54.0781C265.227 54.5469 265.18 55.0625 265.18 55.625V56.0938C265.18 56.6016 265.25 57.0703 265.391 57.5C265.539 57.9297 265.746 58.3008 266.012 58.6133C266.285 58.9258 266.613 59.168 266.996 59.3398C267.387 59.5117 267.828 59.5977 268.32 59.5977C268.93 59.5977 269.496 59.4805 270.02 59.2461C270.551 59.0039 271.008 58.6406 271.391 58.1562L273.031 59.9375C272.766 60.3203 272.402 60.6875 271.941 61.0391C271.488 61.3906 270.941 61.6797 270.301 61.9062C269.66 62.125 268.93 62.2344 268.109 62.2344ZM278.609 52.0859V62H275.234V49.3203H278.41L278.609 52.0859ZM282.43 49.2383L282.371 52.3672C282.207 52.3438 282.008 52.3242 281.773 52.3086C281.547 52.2852 281.34 52.2734 281.152 52.2734C280.676 52.2734 280.262 52.3359 279.91 52.4609C279.566 52.5781 279.277 52.7539 279.043 52.9883C278.816 53.2227 278.645 53.5078 278.527 53.8438C278.418 54.1797 278.355 54.5625 278.34 54.9922L277.66 54.7812C277.66 53.9609 277.742 53.207 277.906 52.5195C278.07 51.8242 278.309 51.2188 278.621 50.7031C278.941 50.1875 279.332 49.7891 279.793 49.5078C280.254 49.2266 280.781 49.0859 281.375 49.0859C281.562 49.0859 281.754 49.1016 281.949 49.1328C282.145 49.1562 282.305 49.1914 282.43 49.2383Z" fill="white" fill-opacity="0.5"/>
</g>
<g style="mix-blend-mode:exclusion">
<path d="M109.93 86.0078V118H102.217V86.0078H109.93ZM119.554 86.0078V91.9624H92.813V86.0078H119.554ZM132.012 118.439C130.079 118.439 128.35 118.139 126.827 117.539C125.303 116.923 124.014 116.081 122.959 115.012C121.919 113.942 121.121 112.712 120.564 111.32C120.022 109.929 119.751 108.457 119.751 106.904V106.069C119.751 104.326 119.993 102.714 120.477 101.235C120.96 99.7407 121.678 98.437 122.63 97.3237C123.582 96.2104 124.776 95.3462 126.211 94.731C127.647 94.1011 129.317 93.7861 131.221 93.7861C132.906 93.7861 134.415 94.0571 135.748 94.5991C137.081 95.1411 138.208 95.9175 139.131 96.9282C140.069 97.939 140.779 99.1621 141.263 100.598C141.761 102.033 142.01 103.645 142.01 105.432V108.442H122.586V103.806H134.781V103.234C134.795 102.443 134.656 101.77 134.363 101.213C134.085 100.656 133.675 100.231 133.133 99.9385C132.591 99.6455 131.932 99.499 131.155 99.499C130.35 99.499 129.683 99.6748 129.156 100.026C128.643 100.378 128.24 100.861 127.947 101.477C127.669 102.077 127.471 102.773 127.354 103.564C127.237 104.355 127.178 105.19 127.178 106.069V106.904C127.178 107.783 127.295 108.581 127.53 109.299C127.779 110.017 128.13 110.632 128.584 111.145C129.053 111.643 129.61 112.031 130.254 112.309C130.914 112.587 131.661 112.727 132.496 112.727C133.506 112.727 134.502 112.536 135.484 112.155C136.465 111.774 137.308 111.145 138.011 110.266L141.373 114.265C140.889 114.953 140.201 115.62 139.307 116.264C138.428 116.909 137.374 117.436 136.143 117.846C134.913 118.242 133.536 118.439 132.012 118.439ZM155.062 112.727C155.75 112.727 156.336 112.602 156.819 112.353C157.317 112.089 157.691 111.723 157.94 111.254C158.204 110.771 158.328 110.192 158.313 109.519H165.279C165.293 111.306 164.854 112.873 163.96 114.221C163.082 115.554 161.88 116.594 160.357 117.341C158.848 118.073 157.142 118.439 155.237 118.439C153.377 118.439 151.751 118.139 150.359 117.539C148.968 116.923 147.803 116.074 146.866 114.99C145.943 113.891 145.247 112.609 144.778 111.145C144.324 109.68 144.097 108.09 144.097 106.376V105.871C144.097 104.157 144.324 102.568 144.778 101.103C145.247 99.6235 145.943 98.3418 146.866 97.2578C147.803 96.1592 148.96 95.3096 150.337 94.709C151.729 94.0938 153.348 93.7861 155.193 93.7861C157.171 93.7861 158.914 94.1597 160.423 94.9067C161.946 95.6538 163.14 96.7378 164.004 98.1587C164.869 99.5796 165.293 101.301 165.279 103.322H158.313C158.328 102.604 158.218 101.96 157.984 101.389C157.75 100.817 157.383 100.363 156.885 100.026C156.402 99.6748 155.779 99.499 155.018 99.499C154.256 99.499 153.641 99.6675 153.172 100.004C152.703 100.341 152.344 100.81 152.095 101.411C151.861 101.997 151.7 102.67 151.612 103.432C151.539 104.194 151.502 105.007 151.502 105.871V106.376C151.502 107.255 151.539 108.083 151.612 108.859C151.7 109.621 151.868 110.295 152.117 110.881C152.366 111.452 152.725 111.906 153.194 112.243C153.663 112.565 154.285 112.727 155.062 112.727ZM175.694 84.25V118H168.289V84.25H175.694ZM174.815 105.3L173.079 105.344C173.079 103.674 173.284 102.136 173.694 100.729C174.104 99.3232 174.69 98.1001 175.452 97.0601C176.214 96.02 177.129 95.2144 178.199 94.6431C179.268 94.0718 180.455 93.7861 181.758 93.7861C182.93 93.7861 184 93.9546 184.966 94.2915C185.948 94.6284 186.79 95.1704 187.493 95.9175C188.211 96.6646 188.76 97.6387 189.141 98.8398C189.537 100.041 189.734 101.506 189.734 103.234V118H182.286V103.19C182.286 102.224 182.146 101.477 181.868 100.949C181.604 100.407 181.224 100.034 180.726 99.8286C180.228 99.6089 179.62 99.499 178.902 99.499C178.038 99.499 177.334 99.6455 176.792 99.9385C176.25 100.231 175.833 100.642 175.54 101.169C175.262 101.682 175.071 102.29 174.969 102.993C174.866 103.696 174.815 104.465 174.815 105.3ZM221.88 109.497C221.88 108.999 221.807 108.552 221.661 108.156C221.514 107.746 221.243 107.365 220.848 107.014C220.452 106.662 219.881 106.311 219.134 105.959C218.401 105.593 217.435 105.212 216.233 104.816C214.827 104.348 213.472 103.82 212.168 103.234C210.865 102.634 209.7 101.938 208.675 101.147C207.649 100.341 206.836 99.4038 206.236 98.3345C205.635 97.2505 205.335 95.9907 205.335 94.5552C205.335 93.1782 205.643 91.9404 206.258 90.8418C206.873 89.7285 207.73 88.7837 208.829 88.0073C209.942 87.2163 211.246 86.6157 212.74 86.2056C214.234 85.7808 215.867 85.5684 217.64 85.5684C219.983 85.5684 222.049 85.9785 223.836 86.7988C225.638 87.6045 227.044 88.7544 228.055 90.2485C229.08 91.728 229.593 93.4785 229.593 95.5H221.924C221.924 94.6943 221.756 93.9839 221.419 93.3687C221.097 92.7534 220.606 92.27 219.947 91.9185C219.288 91.5669 218.46 91.3911 217.464 91.3911C216.497 91.3911 215.684 91.5376 215.025 91.8306C214.366 92.1235 213.868 92.519 213.531 93.0171C213.194 93.5005 213.025 94.0352 213.025 94.6211C213.025 95.1045 213.157 95.5439 213.421 95.9395C213.699 96.3203 214.087 96.6792 214.585 97.0161C215.098 97.353 215.713 97.6753 216.431 97.9829C217.164 98.2905 217.984 98.5908 218.892 98.8838C220.591 99.4258 222.1 100.034 223.418 100.708C224.751 101.367 225.872 102.121 226.78 102.971C227.703 103.806 228.399 104.758 228.868 105.827C229.351 106.896 229.593 108.105 229.593 109.453C229.593 110.888 229.314 112.163 228.758 113.276C228.201 114.389 227.403 115.334 226.363 116.11C225.323 116.872 224.078 117.451 222.627 117.846C221.177 118.242 219.559 118.439 217.771 118.439C216.131 118.439 214.512 118.234 212.916 117.824C211.333 117.399 209.898 116.755 208.609 115.891C207.32 115.012 206.287 113.891 205.511 112.529C204.749 111.152 204.368 109.519 204.368 107.629H212.103C212.103 108.566 212.227 109.357 212.476 110.002C212.725 110.646 213.091 111.167 213.575 111.562C214.058 111.943 214.651 112.221 215.354 112.397C216.058 112.558 216.863 112.639 217.771 112.639C218.753 112.639 219.544 112.5 220.145 112.221C220.745 111.928 221.185 111.547 221.463 111.079C221.741 110.595 221.88 110.068 221.88 109.497ZM245.743 94.2256V99.3672H231.417V94.2256H245.743ZM234.427 88.3149H241.832V110.244C241.832 110.874 241.905 111.364 242.051 111.716C242.198 112.053 242.447 112.294 242.798 112.441C243.165 112.573 243.648 112.639 244.249 112.639C244.673 112.639 245.025 112.631 245.303 112.617C245.582 112.587 245.845 112.551 246.094 112.507V117.802C245.464 118.007 244.805 118.161 244.117 118.264C243.428 118.381 242.696 118.439 241.919 118.439C240.337 118.439 238.982 118.19 237.854 117.692C236.741 117.194 235.892 116.411 235.306 115.341C234.72 114.272 234.427 112.88 234.427 111.167V88.3149ZM261.036 112.023V102.224C261.036 101.55 260.94 100.971 260.75 100.488C260.56 100.004 260.259 99.6309 259.849 99.3672C259.439 99.0889 258.89 98.9497 258.201 98.9497C257.645 98.9497 257.168 99.0449 256.773 99.2354C256.377 99.4258 256.077 99.7114 255.872 100.092C255.667 100.473 255.564 100.957 255.564 101.542H248.16C248.16 100.444 248.401 99.4258 248.885 98.4883C249.383 97.5361 250.086 96.7085 250.994 96.0054C251.917 95.3022 253.016 94.7603 254.29 94.3794C255.579 93.9839 257.015 93.7861 258.597 93.7861C260.486 93.7861 262.171 94.1011 263.65 94.731C265.145 95.3608 266.324 96.3057 267.188 97.5654C268.052 98.8105 268.484 100.378 268.484 102.268V112.001C268.484 113.554 268.572 114.733 268.748 115.539C268.924 116.33 269.173 117.026 269.495 117.626V118H262.068C261.717 117.268 261.453 116.374 261.277 115.319C261.116 114.25 261.036 113.151 261.036 112.023ZM261.937 103.476L261.98 107.431H258.707C258.018 107.431 257.432 107.526 256.949 107.717C256.48 107.907 256.099 108.171 255.806 108.508C255.528 108.83 255.323 109.196 255.191 109.606C255.074 110.017 255.015 110.449 255.015 110.903C255.015 111.342 255.118 111.738 255.323 112.089C255.542 112.426 255.835 112.69 256.202 112.88C256.568 113.071 256.978 113.166 257.432 113.166C258.252 113.166 258.948 113.012 259.52 112.705C260.105 112.382 260.552 111.994 260.86 111.54C261.167 111.086 261.321 110.661 261.321 110.266L262.947 113.298C262.654 113.884 262.317 114.477 261.937 115.078C261.57 115.678 261.109 116.235 260.552 116.748C260.01 117.246 259.344 117.656 258.553 117.978C257.762 118.286 256.802 118.439 255.674 118.439C254.209 118.439 252.862 118.139 251.631 117.539C250.416 116.938 249.441 116.103 248.709 115.034C247.977 113.95 247.61 112.705 247.61 111.298C247.61 110.068 247.83 108.969 248.27 108.002C248.724 107.036 249.405 106.215 250.313 105.542C251.221 104.868 252.378 104.355 253.785 104.003C255.191 103.652 256.846 103.476 258.75 103.476H261.937ZM282.635 112.727C283.323 112.727 283.909 112.602 284.393 112.353C284.891 112.089 285.264 111.723 285.513 111.254C285.777 110.771 285.901 110.192 285.887 109.519H292.852C292.867 111.306 292.427 112.873 291.534 114.221C290.655 115.554 289.454 116.594 287.93 117.341C286.421 118.073 284.715 118.439 282.811 118.439C280.95 118.439 279.324 118.139 277.933 117.539C276.541 116.923 275.376 116.074 274.439 114.99C273.516 113.891 272.82 112.609 272.352 111.145C271.897 109.68 271.67 108.09 271.67 106.376V105.871C271.67 104.157 271.897 102.568 272.352 101.103C272.82 99.6235 273.516 98.3418 274.439 97.2578C275.376 96.1592 276.534 95.3096 277.911 94.709C279.302 94.0938 280.921 93.7861 282.767 93.7861C284.744 93.7861 286.487 94.1597 287.996 94.9067C289.52 95.6538 290.713 96.7378 291.578 98.1587C292.442 99.5796 292.867 101.301 292.852 103.322H285.887C285.901 102.604 285.792 101.96 285.557 101.389C285.323 100.817 284.957 100.363 284.458 100.026C283.975 99.6748 283.353 99.499 282.591 99.499C281.829 99.499 281.214 99.6675 280.745 100.004C280.276 100.341 279.917 100.81 279.668 101.411C279.434 101.997 279.273 102.67 279.185 103.432C279.112 104.194 279.075 105.007 279.075 105.871V106.376C279.075 107.255 279.112 108.083 279.185 108.859C279.273 109.621 279.441 110.295 279.69 110.881C279.939 111.452 280.298 111.906 280.767 112.243C281.236 112.565 281.858 112.727 282.635 112.727ZM303.487 84.228V118H296.082V84.228H303.487ZM318.692 94.2256L308.365 106.333L302.959 111.738L299.729 107.036L304.234 101.169L309.815 94.2256H318.692ZM310.76 118L304.41 107.167L309.881 103.278L319.241 118H310.76Z" fill="white"/>
</g>
<path d="M1363 15C1363 6.71573 1356.28 0 1348 0H1134V167H1348C1356.28 167 1363 160.284 1363 152V15Z" fill="#3AA346"/>
<path fill-rule="evenodd" clip-rule="evenodd" d="M1218.5 55C1218.37 55 1218.24 55.0527 1218.15 55.1464C1218.05 55.2402 1218 55.3674 1218 55.5V111.5C1218 111.633 1218.05 111.76 1218.15 111.854C1218.24 111.947 1218.37 112 1218.5 112H1278C1278.13 112 1278.26 111.947 1278.35 111.854C1278.45 111.76 1278.5 111.633 1278.5 111.5V66C1278.5 65.8674 1278.45 65.7402 1278.35 65.6464C1278.26 65.5527 1278.13 65.5 1278 65.5H1248.25C1247.36 65.5 1246.52 65.1045 1245.95 64.4206L1238.09 55H1218.5ZM1213.9 50.9038C1215.12 49.6848 1216.78 49 1218.5 49H1239.5C1240.39 49 1241.23 49.3955 1241.8 50.0794L1249.66 59.5H1278C1279.72 59.5 1281.38 60.1848 1282.6 61.4038C1283.82 62.6228 1284.5 64.2761 1284.5 66V111.5C1284.5 113.224 1283.82 114.877 1282.6 116.096C1281.38 117.315 1279.72 118 1278 118H1218.5C1216.78 118 1215.12 117.315 1213.9 116.096C1212.68 114.877 1212 113.224 1212 111.5V55.5C1212 53.7761 1212.68 52.1228 1213.9 50.9038Z" fill="white"/>
<path fill-rule="evenodd" clip-rule="evenodd" d="M1243.72 77.5251C1245.09 78.892 1245.09 81.108 1243.72 82.4749L1237.45 88.75L1243.72 95.0251C1245.09 96.392 1245.09 98.608 1243.72 99.9749C1242.36 101.342 1240.14 101.342 1238.78 99.9749L1230.03 91.2249C1228.66 89.858 1228.66 87.642 1230.03 86.2751L1238.78 77.5251C1240.14 76.1583 1242.36 76.1583 1243.72 77.5251Z" fill="white"/>
<path fill-rule="evenodd" clip-rule="evenodd" d="M1252.03 99.9749C1250.66 98.608 1250.66 96.392 1252.03 95.0251L1258.3 88.75L1252.03 82.4749C1250.66 81.108 1250.66 78.892 1252.03 77.5251C1253.39 76.1583 1255.61 76.1583 1256.97 77.5251L1265.72 86.2751C1267.09 87.642 1267.09 89.858 1265.72 91.2249L1256.97 99.9749C1255.61 101.342 1253.39 101.342 1252.03 99.9749Z" fill="white"/>
</svg>
