<svg width="1363" height="167" viewBox="0 0 1363 167" fill="none" xmlns="http://www.w3.org/2000/svg">
<g style="mix-blend-mode:exclusion">
<rect width="1363" height="167" rx="15" fill="white" fill-opacity="0.05"/>
</g>
<g style="mix-blend-mode:exclusion">
<path d="M0 15C0 6.71573 6.71573 0 15 0H37V167H15C6.71573 167 0 160.284 0 152V15Z" fill="white" fill-opacity="0.25"/>
</g>
<g style="mix-blend-mode:exclusion">
<path d="M100.906 50.9219L93.3945 48.2383V45.0859L103.602 49.375V51.6367L100.906 50.9219ZM93.3945 53.1719L100.918 50.4297L103.602 49.7852V52.0352L93.3945 56.3242V53.1719ZM120.781 53.5352C120.781 53.2305 120.734 52.957 120.641 52.7148C120.555 52.4648 120.391 52.2383 120.148 52.0352C119.906 51.8242 119.566 51.6172 119.129 51.4141C118.691 51.2109 118.125 51 117.43 50.7812C116.656 50.5312 115.922 50.25 115.227 49.9375C114.539 49.625 113.93 49.2617 113.398 48.8477C112.875 48.4258 112.461 47.9375 112.156 47.3828C111.859 46.8281 111.711 46.1836 111.711 45.4492C111.711 44.7383 111.867 44.0938 112.18 43.5156C112.492 42.9297 112.93 42.4297 113.492 42.0156C114.055 41.5938 114.719 41.2695 115.484 41.043C116.258 40.8164 117.105 40.7031 118.027 40.7031C119.285 40.7031 120.383 40.9297 121.32 41.3828C122.258 41.8359 122.984 42.457 123.5 43.2461C124.023 44.0352 124.285 44.9375 124.285 45.9531H120.793C120.793 45.4531 120.688 45.0156 120.477 44.6406C120.273 44.2578 119.961 43.957 119.539 43.7383C119.125 43.5195 118.602 43.4102 117.969 43.4102C117.359 43.4102 116.852 43.5039 116.445 43.6914C116.039 43.8711 115.734 44.1172 115.531 44.4297C115.328 44.7344 115.227 45.0781 115.227 45.4609C115.227 45.75 115.297 46.0117 115.438 46.2461C115.586 46.4805 115.805 46.6992 116.094 46.9023C116.383 47.1055 116.738 47.2969 117.16 47.4766C117.582 47.6562 118.07 47.832 118.625 48.0039C119.555 48.2852 120.371 48.6016 121.074 48.9531C121.785 49.3047 122.379 49.6992 122.855 50.1367C123.332 50.5742 123.691 51.0703 123.934 51.625C124.176 52.1797 124.297 52.8086 124.297 53.5117C124.297 54.2539 124.152 54.918 123.863 55.5039C123.574 56.0898 123.156 56.5859 122.609 56.9922C122.062 57.3984 121.41 57.707 120.652 57.918C119.895 58.1289 119.047 58.2344 118.109 58.2344C117.266 58.2344 116.434 58.125 115.613 57.9062C114.793 57.6797 114.047 57.3398 113.375 56.8867C112.711 56.4336 112.18 55.8555 111.781 55.1523C111.383 54.4492 111.184 53.6172 111.184 52.6562H114.711C114.711 53.1875 114.793 53.6367 114.957 54.0039C115.121 54.3711 115.352 54.668 115.648 54.8945C115.953 55.1211 116.312 55.2852 116.727 55.3867C117.148 55.4883 117.609 55.5391 118.109 55.5391C118.719 55.5391 119.219 55.4531 119.609 55.2812C120.008 55.1094 120.301 54.8711 120.488 54.5664C120.684 54.2617 120.781 53.918 120.781 53.5352ZM129.77 40V58H126.395V40H129.77ZM129.289 51.2148H128.363C128.371 50.332 128.488 49.5195 128.715 48.7773C128.941 48.0273 129.266 47.3789 129.688 46.832C130.109 46.2773 130.613 45.8477 131.199 45.543C131.793 45.2383 132.449 45.0859 133.168 45.0859C133.793 45.0859 134.359 45.1758 134.867 45.3555C135.383 45.5273 135.824 45.8086 136.191 46.1992C136.566 46.582 136.855 47.0859 137.059 47.7109C137.262 48.3359 137.363 49.0938 137.363 49.9844V58H133.965V49.9609C133.965 49.3984 133.883 48.957 133.719 48.6367C133.562 48.3086 133.332 48.0781 133.027 47.9453C132.73 47.8047 132.363 47.7344 131.926 47.7344C131.441 47.7344 131.027 47.8242 130.684 48.0039C130.348 48.1836 130.078 48.4336 129.875 48.7539C129.672 49.0664 129.523 49.4336 129.43 49.8555C129.336 50.2773 129.289 50.7305 129.289 51.2148ZM145.766 58.2344C144.781 58.2344 143.898 58.0781 143.117 57.7656C142.336 57.4453 141.672 57.0039 141.125 56.4414C140.586 55.8789 140.172 55.2266 139.883 54.4844C139.594 53.7344 139.449 52.9375 139.449 52.0938V51.625C139.449 50.6641 139.586 49.7852 139.859 48.9883C140.133 48.1914 140.523 47.5 141.031 46.9141C141.547 46.3281 142.172 45.8789 142.906 45.5664C143.641 45.2461 144.469 45.0859 145.391 45.0859C146.289 45.0859 147.086 45.2344 147.781 45.5312C148.477 45.8281 149.059 46.25 149.527 46.7969C150.004 47.3438 150.363 48 150.605 48.7656C150.848 49.5234 150.969 50.3672 150.969 51.2969V52.7031H140.891V50.4531H147.652V50.1953C147.652 49.7266 147.566 49.3086 147.395 48.9414C147.23 48.5664 146.98 48.2695 146.645 48.0508C146.309 47.832 145.879 47.7227 145.355 47.7227C144.91 47.7227 144.527 47.8203 144.207 48.0156C143.887 48.2109 143.625 48.4844 143.422 48.8359C143.227 49.1875 143.078 49.6016 142.977 50.0781C142.883 50.5469 142.836 51.0625 142.836 51.625V52.0938C142.836 52.6016 142.906 53.0703 143.047 53.5C143.195 53.9297 143.402 54.3008 143.668 54.6133C143.941 54.9258 144.27 55.168 144.652 55.3398C145.043 55.5117 145.484 55.5977 145.977 55.5977C146.586 55.5977 147.152 55.4805 147.676 55.2461C148.207 55.0039 148.664 54.6406 149.047 54.1562L150.688 55.9375C150.422 56.3203 150.059 56.6875 149.598 57.0391C149.145 57.3906 148.598 57.6797 147.957 57.9062C147.316 58.125 146.586 58.2344 145.766 58.2344ZM156.453 40V58H153.066V40H156.453ZM163.555 55.5391L166.367 45.3203H169.895L165.617 58H163.484L163.555 55.5391ZM161.621 45.3203L164.445 55.5508L164.504 58H162.359L158.082 45.3203H161.621ZM177.078 58.2344C176.094 58.2344 175.211 58.0781 174.43 57.7656C173.648 57.4453 172.984 57.0039 172.438 56.4414C171.898 55.8789 171.484 55.2266 171.195 54.4844C170.906 53.7344 170.762 52.9375 170.762 52.0938V51.625C170.762 50.6641 170.898 49.7852 171.172 48.9883C171.445 48.1914 171.836 47.5 172.344 46.9141C172.859 46.3281 173.484 45.8789 174.219 45.5664C174.953 45.2461 175.781 45.0859 176.703 45.0859C177.602 45.0859 178.398 45.2344 179.094 45.5312C179.789 45.8281 180.371 46.25 180.84 46.7969C181.316 47.3438 181.676 48 181.918 48.7656C182.16 49.5234 182.281 50.3672 182.281 51.2969V52.7031H172.203V50.4531H178.965V50.1953C178.965 49.7266 178.879 49.3086 178.707 48.9414C178.543 48.5664 178.293 48.2695 177.957 48.0508C177.621 47.832 177.191 47.7227 176.668 47.7227C176.223 47.7227 175.84 47.8203 175.52 48.0156C175.199 48.2109 174.938 48.4844 174.734 48.8359C174.539 49.1875 174.391 49.6016 174.289 50.0781C174.195 50.5469 174.148 51.0625 174.148 51.625V52.0938C174.148 52.6016 174.219 53.0703 174.359 53.5C174.508 53.9297 174.715 54.3008 174.98 54.6133C175.254 54.9258 175.582 55.168 175.965 55.3398C176.355 55.5117 176.797 55.5977 177.289 55.5977C177.898 55.5977 178.465 55.4805 178.988 55.2461C179.52 55.0039 179.977 54.6406 180.359 54.1562L182 55.9375C181.734 56.3203 181.371 56.6875 180.91 57.0391C180.457 57.3906 179.91 57.6797 179.27 57.9062C178.629 58.125 177.898 58.2344 177.078 58.2344ZM191.059 54.4961C191.059 54.2539 190.988 54.0352 190.848 53.8398C190.707 53.6445 190.445 53.4648 190.062 53.3008C189.688 53.1289 189.145 52.9727 188.434 52.832C187.793 52.6914 187.195 52.5156 186.641 52.3047C186.094 52.0859 185.617 51.8242 185.211 51.5195C184.812 51.2148 184.5 50.8555 184.273 50.4414C184.047 50.0195 183.934 49.5391 183.934 49C183.934 48.4688 184.047 47.9688 184.273 47.5C184.508 47.0312 184.84 46.6172 185.27 46.2578C185.707 45.8906 186.238 45.6055 186.863 45.4023C187.496 45.1914 188.207 45.0859 188.996 45.0859C190.098 45.0859 191.043 45.2617 191.832 45.6133C192.629 45.9648 193.238 46.4492 193.66 47.0664C194.09 47.6758 194.305 48.3711 194.305 49.1523H190.93C190.93 48.8242 190.859 48.5312 190.719 48.2734C190.586 48.0078 190.375 47.8008 190.086 47.6523C189.805 47.4961 189.438 47.418 188.984 47.418C188.609 47.418 188.285 47.4844 188.012 47.6172C187.738 47.7422 187.527 47.9141 187.379 48.1328C187.238 48.3438 187.168 48.5781 187.168 48.8359C187.168 49.0312 187.207 49.207 187.285 49.3633C187.371 49.5117 187.508 49.6484 187.695 49.7734C187.883 49.8984 188.125 50.0156 188.422 50.125C188.727 50.2266 189.102 50.3203 189.547 50.4062C190.461 50.5938 191.277 50.8398 191.996 51.1445C192.715 51.4414 193.285 51.8477 193.707 52.3633C194.129 52.8711 194.34 53.5391 194.34 54.3672C194.34 54.9297 194.215 55.4453 193.965 55.9141C193.715 56.3828 193.355 56.793 192.887 57.1445C192.418 57.4883 191.855 57.7578 191.199 57.9531C190.551 58.1406 189.82 58.2344 189.008 58.2344C187.828 58.2344 186.828 58.0234 186.008 57.6016C185.195 57.1797 184.578 56.6445 184.156 55.9961C183.742 55.3398 183.535 54.668 183.535 53.9805H186.734C186.75 54.4414 186.867 54.8125 187.086 55.0938C187.312 55.375 187.598 55.5781 187.941 55.7031C188.293 55.8281 188.672 55.8906 189.078 55.8906C189.516 55.8906 189.879 55.832 190.168 55.7148C190.457 55.5898 190.676 55.4258 190.824 55.2227C190.98 55.0117 191.059 54.7695 191.059 54.4961ZM209.715 40.9375V58H206.211V40.9375H209.715ZM214.965 40.9375V43.6914H201.043V40.9375H214.965ZM219.312 48.0859V58H215.938V45.3203H219.113L219.312 48.0859ZM223.133 45.2383L223.074 48.3672C222.91 48.3438 222.711 48.3242 222.477 48.3086C222.25 48.2852 222.043 48.2734 221.855 48.2734C221.379 48.2734 220.965 48.3359 220.613 48.4609C220.27 48.5781 219.98 48.7539 219.746 48.9883C219.52 49.2227 219.348 49.5078 219.23 49.8438C219.121 50.1797 219.059 50.5625 219.043 50.9922L218.363 50.7812C218.363 49.9609 218.445 49.207 218.609 48.5195C218.773 47.8242 219.012 47.2188 219.324 46.7031C219.645 46.1875 220.035 45.7891 220.496 45.5078C220.957 45.2266 221.484 45.0859 222.078 45.0859C222.266 45.0859 222.457 45.1016 222.652 45.1328C222.848 45.1562 223.008 45.1914 223.133 45.2383ZM231.172 55.1406V49.4922C231.172 49.0859 231.105 48.7383 230.973 48.4492C230.84 48.1523 230.633 47.9219 230.352 47.7578C230.078 47.5938 229.723 47.5117 229.285 47.5117C228.91 47.5117 228.586 47.5781 228.312 47.7109C228.039 47.8359 227.828 48.0195 227.68 48.2617C227.531 48.4961 227.457 48.7734 227.457 49.0938H224.082C224.082 48.5547 224.207 48.043 224.457 47.5586C224.707 47.0742 225.07 46.6484 225.547 46.2812C226.023 45.9062 226.59 45.6133 227.246 45.4023C227.91 45.1914 228.652 45.0859 229.473 45.0859C230.457 45.0859 231.332 45.25 232.098 45.5781C232.863 45.9062 233.465 46.3984 233.902 47.0547C234.348 47.7109 234.57 48.5312 234.57 49.5156V54.9414C234.57 55.6367 234.613 56.207 234.699 56.6523C234.785 57.0898 234.91 57.4727 235.074 57.8008V58H231.664C231.5 57.6562 231.375 57.2266 231.289 56.7109C231.211 56.1875 231.172 55.6641 231.172 55.1406ZM231.617 50.2773L231.641 52.1875H229.754C229.309 52.1875 228.922 52.2383 228.594 52.3398C228.266 52.4414 227.996 52.5859 227.785 52.7734C227.574 52.9531 227.418 53.1641 227.316 53.4062C227.223 53.6484 227.176 53.9141 227.176 54.2031C227.176 54.4922 227.242 54.7539 227.375 54.9883C227.508 55.2148 227.699 55.3945 227.949 55.5273C228.199 55.6523 228.492 55.7148 228.828 55.7148C229.336 55.7148 229.777 55.6133 230.152 55.4102C230.527 55.207 230.816 54.957 231.02 54.6602C231.23 54.3633 231.34 54.082 231.348 53.8164L232.238 55.2461C232.113 55.5664 231.941 55.8984 231.723 56.2422C231.512 56.5859 231.242 56.9102 230.914 57.2148C230.586 57.5117 230.191 57.7578 229.73 57.9531C229.27 58.1406 228.723 58.2344 228.09 58.2344C227.285 58.2344 226.555 58.0742 225.898 57.7539C225.25 57.4258 224.734 56.9766 224.352 56.4062C223.977 55.8281 223.789 55.1719 223.789 54.4375C223.789 53.7734 223.914 53.1836 224.164 52.668C224.414 52.1523 224.781 51.7188 225.266 51.3672C225.758 51.0078 226.371 50.7383 227.105 50.5586C227.84 50.3711 228.691 50.2773 229.66 50.2773H231.617ZM242.41 55.5977C242.824 55.5977 243.191 55.5195 243.512 55.3633C243.832 55.1992 244.082 54.9727 244.262 54.6836C244.449 54.3867 244.547 54.0391 244.555 53.6406H247.73C247.723 54.5312 247.484 55.3242 247.016 56.0195C246.547 56.707 245.918 57.25 245.129 57.6484C244.34 58.0391 243.457 58.2344 242.48 58.2344C241.496 58.2344 240.637 58.0703 239.902 57.7422C239.176 57.4141 238.57 56.9609 238.086 56.3828C237.602 55.7969 237.238 55.1172 236.996 54.3438C236.754 53.5625 236.633 52.7266 236.633 51.8359V51.4961C236.633 50.5977 236.754 49.7617 236.996 48.9883C237.238 48.207 237.602 47.5273 238.086 46.9492C238.57 46.3633 239.176 45.9062 239.902 45.5781C240.629 45.25 241.48 45.0859 242.457 45.0859C243.496 45.0859 244.406 45.2852 245.188 45.6836C245.977 46.082 246.594 46.6523 247.039 47.3945C247.492 48.1289 247.723 49 247.73 50.0078H244.555C244.547 49.5859 244.457 49.2031 244.285 48.8594C244.121 48.5156 243.879 48.2422 243.559 48.0391C243.246 47.8281 242.859 47.7227 242.398 47.7227C241.906 47.7227 241.504 47.8281 241.191 48.0391C240.879 48.2422 240.637 48.5234 240.465 48.8828C240.293 49.2344 240.172 49.6367 240.102 50.0898C240.039 50.5352 240.008 51.0039 240.008 51.4961V51.8359C240.008 52.3281 240.039 52.8008 240.102 53.2539C240.164 53.707 240.281 54.1094 240.453 54.4609C240.633 54.8125 240.879 55.0898 241.191 55.293C241.504 55.4961 241.91 55.5977 242.41 55.5977ZM253.062 39.9883V58H249.688V39.9883H253.062ZM261.055 45.3203L255.547 51.6016L252.594 54.5898L251.363 52.1523L253.707 49.1758L257 45.3203H261.055ZM257.551 58L253.801 52.1406L256.133 50.1016L261.441 58H257.551ZM268.109 58.2344C267.125 58.2344 266.242 58.0781 265.461 57.7656C264.68 57.4453 264.016 57.0039 263.469 56.4414C262.93 55.8789 262.516 55.2266 262.227 54.4844C261.938 53.7344 261.793 52.9375 261.793 52.0938V51.625C261.793 50.6641 261.93 49.7852 262.203 48.9883C262.477 48.1914 262.867 47.5 263.375 46.9141C263.891 46.3281 264.516 45.8789 265.25 45.5664C265.984 45.2461 266.812 45.0859 267.734 45.0859C268.633 45.0859 269.43 45.2344 270.125 45.5312C270.82 45.8281 271.402 46.25 271.871 46.7969C272.348 47.3438 272.707 48 272.949 48.7656C273.191 49.5234 273.312 50.3672 273.312 51.2969V52.7031H263.234V50.4531H269.996V50.1953C269.996 49.7266 269.91 49.3086 269.738 48.9414C269.574 48.5664 269.324 48.2695 268.988 48.0508C268.652 47.832 268.223 47.7227 267.699 47.7227C267.254 47.7227 266.871 47.8203 266.551 48.0156C266.23 48.2109 265.969 48.4844 265.766 48.8359C265.57 49.1875 265.422 49.6016 265.32 50.0781C265.227 50.5469 265.18 51.0625 265.18 51.625V52.0938C265.18 52.6016 265.25 53.0703 265.391 53.5C265.539 53.9297 265.746 54.3008 266.012 54.6133C266.285 54.9258 266.613 55.168 266.996 55.3398C267.387 55.5117 267.828 55.5977 268.32 55.5977C268.93 55.5977 269.496 55.4805 270.02 55.2461C270.551 55.0039 271.008 54.6406 271.391 54.1562L273.031 55.9375C272.766 56.3203 272.402 56.6875 271.941 57.0391C271.488 57.3906 270.941 57.6797 270.301 57.9062C269.66 58.125 268.93 58.2344 268.109 58.2344ZM278.609 48.0859V58H275.234V45.3203H278.41L278.609 48.0859ZM282.43 45.2383L282.371 48.3672C282.207 48.3438 282.008 48.3242 281.773 48.3086C281.547 48.2852 281.34 48.2734 281.152 48.2734C280.676 48.2734 280.262 48.3359 279.91 48.4609C279.566 48.5781 279.277 48.7539 279.043 48.9883C278.816 49.2227 278.645 49.5078 278.527 49.8438C278.418 50.1797 278.355 50.5625 278.34 50.9922L277.66 50.7812C277.66 49.9609 277.742 49.207 277.906 48.5195C278.07 47.8242 278.309 47.2188 278.621 46.7031C278.941 46.1875 279.332 45.7891 279.793 45.5078C280.254 45.2266 280.781 45.0859 281.375 45.0859C281.562 45.0859 281.754 45.1016 281.949 45.1328C282.145 45.1562 282.305 45.1914 282.43 45.2383Z" fill="white" fill-opacity="0.5"/>
</g>
<g style="mix-blend-mode:exclusion">
<path d="M107.205 107.146H99.251V101.191H107.205C108.289 101.191 109.168 101.008 109.842 100.642C110.516 100.275 111.006 99.77 111.314 99.1255C111.636 98.4663 111.797 97.7266 111.797 96.9062C111.797 96.0273 111.636 95.2144 111.314 94.4673C111.006 93.7202 110.516 93.1196 109.842 92.6655C109.168 92.1968 108.289 91.9624 107.205 91.9624H102.151V118H94.439V86.0078H107.205C109.769 86.0078 111.973 86.4766 113.819 87.4141C115.679 88.3516 117.107 89.6406 118.104 91.2812C119.1 92.9072 119.598 94.7676 119.598 96.8623C119.598 98.9277 119.1 100.729 118.104 102.268C117.107 103.806 115.679 105.007 113.819 105.871C111.973 106.721 109.769 107.146 107.205 107.146ZM130.87 100.114V118H123.465V94.2256H130.386L130.87 100.114ZM137.901 94.0498L137.769 100.927C137.476 100.898 137.081 100.861 136.583 100.817C136.084 100.773 135.667 100.751 135.33 100.751C134.466 100.751 133.719 100.854 133.089 101.059C132.474 101.25 131.961 101.542 131.551 101.938C131.155 102.319 130.862 102.802 130.672 103.388C130.496 103.974 130.416 104.655 130.43 105.432L129.09 104.553C129.09 102.956 129.244 101.506 129.551 100.202C129.874 98.8838 130.328 97.7485 130.914 96.7964C131.5 95.8296 132.21 95.0898 133.045 94.5771C133.88 94.0498 134.817 93.7861 135.857 93.7861C136.224 93.7861 136.583 93.8081 136.934 93.8521C137.3 93.896 137.623 93.9619 137.901 94.0498ZM138.736 106.354V105.893C138.736 104.15 138.985 102.546 139.483 101.081C139.981 99.6016 140.713 98.3198 141.68 97.2358C142.647 96.1519 143.841 95.3096 145.262 94.709C146.683 94.0938 148.323 93.7861 150.184 93.7861C152.059 93.7861 153.707 94.0938 155.127 94.709C156.563 95.3096 157.764 96.1519 158.731 97.2358C159.698 98.3198 160.43 99.6016 160.928 101.081C161.426 102.546 161.675 104.15 161.675 105.893V106.354C161.675 108.083 161.426 109.687 160.928 111.167C160.43 112.631 159.698 113.913 158.731 115.012C157.764 116.096 156.57 116.938 155.149 117.539C153.729 118.139 152.088 118.439 150.228 118.439C148.367 118.439 146.719 118.139 145.284 117.539C143.848 116.938 142.647 116.096 141.68 115.012C140.713 113.913 139.981 112.631 139.483 111.167C138.985 109.687 138.736 108.083 138.736 106.354ZM146.141 105.893V106.354C146.141 107.248 146.207 108.083 146.338 108.859C146.47 109.636 146.69 110.317 146.998 110.903C147.305 111.474 147.723 111.921 148.25 112.243C148.777 112.565 149.437 112.727 150.228 112.727C151.004 112.727 151.648 112.565 152.161 112.243C152.688 111.921 153.106 111.474 153.414 110.903C153.721 110.317 153.941 109.636 154.073 108.859C154.205 108.083 154.271 107.248 154.271 106.354V105.893C154.271 105.029 154.205 104.216 154.073 103.454C153.941 102.678 153.721 101.997 153.414 101.411C153.106 100.81 152.688 100.341 152.161 100.004C151.634 99.6675 150.975 99.499 150.184 99.499C149.407 99.499 148.755 99.6675 148.228 100.004C147.715 100.341 147.305 100.81 146.998 101.411C146.69 101.997 146.47 102.678 146.338 103.454C146.207 104.216 146.141 105.029 146.141 105.893ZM177.496 94.2256V99.3672H163.169V94.2256H177.496ZM166.18 88.3149H173.584V110.244C173.584 110.874 173.658 111.364 173.804 111.716C173.951 112.053 174.2 112.294 174.551 112.441C174.917 112.573 175.401 112.639 176.001 112.639C176.426 112.639 176.778 112.631 177.056 112.617C177.334 112.587 177.598 112.551 177.847 112.507V117.802C177.217 118.007 176.558 118.161 175.87 118.264C175.181 118.381 174.449 118.439 173.672 118.439C172.09 118.439 170.735 118.19 169.607 117.692C168.494 117.194 167.645 116.411 167.059 115.341C166.473 114.272 166.18 112.88 166.18 111.167V88.3149ZM178.858 106.354V105.893C178.858 104.15 179.107 102.546 179.605 101.081C180.103 99.6016 180.835 98.3198 181.802 97.2358C182.769 96.1519 183.963 95.3096 185.384 94.709C186.805 94.0938 188.445 93.7861 190.306 93.7861C192.181 93.7861 193.829 94.0938 195.25 94.709C196.685 95.3096 197.886 96.1519 198.853 97.2358C199.82 98.3198 200.552 99.6016 201.05 101.081C201.548 102.546 201.797 104.15 201.797 105.893V106.354C201.797 108.083 201.548 109.687 201.05 111.167C200.552 112.631 199.82 113.913 198.853 115.012C197.886 116.096 196.692 116.938 195.271 117.539C193.851 118.139 192.21 118.439 190.35 118.439C188.489 118.439 186.841 118.139 185.406 117.539C183.97 116.938 182.769 116.096 181.802 115.012C180.835 113.913 180.103 112.631 179.605 111.167C179.107 109.687 178.858 108.083 178.858 106.354ZM186.263 105.893V106.354C186.263 107.248 186.329 108.083 186.46 108.859C186.592 109.636 186.812 110.317 187.12 110.903C187.427 111.474 187.845 111.921 188.372 112.243C188.899 112.565 189.559 112.727 190.35 112.727C191.126 112.727 191.771 112.565 192.283 112.243C192.811 111.921 193.228 111.474 193.536 110.903C193.843 110.317 194.063 109.636 194.195 108.859C194.327 108.083 194.393 107.248 194.393 106.354V105.893C194.393 105.029 194.327 104.216 194.195 103.454C194.063 102.678 193.843 101.997 193.536 101.411C193.228 100.81 192.811 100.341 192.283 100.004C191.756 99.6675 191.097 99.499 190.306 99.499C189.529 99.499 188.877 99.6675 188.35 100.004C187.837 100.341 187.427 100.81 187.12 101.411C186.812 101.997 186.592 102.678 186.46 103.454C186.329 104.216 186.263 105.029 186.263 105.893ZM217.618 94.2256V99.3672H203.292V94.2256H217.618ZM206.302 88.3149H213.707V110.244C213.707 110.874 213.78 111.364 213.926 111.716C214.073 112.053 214.322 112.294 214.673 112.441C215.04 112.573 215.523 112.639 216.124 112.639C216.548 112.639 216.9 112.631 217.178 112.617C217.457 112.587 217.72 112.551 217.969 112.507V117.802C217.339 118.007 216.68 118.161 215.992 118.264C215.303 118.381 214.571 118.439 213.794 118.439C212.212 118.439 210.857 118.19 209.729 117.692C208.616 117.194 207.767 116.411 207.181 115.341C206.595 114.272 206.302 112.88 206.302 111.167V88.3149ZM227.857 115.209L234.009 94.2256H241.963L232.405 121.538C232.2 122.138 231.929 122.783 231.592 123.471C231.255 124.174 230.794 124.841 230.208 125.471C229.622 126.101 228.868 126.613 227.945 127.009C227.037 127.404 225.909 127.602 224.561 127.602C223.843 127.602 223.316 127.565 222.979 127.492C222.657 127.434 222.159 127.324 221.485 127.163V121.867C221.675 121.867 221.836 121.867 221.968 121.867C222.115 121.867 222.276 121.867 222.452 121.867C223.243 121.867 223.873 121.787 224.341 121.625C224.825 121.464 225.191 121.23 225.44 120.922C225.704 120.615 225.909 120.241 226.055 119.802L227.857 115.209ZM226.297 94.2256L230.977 110.859L231.79 118.703H226.824L218.365 94.2256H226.297ZM251.368 98.7959V127.141H243.963V94.2256H250.862L251.368 98.7959ZM265.958 105.827V106.289C265.958 108.017 265.76 109.621 265.364 111.101C264.969 112.58 264.383 113.869 263.606 114.968C262.83 116.066 261.863 116.923 260.706 117.539C259.563 118.139 258.238 118.439 256.729 118.439C255.308 118.439 254.085 118.125 253.06 117.495C252.034 116.865 251.177 115.993 250.489 114.88C249.8 113.767 249.244 112.492 248.819 111.057C248.394 109.621 248.057 108.105 247.808 106.508V105.915C248.057 104.201 248.394 102.612 248.819 101.147C249.244 99.6675 249.8 98.3784 250.489 97.2798C251.177 96.1812 252.027 95.3242 253.038 94.709C254.063 94.0938 255.286 93.7861 256.707 93.7861C258.216 93.7861 259.542 94.0718 260.684 94.6431C261.841 95.2144 262.808 96.0347 263.584 97.104C264.375 98.1587 264.969 99.4258 265.364 100.905C265.76 102.385 265.958 104.025 265.958 105.827ZM258.553 106.289V105.827C258.553 104.904 258.487 104.062 258.355 103.3C258.223 102.524 258.011 101.85 257.718 101.279C257.439 100.708 257.066 100.268 256.597 99.9604C256.128 99.6528 255.55 99.499 254.861 99.499C254.07 99.499 253.404 99.6235 252.862 99.8726C252.334 100.107 251.91 100.473 251.587 100.971C251.28 101.455 251.06 102.062 250.928 102.795C250.811 103.513 250.76 104.355 250.774 105.322V107.124C250.745 108.237 250.855 109.218 251.104 110.068C251.353 110.903 251.785 111.555 252.4 112.023C253.016 112.492 253.851 112.727 254.905 112.727C255.608 112.727 256.194 112.565 256.663 112.243C257.132 111.906 257.505 111.445 257.784 110.859C258.062 110.258 258.26 109.57 258.377 108.793C258.494 108.017 258.553 107.182 258.553 106.289ZM277.076 94.2256V118H269.649V94.2256H277.076ZM269.209 88.0952C269.209 87.0405 269.59 86.1763 270.352 85.5024C271.114 84.8286 272.103 84.4917 273.318 84.4917C274.534 84.4917 275.523 84.8286 276.285 85.5024C277.046 86.1763 277.427 87.0405 277.427 88.0952C277.427 89.1499 277.046 90.0142 276.285 90.688C275.523 91.3618 274.534 91.6987 273.318 91.6987C272.103 91.6987 271.114 91.3618 270.352 90.688C269.59 90.0142 269.209 89.1499 269.209 88.0952ZM288.919 99.3013V118H281.514V94.2256H288.458L288.919 99.3013ZM288.04 105.3L286.304 105.344C286.304 103.527 286.524 101.909 286.963 100.488C287.403 99.0522 288.025 97.8364 288.831 96.8403C289.637 95.8442 290.596 95.0898 291.709 94.5771C292.837 94.0498 294.09 93.7861 295.467 93.7861C296.565 93.7861 297.569 93.9473 298.477 94.2695C299.4 94.5918 300.191 95.1118 300.85 95.8296C301.524 96.5474 302.037 97.4995 302.388 98.686C302.754 99.8579 302.938 101.308 302.938 103.037V118H295.489V103.015C295.489 102.062 295.357 101.337 295.093 100.839C294.83 100.327 294.449 99.9751 293.951 99.7847C293.453 99.5942 292.845 99.499 292.127 99.499C291.365 99.499 290.721 99.6455 290.193 99.9385C289.666 100.231 289.241 100.642 288.919 101.169C288.611 101.682 288.384 102.29 288.238 102.993C288.106 103.696 288.04 104.465 288.04 105.3ZM321.988 94.2256H328.711V117.077C328.711 119.274 328.206 121.135 327.195 122.658C326.185 124.196 324.771 125.361 322.955 126.152C321.153 126.958 319.043 127.36 316.626 127.36C315.557 127.36 314.466 127.221 313.353 126.943C312.239 126.679 311.199 126.284 310.232 125.756C309.266 125.229 308.453 124.577 307.793 123.801L310.892 119.45C311.492 120.124 312.247 120.695 313.155 121.164C314.063 121.647 315.132 121.889 316.363 121.889C317.432 121.889 318.326 121.699 319.043 121.318C319.776 120.937 320.333 120.38 320.713 119.648C321.094 118.93 321.285 118.059 321.285 117.033V99.8506L321.988 94.2256ZM306.189 106.398V105.937C306.189 104.135 306.409 102.495 306.849 101.015C307.303 99.521 307.947 98.2393 308.782 97.1699C309.632 96.0859 310.657 95.251 311.858 94.665C313.06 94.0791 314.415 93.7861 315.923 93.7861C317.549 93.7861 318.882 94.1011 319.922 94.731C320.977 95.3462 321.819 96.2104 322.449 97.3237C323.094 98.437 323.592 99.7407 323.943 101.235C324.31 102.714 324.617 104.311 324.866 106.025V106.574C324.617 108.186 324.273 109.709 323.833 111.145C323.409 112.565 322.852 113.825 322.164 114.924C321.475 116.022 320.611 116.887 319.571 117.517C318.545 118.132 317.315 118.439 315.879 118.439C314.385 118.439 313.038 118.139 311.836 117.539C310.65 116.938 309.632 116.096 308.782 115.012C307.947 113.928 307.303 112.653 306.849 111.188C306.409 109.724 306.189 108.127 306.189 106.398ZM313.594 105.937V106.398C313.594 107.292 313.675 108.12 313.836 108.881C314.012 109.643 314.275 110.317 314.627 110.903C314.979 111.474 315.411 111.921 315.923 112.243C316.451 112.565 317.066 112.727 317.769 112.727C318.838 112.727 319.703 112.5 320.362 112.045C321.021 111.591 321.497 110.947 321.79 110.112C322.083 109.277 322.208 108.295 322.164 107.167V105.432C322.193 104.465 322.127 103.615 321.966 102.883C321.805 102.136 321.548 101.513 321.197 101.015C320.86 100.517 320.406 100.144 319.834 99.8945C319.278 99.6309 318.604 99.499 317.813 99.499C317.125 99.499 316.517 99.6602 315.989 99.9824C315.462 100.305 315.022 100.759 314.671 101.345C314.319 101.916 314.048 102.597 313.858 103.388C313.682 104.165 313.594 105.014 313.594 105.937Z" fill="white"/>
</g>
<path d="M1363 15C1363 6.71573 1356.28 0 1348 0H1134V167H1348C1356.28 167 1363 160.284 1363 152V15Z" fill="#3AA346"/>
<path fill-rule="evenodd" clip-rule="evenodd" d="M1203 49C1203 47.8954 1203.9 47 1205 47H1292.5C1293.6 47 1294.5 47.8954 1294.5 49V118.996C1294.5 120.101 1293.6 120.996 1292.5 120.996H1205C1203.9 120.996 1203 120.101 1203 118.996V49ZM1207 51V55.4945H1290.5V51H1207ZM1290.5 59.4945H1235.44V116.996H1290.5V59.4945ZM1231.44 116.996V59.4945H1207V116.996H1231.44Z" fill="white"/>
<path fill-rule="evenodd" clip-rule="evenodd" d="M1209.97 64.8004C1209.97 63.6958 1210.87 62.8004 1211.97 62.8004H1225.97C1227.08 62.8004 1227.97 63.6958 1227.97 64.8004V84.1956C1227.97 85.3001 1227.08 86.1956 1225.97 86.1956H1211.97C1210.87 86.1956 1209.97 85.3001 1209.97 84.1956V64.8004ZM1213.97 66.8004V82.1956H1223.97V66.8004H1213.97ZM1239.58 65.6964C1239.58 64.5918 1240.47 63.6964 1241.58 63.6964H1284.5C1285.61 63.6964 1286.5 64.5918 1286.5 65.6964V111.905C1286.5 113.01 1285.61 113.905 1284.5 113.905H1241.58C1240.47 113.905 1239.58 113.01 1239.58 111.905V65.6964ZM1243.58 67.6964V109.905H1282.5V67.6964H1243.58ZM1209.81 95.9363C1209.81 94.8317 1210.71 93.9363 1211.81 93.9363H1220.73C1221.84 93.9363 1222.73 94.8317 1222.73 95.9363C1222.73 97.0409 1221.84 97.9363 1220.73 97.9363H1211.81C1210.71 97.9363 1209.81 97.0409 1209.81 95.9363ZM1209.81 102.936C1209.81 101.832 1210.71 100.936 1211.81 100.936H1226.35C1227.46 100.936 1228.35 101.832 1228.35 102.936C1228.35 104.041 1227.46 104.936 1226.35 104.936H1211.81C1210.71 104.936 1209.81 104.041 1209.81 102.936ZM1209.81 109.936C1209.81 108.832 1210.71 107.936 1211.81 107.936H1220.73C1221.84 107.936 1222.73 108.832 1222.73 109.936C1222.73 111.041 1221.84 111.936 1220.73 111.936H1211.81C1210.71 111.936 1209.81 111.041 1209.81 109.936Z" fill="white"/>
</svg>
