<svg width="1363" height="167" viewBox="0 0 1363 167" fill="none" xmlns="http://www.w3.org/2000/svg">
<rect width="1363" height="167" rx="15" fill="#F0F0F0"/>
<path d="M0 15C0 6.71573 6.71573 0 15 0H37V167H15C6.71573 167 0 160.284 0 152V15Z" fill="#424241"/>
<path d="M100.906 54.9219L93.3945 52.2383V49.0859L103.602 53.375V55.6367L100.906 54.9219ZM93.3945 57.1719L100.918 54.4297L103.602 53.7852V56.0352L93.3945 60.3242V57.1719ZM120.781 57.5352C120.781 57.2305 120.734 56.957 120.641 56.7148C120.555 56.4648 120.391 56.2383 120.148 56.0352C119.906 55.8242 119.566 55.6172 119.129 55.4141C118.691 55.2109 118.125 55 117.43 54.7812C116.656 54.5312 115.922 54.25 115.227 53.9375C114.539 53.625 113.93 53.2617 113.398 52.8477C112.875 52.4258 112.461 51.9375 112.156 51.3828C111.859 50.8281 111.711 50.1836 111.711 49.4492C111.711 48.7383 111.867 48.0938 112.18 47.5156C112.492 46.9297 112.93 46.4297 113.492 46.0156C114.055 45.5938 114.719 45.2695 115.484 45.043C116.258 44.8164 117.105 44.7031 118.027 44.7031C119.285 44.7031 120.383 44.9297 121.32 45.3828C122.258 45.8359 122.984 46.457 123.5 47.2461C124.023 48.0352 124.285 48.9375 124.285 49.9531H120.793C120.793 49.4531 120.688 49.0156 120.477 48.6406C120.273 48.2578 119.961 47.957 119.539 47.7383C119.125 47.5195 118.602 47.4102 117.969 47.4102C117.359 47.4102 116.852 47.5039 116.445 47.6914C116.039 47.8711 115.734 48.1172 115.531 48.4297C115.328 48.7344 115.227 49.0781 115.227 49.4609C115.227 49.75 115.297 50.0117 115.438 50.2461C115.586 50.4805 115.805 50.6992 116.094 50.9023C116.383 51.1055 116.738 51.2969 117.16 51.4766C117.582 51.6562 118.07 51.832 118.625 52.0039C119.555 52.2852 120.371 52.6016 121.074 52.9531C121.785 53.3047 122.379 53.6992 122.855 54.1367C123.332 54.5742 123.691 55.0703 123.934 55.625C124.176 56.1797 124.297 56.8086 124.297 57.5117C124.297 58.2539 124.152 58.918 123.863 59.5039C123.574 60.0898 123.156 60.5859 122.609 60.9922C122.062 61.3984 121.41 61.707 120.652 61.918C119.895 62.1289 119.047 62.2344 118.109 62.2344C117.266 62.2344 116.434 62.125 115.613 61.9062C114.793 61.6797 114.047 61.3398 113.375 60.8867C112.711 60.4336 112.18 59.8555 111.781 59.1523C111.383 58.4492 111.184 57.6172 111.184 56.6562H114.711C114.711 57.1875 114.793 57.6367 114.957 58.0039C115.121 58.3711 115.352 58.668 115.648 58.8945C115.953 59.1211 116.312 59.2852 116.727 59.3867C117.148 59.4883 117.609 59.5391 118.109 59.5391C118.719 59.5391 119.219 59.4531 119.609 59.2812C120.008 59.1094 120.301 58.8711 120.488 58.5664C120.684 58.2617 120.781 57.918 120.781 57.5352ZM129.77 44V62H126.395V44H129.77ZM129.289 55.2148H128.363C128.371 54.332 128.488 53.5195 128.715 52.7773C128.941 52.0273 129.266 51.3789 129.688 50.832C130.109 50.2773 130.613 49.8477 131.199 49.543C131.793 49.2383 132.449 49.0859 133.168 49.0859C133.793 49.0859 134.359 49.1758 134.867 49.3555C135.383 49.5273 135.824 49.8086 136.191 50.1992C136.566 50.582 136.855 51.0859 137.059 51.7109C137.262 52.3359 137.363 53.0938 137.363 53.9844V62H133.965V53.9609C133.965 53.3984 133.883 52.957 133.719 52.6367C133.562 52.3086 133.332 52.0781 133.027 51.9453C132.73 51.8047 132.363 51.7344 131.926 51.7344C131.441 51.7344 131.027 51.8242 130.684 52.0039C130.348 52.1836 130.078 52.4336 129.875 52.7539C129.672 53.0664 129.523 53.4336 129.43 53.8555C129.336 54.2773 129.289 54.7305 129.289 55.2148ZM145.766 62.2344C144.781 62.2344 143.898 62.0781 143.117 61.7656C142.336 61.4453 141.672 61.0039 141.125 60.4414C140.586 59.8789 140.172 59.2266 139.883 58.4844C139.594 57.7344 139.449 56.9375 139.449 56.0938V55.625C139.449 54.6641 139.586 53.7852 139.859 52.9883C140.133 52.1914 140.523 51.5 141.031 50.9141C141.547 50.3281 142.172 49.8789 142.906 49.5664C143.641 49.2461 144.469 49.0859 145.391 49.0859C146.289 49.0859 147.086 49.2344 147.781 49.5312C148.477 49.8281 149.059 50.25 149.527 50.7969C150.004 51.3438 150.363 52 150.605 52.7656C150.848 53.5234 150.969 54.3672 150.969 55.2969V56.7031H140.891V54.4531H147.652V54.1953C147.652 53.7266 147.566 53.3086 147.395 52.9414C147.23 52.5664 146.98 52.2695 146.645 52.0508C146.309 51.832 145.879 51.7227 145.355 51.7227C144.91 51.7227 144.527 51.8203 144.207 52.0156C143.887 52.2109 143.625 52.4844 143.422 52.8359C143.227 53.1875 143.078 53.6016 142.977 54.0781C142.883 54.5469 142.836 55.0625 142.836 55.625V56.0938C142.836 56.6016 142.906 57.0703 143.047 57.5C143.195 57.9297 143.402 58.3008 143.668 58.6133C143.941 58.9258 144.27 59.168 144.652 59.3398C145.043 59.5117 145.484 59.5977 145.977 59.5977C146.586 59.5977 147.152 59.4805 147.676 59.2461C148.207 59.0039 148.664 58.6406 149.047 58.1562L150.688 59.9375C150.422 60.3203 150.059 60.6875 149.598 61.0391C149.145 61.3906 148.598 61.6797 147.957 61.9062C147.316 62.125 146.586 62.2344 145.766 62.2344ZM156.453 44V62H153.066V44H156.453ZM163.555 59.5391L166.367 49.3203H169.895L165.617 62H163.484L163.555 59.5391ZM161.621 49.3203L164.445 59.5508L164.504 62H162.359L158.082 49.3203H161.621ZM177.078 62.2344C176.094 62.2344 175.211 62.0781 174.43 61.7656C173.648 61.4453 172.984 61.0039 172.438 60.4414C171.898 59.8789 171.484 59.2266 171.195 58.4844C170.906 57.7344 170.762 56.9375 170.762 56.0938V55.625C170.762 54.6641 170.898 53.7852 171.172 52.9883C171.445 52.1914 171.836 51.5 172.344 50.9141C172.859 50.3281 173.484 49.8789 174.219 49.5664C174.953 49.2461 175.781 49.0859 176.703 49.0859C177.602 49.0859 178.398 49.2344 179.094 49.5312C179.789 49.8281 180.371 50.25 180.84 50.7969C181.316 51.3438 181.676 52 181.918 52.7656C182.16 53.5234 182.281 54.3672 182.281 55.2969V56.7031H172.203V54.4531H178.965V54.1953C178.965 53.7266 178.879 53.3086 178.707 52.9414C178.543 52.5664 178.293 52.2695 177.957 52.0508C177.621 51.832 177.191 51.7227 176.668 51.7227C176.223 51.7227 175.84 51.8203 175.52 52.0156C175.199 52.2109 174.938 52.4844 174.734 52.8359C174.539 53.1875 174.391 53.6016 174.289 54.0781C174.195 54.5469 174.148 55.0625 174.148 55.625V56.0938C174.148 56.6016 174.219 57.0703 174.359 57.5C174.508 57.9297 174.715 58.3008 174.98 58.6133C175.254 58.9258 175.582 59.168 175.965 59.3398C176.355 59.5117 176.797 59.5977 177.289 59.5977C177.898 59.5977 178.465 59.4805 178.988 59.2461C179.52 59.0039 179.977 58.6406 180.359 58.1562L182 59.9375C181.734 60.3203 181.371 60.6875 180.91 61.0391C180.457 61.3906 179.91 61.6797 179.27 61.9062C178.629 62.125 177.898 62.2344 177.078 62.2344ZM191.059 58.4961C191.059 58.2539 190.988 58.0352 190.848 57.8398C190.707 57.6445 190.445 57.4648 190.062 57.3008C189.688 57.1289 189.145 56.9727 188.434 56.832C187.793 56.6914 187.195 56.5156 186.641 56.3047C186.094 56.0859 185.617 55.8242 185.211 55.5195C184.812 55.2148 184.5 54.8555 184.273 54.4414C184.047 54.0195 183.934 53.5391 183.934 53C183.934 52.4688 184.047 51.9688 184.273 51.5C184.508 51.0312 184.84 50.6172 185.27 50.2578C185.707 49.8906 186.238 49.6055 186.863 49.4023C187.496 49.1914 188.207 49.0859 188.996 49.0859C190.098 49.0859 191.043 49.2617 191.832 49.6133C192.629 49.9648 193.238 50.4492 193.66 51.0664C194.09 51.6758 194.305 52.3711 194.305 53.1523H190.93C190.93 52.8242 190.859 52.5312 190.719 52.2734C190.586 52.0078 190.375 51.8008 190.086 51.6523C189.805 51.4961 189.438 51.418 188.984 51.418C188.609 51.418 188.285 51.4844 188.012 51.6172C187.738 51.7422 187.527 51.9141 187.379 52.1328C187.238 52.3438 187.168 52.5781 187.168 52.8359C187.168 53.0312 187.207 53.207 187.285 53.3633C187.371 53.5117 187.508 53.6484 187.695 53.7734C187.883 53.8984 188.125 54.0156 188.422 54.125C188.727 54.2266 189.102 54.3203 189.547 54.4062C190.461 54.5938 191.277 54.8398 191.996 55.1445C192.715 55.4414 193.285 55.8477 193.707 56.3633C194.129 56.8711 194.34 57.5391 194.34 58.3672C194.34 58.9297 194.215 59.4453 193.965 59.9141C193.715 60.3828 193.355 60.793 192.887 61.1445C192.418 61.4883 191.855 61.7578 191.199 61.9531C190.551 62.1406 189.82 62.2344 189.008 62.2344C187.828 62.2344 186.828 62.0234 186.008 61.6016C185.195 61.1797 184.578 60.6445 184.156 59.9961C183.742 59.3398 183.535 58.668 183.535 57.9805H186.734C186.75 58.4414 186.867 58.8125 187.086 59.0938C187.312 59.375 187.598 59.5781 187.941 59.7031C188.293 59.8281 188.672 59.8906 189.078 59.8906C189.516 59.8906 189.879 59.832 190.168 59.7148C190.457 59.5898 190.676 59.4258 190.824 59.2227C190.98 59.0117 191.059 58.7695 191.059 58.4961ZM209.715 44.9375V62H206.211V44.9375H209.715ZM214.965 44.9375V47.6914H201.043V44.9375H214.965ZM219.312 52.0859V62H215.938V49.3203H219.113L219.312 52.0859ZM223.133 49.2383L223.074 52.3672C222.91 52.3438 222.711 52.3242 222.477 52.3086C222.25 52.2852 222.043 52.2734 221.855 52.2734C221.379 52.2734 220.965 52.3359 220.613 52.4609C220.27 52.5781 219.98 52.7539 219.746 52.9883C219.52 53.2227 219.348 53.5078 219.23 53.8438C219.121 54.1797 219.059 54.5625 219.043 54.9922L218.363 54.7812C218.363 53.9609 218.445 53.207 218.609 52.5195C218.773 51.8242 219.012 51.2188 219.324 50.7031C219.645 50.1875 220.035 49.7891 220.496 49.5078C220.957 49.2266 221.484 49.0859 222.078 49.0859C222.266 49.0859 222.457 49.1016 222.652 49.1328C222.848 49.1562 223.008 49.1914 223.133 49.2383ZM231.172 59.1406V53.4922C231.172 53.0859 231.105 52.7383 230.973 52.4492C230.84 52.1523 230.633 51.9219 230.352 51.7578C230.078 51.5938 229.723 51.5117 229.285 51.5117C228.91 51.5117 228.586 51.5781 228.312 51.7109C228.039 51.8359 227.828 52.0195 227.68 52.2617C227.531 52.4961 227.457 52.7734 227.457 53.0938H224.082C224.082 52.5547 224.207 52.043 224.457 51.5586C224.707 51.0742 225.07 50.6484 225.547 50.2812C226.023 49.9062 226.59 49.6133 227.246 49.4023C227.91 49.1914 228.652 49.0859 229.473 49.0859C230.457 49.0859 231.332 49.25 232.098 49.5781C232.863 49.9062 233.465 50.3984 233.902 51.0547C234.348 51.7109 234.57 52.5312 234.57 53.5156V58.9414C234.57 59.6367 234.613 60.207 234.699 60.6523C234.785 61.0898 234.91 61.4727 235.074 61.8008V62H231.664C231.5 61.6562 231.375 61.2266 231.289 60.7109C231.211 60.1875 231.172 59.6641 231.172 59.1406ZM231.617 54.2773L231.641 56.1875H229.754C229.309 56.1875 228.922 56.2383 228.594 56.3398C228.266 56.4414 227.996 56.5859 227.785 56.7734C227.574 56.9531 227.418 57.1641 227.316 57.4062C227.223 57.6484 227.176 57.9141 227.176 58.2031C227.176 58.4922 227.242 58.7539 227.375 58.9883C227.508 59.2148 227.699 59.3945 227.949 59.5273C228.199 59.6523 228.492 59.7148 228.828 59.7148C229.336 59.7148 229.777 59.6133 230.152 59.4102C230.527 59.207 230.816 58.957 231.02 58.6602C231.23 58.3633 231.34 58.082 231.348 57.8164L232.238 59.2461C232.113 59.5664 231.941 59.8984 231.723 60.2422C231.512 60.5859 231.242 60.9102 230.914 61.2148C230.586 61.5117 230.191 61.7578 229.73 61.9531C229.27 62.1406 228.723 62.2344 228.09 62.2344C227.285 62.2344 226.555 62.0742 225.898 61.7539C225.25 61.4258 224.734 60.9766 224.352 60.4062C223.977 59.8281 223.789 59.1719 223.789 58.4375C223.789 57.7734 223.914 57.1836 224.164 56.668C224.414 56.1523 224.781 55.7188 225.266 55.3672C225.758 55.0078 226.371 54.7383 227.105 54.5586C227.84 54.3711 228.691 54.2773 229.66 54.2773H231.617ZM242.41 59.5977C242.824 59.5977 243.191 59.5195 243.512 59.3633C243.832 59.1992 244.082 58.9727 244.262 58.6836C244.449 58.3867 244.547 58.0391 244.555 57.6406H247.73C247.723 58.5312 247.484 59.3242 247.016 60.0195C246.547 60.707 245.918 61.25 245.129 61.6484C244.34 62.0391 243.457 62.2344 242.48 62.2344C241.496 62.2344 240.637 62.0703 239.902 61.7422C239.176 61.4141 238.57 60.9609 238.086 60.3828C237.602 59.7969 237.238 59.1172 236.996 58.3438C236.754 57.5625 236.633 56.7266 236.633 55.8359V55.4961C236.633 54.5977 236.754 53.7617 236.996 52.9883C237.238 52.207 237.602 51.5273 238.086 50.9492C238.57 50.3633 239.176 49.9062 239.902 49.5781C240.629 49.25 241.48 49.0859 242.457 49.0859C243.496 49.0859 244.406 49.2852 245.188 49.6836C245.977 50.082 246.594 50.6523 247.039 51.3945C247.492 52.1289 247.723 53 247.73 54.0078H244.555C244.547 53.5859 244.457 53.2031 244.285 52.8594C244.121 52.5156 243.879 52.2422 243.559 52.0391C243.246 51.8281 242.859 51.7227 242.398 51.7227C241.906 51.7227 241.504 51.8281 241.191 52.0391C240.879 52.2422 240.637 52.5234 240.465 52.8828C240.293 53.2344 240.172 53.6367 240.102 54.0898C240.039 54.5352 240.008 55.0039 240.008 55.4961V55.8359C240.008 56.3281 240.039 56.8008 240.102 57.2539C240.164 57.707 240.281 58.1094 240.453 58.4609C240.633 58.8125 240.879 59.0898 241.191 59.293C241.504 59.4961 241.91 59.5977 242.41 59.5977ZM253.062 43.9883V62H249.688V43.9883H253.062ZM261.055 49.3203L255.547 55.6016L252.594 58.5898L251.363 56.1523L253.707 53.1758L257 49.3203H261.055ZM257.551 62L253.801 56.1406L256.133 54.1016L261.441 62H257.551ZM268.109 62.2344C267.125 62.2344 266.242 62.0781 265.461 61.7656C264.68 61.4453 264.016 61.0039 263.469 60.4414C262.93 59.8789 262.516 59.2266 262.227 58.4844C261.938 57.7344 261.793 56.9375 261.793 56.0938V55.625C261.793 54.6641 261.93 53.7852 262.203 52.9883C262.477 52.1914 262.867 51.5 263.375 50.9141C263.891 50.3281 264.516 49.8789 265.25 49.5664C265.984 49.2461 266.812 49.0859 267.734 49.0859C268.633 49.0859 269.43 49.2344 270.125 49.5312C270.82 49.8281 271.402 50.25 271.871 50.7969C272.348 51.3438 272.707 52 272.949 52.7656C273.191 53.5234 273.312 54.3672 273.312 55.2969V56.7031H263.234V54.4531H269.996V54.1953C269.996 53.7266 269.91 53.3086 269.738 52.9414C269.574 52.5664 269.324 52.2695 268.988 52.0508C268.652 51.832 268.223 51.7227 267.699 51.7227C267.254 51.7227 266.871 51.8203 266.551 52.0156C266.23 52.2109 265.969 52.4844 265.766 52.8359C265.57 53.1875 265.422 53.6016 265.32 54.0781C265.227 54.5469 265.18 55.0625 265.18 55.625V56.0938C265.18 56.6016 265.25 57.0703 265.391 57.5C265.539 57.9297 265.746 58.3008 266.012 58.6133C266.285 58.9258 266.613 59.168 266.996 59.3398C267.387 59.5117 267.828 59.5977 268.32 59.5977C268.93 59.5977 269.496 59.4805 270.02 59.2461C270.551 59.0039 271.008 58.6406 271.391 58.1562L273.031 59.9375C272.766 60.3203 272.402 60.6875 271.941 61.0391C271.488 61.3906 270.941 61.6797 270.301 61.9062C269.66 62.125 268.93 62.2344 268.109 62.2344ZM278.609 52.0859V62H275.234V49.3203H278.41L278.609 52.0859ZM282.43 49.2383L282.371 52.3672C282.207 52.3438 282.008 52.3242 281.773 52.3086C281.547 52.2852 281.34 52.2734 281.152 52.2734C280.676 52.2734 280.262 52.3359 279.91 52.4609C279.566 52.5781 279.277 52.7539 279.043 52.9883C278.816 53.2227 278.645 53.5078 278.527 53.8438C278.418 54.1797 278.355 54.5625 278.34 54.9922L277.66 54.7812C277.66 53.9609 277.742 53.207 277.906 52.5195C278.07 51.8242 278.309 51.2188 278.621 50.7031C278.941 50.1875 279.332 49.7891 279.793 49.5078C280.254 49.2266 280.781 49.0859 281.375 49.0859C281.562 49.0859 281.754 49.1016 281.949 49.1328C282.145 49.1562 282.305 49.1914 282.43 49.2383Z" fill="#888888"/>
<path d="M102.635 86.0078V118H94.9443V86.0078H102.635ZM115.181 99.2573V118H107.776V94.2256H114.72L115.181 99.2573ZM114.28 105.3L112.588 105.344C112.588 103.674 112.786 102.136 113.182 100.729C113.577 99.3232 114.163 98.1001 114.939 97.0601C115.716 96.02 116.668 95.2144 117.796 94.6431C118.938 94.0718 120.257 93.7861 121.751 93.7861C122.791 93.7861 123.736 93.9473 124.585 94.2695C125.435 94.5771 126.167 95.0679 126.783 95.7417C127.398 96.4009 127.867 97.2651 128.189 98.3345C128.526 99.3892 128.694 100.656 128.694 102.136V118H121.29V103.081C121.29 102.07 121.172 101.308 120.938 100.795C120.718 100.283 120.396 99.9385 119.971 99.7627C119.546 99.5869 119.026 99.499 118.411 99.499C117.767 99.499 117.188 99.6455 116.675 99.9385C116.163 100.231 115.723 100.642 115.357 101.169C115.005 101.682 114.734 102.29 114.544 102.993C114.368 103.696 114.28 104.465 114.28 105.3ZM127.859 105.3L125.794 105.344C125.794 103.674 125.977 102.136 126.343 100.729C126.724 99.3232 127.288 98.1001 128.035 97.0601C128.797 96.02 129.742 95.2144 130.87 94.6431C131.998 94.0718 133.309 93.7861 134.803 93.7861C135.887 93.7861 136.883 93.9473 137.791 94.2695C138.699 94.5918 139.483 95.1118 140.142 95.8296C140.801 96.5474 141.314 97.4995 141.68 98.686C142.046 99.8579 142.229 101.308 142.229 103.037V118H134.803V103.037C134.803 102.055 134.686 101.315 134.451 100.817C134.231 100.305 133.909 99.9604 133.484 99.7847C133.06 99.5942 132.554 99.499 131.968 99.499C131.265 99.499 130.657 99.6455 130.145 99.9385C129.632 100.231 129.2 100.642 128.848 101.169C128.511 101.682 128.262 102.29 128.101 102.993C127.94 103.696 127.859 104.465 127.859 105.3ZM153.941 98.7959V127.141H146.536V94.2256H153.436L153.941 98.7959ZM168.531 105.827V106.289C168.531 108.017 168.333 109.621 167.938 111.101C167.542 112.58 166.956 113.869 166.18 114.968C165.403 116.066 164.437 116.923 163.279 117.539C162.137 118.139 160.811 118.439 159.302 118.439C157.881 118.439 156.658 118.125 155.633 117.495C154.607 116.865 153.75 115.993 153.062 114.88C152.374 113.767 151.817 112.492 151.392 111.057C150.967 109.621 150.63 108.105 150.381 106.508V105.915C150.63 104.201 150.967 102.612 151.392 101.147C151.817 99.6675 152.374 98.3784 153.062 97.2798C153.75 96.1812 154.6 95.3242 155.611 94.709C156.636 94.0938 157.859 93.7861 159.28 93.7861C160.789 93.7861 162.115 94.0718 163.257 94.6431C164.415 95.2144 165.381 96.0347 166.158 97.104C166.949 98.1587 167.542 99.4258 167.938 100.905C168.333 102.385 168.531 104.025 168.531 105.827ZM161.126 106.289V105.827C161.126 104.904 161.06 104.062 160.928 103.3C160.796 102.524 160.584 101.85 160.291 101.279C160.013 100.708 159.639 100.268 159.17 99.9604C158.702 99.6528 158.123 99.499 157.435 99.499C156.644 99.499 155.977 99.6235 155.435 99.8726C154.908 100.107 154.483 100.473 154.161 100.971C153.853 101.455 153.633 102.062 153.501 102.795C153.384 103.513 153.333 104.355 153.348 105.322V107.124C153.318 108.237 153.428 109.218 153.677 110.068C153.926 110.903 154.358 111.555 154.974 112.023C155.589 112.492 156.424 112.727 157.479 112.727C158.182 112.727 158.768 112.565 159.236 112.243C159.705 111.906 160.079 111.445 160.357 110.859C160.635 110.258 160.833 109.57 160.95 108.793C161.067 108.017 161.126 107.182 161.126 106.289ZM179.649 84.25V118H172.222V84.25H179.649ZM195.733 118.439C193.799 118.439 192.071 118.139 190.547 117.539C189.024 116.923 187.735 116.081 186.68 115.012C185.64 113.942 184.842 112.712 184.285 111.32C183.743 109.929 183.472 108.457 183.472 106.904V106.069C183.472 104.326 183.714 102.714 184.197 101.235C184.681 99.7407 185.398 98.437 186.351 97.3237C187.303 96.2104 188.497 95.3462 189.932 94.731C191.368 94.1011 193.038 93.7861 194.942 93.7861C196.626 93.7861 198.135 94.0571 199.468 94.5991C200.801 95.1411 201.929 95.9175 202.852 96.9282C203.79 97.939 204.5 99.1621 204.983 100.598C205.481 102.033 205.73 103.645 205.73 105.432V108.442H186.307V103.806H198.501V103.234C198.516 102.443 198.377 101.77 198.084 101.213C197.806 100.656 197.396 100.231 196.854 99.9385C196.312 99.6455 195.652 99.499 194.876 99.499C194.07 99.499 193.404 99.6748 192.876 100.026C192.364 100.378 191.961 100.861 191.668 101.477C191.39 102.077 191.192 102.773 191.075 103.564C190.958 104.355 190.899 105.19 190.899 106.069V106.904C190.899 107.783 191.016 108.581 191.25 109.299C191.5 110.017 191.851 110.632 192.305 111.145C192.774 111.643 193.331 112.031 193.975 112.309C194.634 112.587 195.381 112.727 196.216 112.727C197.227 112.727 198.223 112.536 199.205 112.155C200.186 111.774 201.028 111.145 201.731 110.266L205.093 114.265C204.61 114.953 203.921 115.62 203.028 116.264C202.149 116.909 201.094 117.436 199.864 117.846C198.633 118.242 197.256 118.439 195.733 118.439ZM216.211 99.2573V118H208.807V94.2256H215.75L216.211 99.2573ZM215.311 105.3L213.619 105.344C213.619 103.674 213.816 102.136 214.212 100.729C214.607 99.3232 215.193 98.1001 215.97 97.0601C216.746 96.02 217.698 95.2144 218.826 94.6431C219.969 94.0718 221.287 93.7861 222.781 93.7861C223.821 93.7861 224.766 93.9473 225.616 94.2695C226.465 94.5771 227.198 95.0679 227.813 95.7417C228.428 96.4009 228.897 97.2651 229.219 98.3345C229.556 99.3892 229.725 100.656 229.725 102.136V118H222.32V103.081C222.32 102.07 222.203 101.308 221.968 100.795C221.749 100.283 221.426 99.9385 221.001 99.7627C220.577 99.5869 220.057 99.499 219.441 99.499C218.797 99.499 218.218 99.6455 217.706 99.9385C217.193 100.231 216.753 100.642 216.387 101.169C216.036 101.682 215.765 102.29 215.574 102.993C215.398 103.696 215.311 104.465 215.311 105.3ZM228.89 105.3L226.824 105.344C226.824 103.674 227.007 102.136 227.374 100.729C227.754 99.3232 228.318 98.1001 229.065 97.0601C229.827 96.02 230.772 95.2144 231.9 94.6431C233.028 94.0718 234.339 93.7861 235.833 93.7861C236.917 93.7861 237.913 93.9473 238.821 94.2695C239.729 94.5918 240.513 95.1118 241.172 95.8296C241.832 96.5474 242.344 97.4995 242.71 98.686C243.077 99.8579 243.26 101.308 243.26 103.037V118H235.833V103.037C235.833 102.055 235.716 101.315 235.481 100.817C235.262 100.305 234.939 99.9604 234.515 99.7847C234.09 99.5942 233.584 99.499 232.999 99.499C232.295 99.499 231.688 99.6455 231.175 99.9385C230.662 100.231 230.23 100.642 229.878 101.169C229.542 101.682 229.292 102.29 229.131 102.993C228.97 103.696 228.89 104.465 228.89 105.3ZM259.014 118.439C257.081 118.439 255.352 118.139 253.829 117.539C252.305 116.923 251.016 116.081 249.961 115.012C248.921 113.942 248.123 112.712 247.566 111.32C247.024 109.929 246.753 108.457 246.753 106.904V106.069C246.753 104.326 246.995 102.714 247.479 101.235C247.962 99.7407 248.68 98.437 249.632 97.3237C250.584 96.2104 251.778 95.3462 253.213 94.731C254.649 94.1011 256.319 93.7861 258.223 93.7861C259.908 93.7861 261.417 94.0571 262.75 94.5991C264.083 95.1411 265.21 95.9175 266.133 96.9282C267.071 97.939 267.781 99.1621 268.265 100.598C268.763 102.033 269.012 103.645 269.012 105.432V108.442H249.588V103.806H261.783V103.234C261.797 102.443 261.658 101.77 261.365 101.213C261.087 100.656 260.677 100.231 260.135 99.9385C259.593 99.6455 258.934 99.499 258.157 99.499C257.352 99.499 256.685 99.6748 256.158 100.026C255.645 100.378 255.242 100.861 254.949 101.477C254.671 102.077 254.473 102.773 254.356 103.564C254.239 104.355 254.18 105.19 254.18 106.069V106.904C254.18 107.783 254.297 108.581 254.532 109.299C254.781 110.017 255.132 110.632 255.586 111.145C256.055 111.643 256.612 112.031 257.256 112.309C257.916 112.587 258.663 112.727 259.498 112.727C260.508 112.727 261.504 112.536 262.486 112.155C263.467 111.774 264.31 111.145 265.013 110.266L268.375 114.265C267.891 114.953 267.203 115.62 266.309 116.264C265.43 116.909 264.375 117.436 263.145 117.846C261.915 118.242 260.538 118.439 259.014 118.439ZM279.295 99.3013V118H271.89V94.2256H278.833L279.295 99.3013ZM278.416 105.3L276.68 105.344C276.68 103.527 276.9 101.909 277.339 100.488C277.779 99.0522 278.401 97.8364 279.207 96.8403C280.013 95.8442 280.972 95.0898 282.085 94.5771C283.213 94.0498 284.466 93.7861 285.843 93.7861C286.941 93.7861 287.945 93.9473 288.853 94.2695C289.776 94.5918 290.567 95.1118 291.226 95.8296C291.9 96.5474 292.413 97.4995 292.764 98.686C293.13 99.8579 293.313 101.308 293.313 103.037V118H285.865V103.015C285.865 102.062 285.733 101.337 285.469 100.839C285.206 100.327 284.825 99.9751 284.327 99.7847C283.829 99.5942 283.221 99.499 282.503 99.499C281.741 99.499 281.097 99.6455 280.569 99.9385C280.042 100.231 279.617 100.642 279.295 101.169C278.987 101.682 278.76 102.29 278.614 102.993C278.482 103.696 278.416 104.465 278.416 105.3ZM309.947 94.2256V99.3672H295.621V94.2256H309.947ZM298.631 88.3149H306.036V110.244C306.036 110.874 306.109 111.364 306.255 111.716C306.402 112.053 306.651 112.294 307.002 112.441C307.369 112.573 307.852 112.639 308.453 112.639C308.877 112.639 309.229 112.631 309.507 112.617C309.786 112.587 310.049 112.551 310.298 112.507V117.802C309.668 118.007 309.009 118.161 308.321 118.264C307.632 118.381 306.9 118.439 306.124 118.439C304.542 118.439 303.187 118.19 302.059 117.692C300.945 117.194 300.096 116.411 299.51 115.341C298.924 114.272 298.631 112.88 298.631 111.167V88.3149ZM325.24 112.023V102.224C325.24 101.55 325.145 100.971 324.954 100.488C324.764 100.004 324.463 99.6309 324.053 99.3672C323.643 99.0889 323.094 98.9497 322.405 98.9497C321.849 98.9497 321.373 99.0449 320.977 99.2354C320.582 99.4258 320.281 99.7114 320.076 100.092C319.871 100.473 319.769 100.957 319.769 101.542H312.364C312.364 100.444 312.605 99.4258 313.089 98.4883C313.587 97.5361 314.29 96.7085 315.198 96.0054C316.121 95.3022 317.22 94.7603 318.494 94.3794C319.783 93.9839 321.219 93.7861 322.801 93.7861C324.69 93.7861 326.375 94.1011 327.854 94.731C329.349 95.3608 330.528 96.3057 331.392 97.5654C332.256 98.8105 332.688 100.378 332.688 102.268V112.001C332.688 113.554 332.776 114.733 332.952 115.539C333.128 116.33 333.377 117.026 333.699 117.626V118H326.272C325.921 117.268 325.657 116.374 325.481 115.319C325.32 114.25 325.24 113.151 325.24 112.023ZM326.141 103.476L326.185 107.431H322.911C322.222 107.431 321.636 107.526 321.153 107.717C320.684 107.907 320.303 108.171 320.01 108.508C319.732 108.83 319.527 109.196 319.395 109.606C319.278 110.017 319.219 110.449 319.219 110.903C319.219 111.342 319.322 111.738 319.527 112.089C319.747 112.426 320.04 112.69 320.406 112.88C320.772 113.071 321.182 113.166 321.636 113.166C322.457 113.166 323.152 113.012 323.724 112.705C324.31 112.382 324.756 111.994 325.064 111.54C325.372 111.086 325.525 110.661 325.525 110.266L327.151 113.298C326.858 113.884 326.521 114.477 326.141 115.078C325.774 115.678 325.313 116.235 324.756 116.748C324.214 117.246 323.548 117.656 322.757 117.978C321.966 118.286 321.006 118.439 319.878 118.439C318.414 118.439 317.066 118.139 315.835 117.539C314.62 116.938 313.646 116.103 312.913 115.034C312.181 113.95 311.814 112.705 311.814 111.298C311.814 110.068 312.034 108.969 312.474 108.002C312.928 107.036 313.609 106.215 314.517 105.542C315.425 104.868 316.583 104.355 317.989 104.003C319.395 103.652 321.05 103.476 322.955 103.476H326.141ZM349.322 94.2256V99.3672H334.996V94.2256H349.322ZM338.006 88.3149H345.411V110.244C345.411 110.874 345.484 111.364 345.63 111.716C345.777 112.053 346.026 112.294 346.377 112.441C346.744 112.573 347.227 112.639 347.828 112.639C348.252 112.639 348.604 112.631 348.882 112.617C349.161 112.587 349.424 112.551 349.673 112.507V117.802C349.043 118.007 348.384 118.161 347.696 118.264C347.007 118.381 346.275 118.439 345.499 118.439C343.917 118.439 342.562 118.19 341.434 117.692C340.32 117.194 339.471 116.411 338.885 115.341C338.299 114.272 338.006 112.88 338.006 111.167V88.3149ZM360.088 94.2256V118H352.662V94.2256H360.088ZM352.222 88.0952C352.222 87.0405 352.603 86.1763 353.365 85.5024C354.126 84.8286 355.115 84.4917 356.331 84.4917C357.547 84.4917 358.536 84.8286 359.297 85.5024C360.059 86.1763 360.44 87.0405 360.44 88.0952C360.44 89.1499 360.059 90.0142 359.297 90.688C358.536 91.3618 357.547 91.6987 356.331 91.6987C355.115 91.6987 354.126 91.3618 353.365 90.688C352.603 90.0142 352.222 89.1499 352.222 88.0952ZM363.736 106.354V105.893C363.736 104.15 363.985 102.546 364.483 101.081C364.981 99.6016 365.713 98.3198 366.68 97.2358C367.647 96.1519 368.841 95.3096 370.262 94.709C371.683 94.0938 373.323 93.7861 375.184 93.7861C377.059 93.7861 378.707 94.0938 380.127 94.709C381.563 95.3096 382.764 96.1519 383.731 97.2358C384.698 98.3198 385.43 99.6016 385.928 101.081C386.426 102.546 386.675 104.15 386.675 105.893V106.354C386.675 108.083 386.426 109.687 385.928 111.167C385.43 112.631 384.698 113.913 383.731 115.012C382.764 116.096 381.57 116.938 380.149 117.539C378.729 118.139 377.088 118.439 375.228 118.439C373.367 118.439 371.719 118.139 370.284 117.539C368.848 116.938 367.647 116.096 366.68 115.012C365.713 113.913 364.981 112.631 364.483 111.167C363.985 109.687 363.736 108.083 363.736 106.354ZM371.141 105.893V106.354C371.141 107.248 371.207 108.083 371.338 108.859C371.47 109.636 371.69 110.317 371.998 110.903C372.305 111.474 372.723 111.921 373.25 112.243C373.777 112.565 374.437 112.727 375.228 112.727C376.004 112.727 376.648 112.565 377.161 112.243C377.688 111.921 378.106 111.474 378.414 110.903C378.721 110.317 378.941 109.636 379.073 108.859C379.205 108.083 379.271 107.248 379.271 106.354V105.893C379.271 105.029 379.205 104.216 379.073 103.454C378.941 102.678 378.721 101.997 378.414 101.411C378.106 100.81 377.688 100.341 377.161 100.004C376.634 99.6675 375.975 99.499 375.184 99.499C374.407 99.499 373.755 99.6675 373.228 100.004C372.715 100.341 372.305 100.81 371.998 101.411C371.69 101.997 371.47 102.678 371.338 103.454C371.207 104.216 371.141 105.029 371.141 105.893ZM397.244 99.3013V118H389.839V94.2256H396.783L397.244 99.3013ZM396.365 105.3L394.629 105.344C394.629 103.527 394.849 101.909 395.289 100.488C395.728 99.0522 396.351 97.8364 397.156 96.8403C397.962 95.8442 398.921 95.0898 400.035 94.5771C401.163 94.0498 402.415 93.7861 403.792 93.7861C404.891 93.7861 405.894 93.9473 406.802 94.2695C407.725 94.5918 408.516 95.1118 409.175 95.8296C409.849 96.5474 410.362 97.4995 410.713 98.686C411.08 99.8579 411.263 101.308 411.263 103.037V118H403.814V103.015C403.814 102.062 403.682 101.337 403.418 100.839C403.155 100.327 402.774 99.9751 402.276 99.7847C401.778 99.5942 401.17 99.499 400.452 99.499C399.69 99.499 399.046 99.6455 398.519 99.9385C397.991 100.231 397.566 100.642 397.244 101.169C396.937 101.682 396.709 102.29 396.563 102.993C396.431 103.696 396.365 104.465 396.365 105.3Z" fill="#424241"/>
<path d="M1363 15C1363 6.71573 1356.28 0 1348 0H1134V167H1348C1356.28 167 1363 160.284 1363 152V15Z" fill="#3AA346"/>
<path d="M1281.5 49H1216.5L1214 51.5V116.5L1216.5 119H1281.5L1284 116.5V51.5L1281.5 49ZM1279 114H1234V104H1245.5C1247 107 1250.5 109 1254 109C1259.5 109 1264 104.5 1264 99C1264 93.5 1259.5 89 1254 89C1248.5 89 1244 93.5 1244 99H1229V114H1219V54H1229V65.5C1226 67 1224 70.5 1224 74C1224 79.5 1228.5 84 1234 84C1239.5 84 1244 79.5 1244 74H1254C1254 79.5 1258.5 84 1264 84C1269.5 84 1274 79.5 1274 74C1274 68.5 1269.5 64 1264 64C1260.5 64 1257 66 1255.5 69H1242.5C1241 66 1237.5 64 1234 64V54H1279V114ZM1249 99C1249 96 1251 94 1254 94C1257 94 1259 96 1259 99C1259 102 1257 104 1254 104C1251 104 1249 102 1249 99ZM1234 69C1237 69 1239 71 1239 74C1239 77 1237 79 1234 79C1231 79 1229 77 1229 74C1229 71 1231 69 1234 69ZM1264 69C1267 69 1269 71 1269 74C1269 77 1267 79 1264 79C1261 79 1259 77 1259 74C1259 71 1261 69 1264 69Z" fill="white"/>
</svg>
