<svg width="1363" height="167" viewBox="0 0 1363 167" fill="none" xmlns="http://www.w3.org/2000/svg">
<g style="mix-blend-mode:exclusion">
<rect width="1363" height="167" rx="15" fill="white" fill-opacity="0.05"/>
</g>
<g style="mix-blend-mode:exclusion">
<path d="M0 15C0 6.71573 6.71573 0 15 0H37V167H15C6.71573 167 0 160.284 0 152V15Z" fill="white" fill-opacity="0.25"/>
</g>
<g style="mix-blend-mode:exclusion">
<path d="M100.906 54.9219L93.3945 52.2383V49.0859L103.602 53.375V55.6367L100.906 54.9219ZM93.3945 57.1719L100.918 54.4297L103.602 53.7852V56.0352L93.3945 60.3242V57.1719ZM120.781 57.5352C120.781 57.2305 120.734 56.957 120.641 56.7148C120.555 56.4648 120.391 56.2383 120.148 56.0352C119.906 55.8242 119.566 55.6172 119.129 55.4141C118.691 55.2109 118.125 55 117.43 54.7812C116.656 54.5312 115.922 54.25 115.227 53.9375C114.539 53.625 113.93 53.2617 113.398 52.8477C112.875 52.4258 112.461 51.9375 112.156 51.3828C111.859 50.8281 111.711 50.1836 111.711 49.4492C111.711 48.7383 111.867 48.0938 112.18 47.5156C112.492 46.9297 112.93 46.4297 113.492 46.0156C114.055 45.5938 114.719 45.2695 115.484 45.043C116.258 44.8164 117.105 44.7031 118.027 44.7031C119.285 44.7031 120.383 44.9297 121.32 45.3828C122.258 45.8359 122.984 46.457 123.5 47.2461C124.023 48.0352 124.285 48.9375 124.285 49.9531H120.793C120.793 49.4531 120.688 49.0156 120.477 48.6406C120.273 48.2578 119.961 47.957 119.539 47.7383C119.125 47.5195 118.602 47.4102 117.969 47.4102C117.359 47.4102 116.852 47.5039 116.445 47.6914C116.039 47.8711 115.734 48.1172 115.531 48.4297C115.328 48.7344 115.227 49.0781 115.227 49.4609C115.227 49.75 115.297 50.0117 115.438 50.2461C115.586 50.4805 115.805 50.6992 116.094 50.9023C116.383 51.1055 116.738 51.2969 117.16 51.4766C117.582 51.6562 118.07 51.832 118.625 52.0039C119.555 52.2852 120.371 52.6016 121.074 52.9531C121.785 53.3047 122.379 53.6992 122.855 54.1367C123.332 54.5742 123.691 55.0703 123.934 55.625C124.176 56.1797 124.297 56.8086 124.297 57.5117C124.297 58.2539 124.152 58.918 123.863 59.5039C123.574 60.0898 123.156 60.5859 122.609 60.9922C122.062 61.3984 121.41 61.707 120.652 61.918C119.895 62.1289 119.047 62.2344 118.109 62.2344C117.266 62.2344 116.434 62.125 115.613 61.9062C114.793 61.6797 114.047 61.3398 113.375 60.8867C112.711 60.4336 112.18 59.8555 111.781 59.1523C111.383 58.4492 111.184 57.6172 111.184 56.6562H114.711C114.711 57.1875 114.793 57.6367 114.957 58.0039C115.121 58.3711 115.352 58.668 115.648 58.8945C115.953 59.1211 116.312 59.2852 116.727 59.3867C117.148 59.4883 117.609 59.5391 118.109 59.5391C118.719 59.5391 119.219 59.4531 119.609 59.2812C120.008 59.1094 120.301 58.8711 120.488 58.5664C120.684 58.2617 120.781 57.918 120.781 57.5352ZM129.77 44V62H126.395V44H129.77ZM129.289 55.2148H128.363C128.371 54.332 128.488 53.5195 128.715 52.7773C128.941 52.0273 129.266 51.3789 129.688 50.832C130.109 50.2773 130.613 49.8477 131.199 49.543C131.793 49.2383 132.449 49.0859 133.168 49.0859C133.793 49.0859 134.359 49.1758 134.867 49.3555C135.383 49.5273 135.824 49.8086 136.191 50.1992C136.566 50.582 136.855 51.0859 137.059 51.7109C137.262 52.3359 137.363 53.0938 137.363 53.9844V62H133.965V53.9609C133.965 53.3984 133.883 52.957 133.719 52.6367C133.562 52.3086 133.332 52.0781 133.027 51.9453C132.73 51.8047 132.363 51.7344 131.926 51.7344C131.441 51.7344 131.027 51.8242 130.684 52.0039C130.348 52.1836 130.078 52.4336 129.875 52.7539C129.672 53.0664 129.523 53.4336 129.43 53.8555C129.336 54.2773 129.289 54.7305 129.289 55.2148ZM145.766 62.2344C144.781 62.2344 143.898 62.0781 143.117 61.7656C142.336 61.4453 141.672 61.0039 141.125 60.4414C140.586 59.8789 140.172 59.2266 139.883 58.4844C139.594 57.7344 139.449 56.9375 139.449 56.0938V55.625C139.449 54.6641 139.586 53.7852 139.859 52.9883C140.133 52.1914 140.523 51.5 141.031 50.9141C141.547 50.3281 142.172 49.8789 142.906 49.5664C143.641 49.2461 144.469 49.0859 145.391 49.0859C146.289 49.0859 147.086 49.2344 147.781 49.5312C148.477 49.8281 149.059 50.25 149.527 50.7969C150.004 51.3438 150.363 52 150.605 52.7656C150.848 53.5234 150.969 54.3672 150.969 55.2969V56.7031H140.891V54.4531H147.652V54.1953C147.652 53.7266 147.566 53.3086 147.395 52.9414C147.23 52.5664 146.98 52.2695 146.645 52.0508C146.309 51.832 145.879 51.7227 145.355 51.7227C144.91 51.7227 144.527 51.8203 144.207 52.0156C143.887 52.2109 143.625 52.4844 143.422 52.8359C143.227 53.1875 143.078 53.6016 142.977 54.0781C142.883 54.5469 142.836 55.0625 142.836 55.625V56.0938C142.836 56.6016 142.906 57.0703 143.047 57.5C143.195 57.9297 143.402 58.3008 143.668 58.6133C143.941 58.9258 144.27 59.168 144.652 59.3398C145.043 59.5117 145.484 59.5977 145.977 59.5977C146.586 59.5977 147.152 59.4805 147.676 59.2461C148.207 59.0039 148.664 58.6406 149.047 58.1562L150.688 59.9375C150.422 60.3203 150.059 60.6875 149.598 61.0391C149.145 61.3906 148.598 61.6797 147.957 61.9062C147.316 62.125 146.586 62.2344 145.766 62.2344ZM156.453 44V62H153.066V44H156.453ZM163.555 59.5391L166.367 49.3203H169.895L165.617 62H163.484L163.555 59.5391ZM161.621 49.3203L164.445 59.5508L164.504 62H162.359L158.082 49.3203H161.621ZM177.078 62.2344C176.094 62.2344 175.211 62.0781 174.43 61.7656C173.648 61.4453 172.984 61.0039 172.438 60.4414C171.898 59.8789 171.484 59.2266 171.195 58.4844C170.906 57.7344 170.762 56.9375 170.762 56.0938V55.625C170.762 54.6641 170.898 53.7852 171.172 52.9883C171.445 52.1914 171.836 51.5 172.344 50.9141C172.859 50.3281 173.484 49.8789 174.219 49.5664C174.953 49.2461 175.781 49.0859 176.703 49.0859C177.602 49.0859 178.398 49.2344 179.094 49.5312C179.789 49.8281 180.371 50.25 180.84 50.7969C181.316 51.3438 181.676 52 181.918 52.7656C182.16 53.5234 182.281 54.3672 182.281 55.2969V56.7031H172.203V54.4531H178.965V54.1953C178.965 53.7266 178.879 53.3086 178.707 52.9414C178.543 52.5664 178.293 52.2695 177.957 52.0508C177.621 51.832 177.191 51.7227 176.668 51.7227C176.223 51.7227 175.84 51.8203 175.52 52.0156C175.199 52.2109 174.938 52.4844 174.734 52.8359C174.539 53.1875 174.391 53.6016 174.289 54.0781C174.195 54.5469 174.148 55.0625 174.148 55.625V56.0938C174.148 56.6016 174.219 57.0703 174.359 57.5C174.508 57.9297 174.715 58.3008 174.98 58.6133C175.254 58.9258 175.582 59.168 175.965 59.3398C176.355 59.5117 176.797 59.5977 177.289 59.5977C177.898 59.5977 178.465 59.4805 178.988 59.2461C179.52 59.0039 179.977 58.6406 180.359 58.1562L182 59.9375C181.734 60.3203 181.371 60.6875 180.91 61.0391C180.457 61.3906 179.91 61.6797 179.27 61.9062C178.629 62.125 177.898 62.2344 177.078 62.2344ZM191.059 58.4961C191.059 58.2539 190.988 58.0352 190.848 57.8398C190.707 57.6445 190.445 57.4648 190.062 57.3008C189.688 57.1289 189.145 56.9727 188.434 56.832C187.793 56.6914 187.195 56.5156 186.641 56.3047C186.094 56.0859 185.617 55.8242 185.211 55.5195C184.812 55.2148 184.5 54.8555 184.273 54.4414C184.047 54.0195 183.934 53.5391 183.934 53C183.934 52.4688 184.047 51.9688 184.273 51.5C184.508 51.0312 184.84 50.6172 185.27 50.2578C185.707 49.8906 186.238 49.6055 186.863 49.4023C187.496 49.1914 188.207 49.0859 188.996 49.0859C190.098 49.0859 191.043 49.2617 191.832 49.6133C192.629 49.9648 193.238 50.4492 193.66 51.0664C194.09 51.6758 194.305 52.3711 194.305 53.1523H190.93C190.93 52.8242 190.859 52.5312 190.719 52.2734C190.586 52.0078 190.375 51.8008 190.086 51.6523C189.805 51.4961 189.438 51.418 188.984 51.418C188.609 51.418 188.285 51.4844 188.012 51.6172C187.738 51.7422 187.527 51.9141 187.379 52.1328C187.238 52.3438 187.168 52.5781 187.168 52.8359C187.168 53.0312 187.207 53.207 187.285 53.3633C187.371 53.5117 187.508 53.6484 187.695 53.7734C187.883 53.8984 188.125 54.0156 188.422 54.125C188.727 54.2266 189.102 54.3203 189.547 54.4062C190.461 54.5938 191.277 54.8398 191.996 55.1445C192.715 55.4414 193.285 55.8477 193.707 56.3633C194.129 56.8711 194.34 57.5391 194.34 58.3672C194.34 58.9297 194.215 59.4453 193.965 59.9141C193.715 60.3828 193.355 60.793 192.887 61.1445C192.418 61.4883 191.855 61.7578 191.199 61.9531C190.551 62.1406 189.82 62.2344 189.008 62.2344C187.828 62.2344 186.828 62.0234 186.008 61.6016C185.195 61.1797 184.578 60.6445 184.156 59.9961C183.742 59.3398 183.535 58.668 183.535 57.9805H186.734C186.75 58.4414 186.867 58.8125 187.086 59.0938C187.312 59.375 187.598 59.5781 187.941 59.7031C188.293 59.8281 188.672 59.8906 189.078 59.8906C189.516 59.8906 189.879 59.832 190.168 59.7148C190.457 59.5898 190.676 59.4258 190.824 59.2227C190.98 59.0117 191.059 58.7695 191.059 58.4961ZM209.715 44.9375V62H206.211V44.9375H209.715ZM214.965 44.9375V47.6914H201.043V44.9375H214.965ZM219.312 52.0859V62H215.938V49.3203H219.113L219.312 52.0859ZM223.133 49.2383L223.074 52.3672C222.91 52.3438 222.711 52.3242 222.477 52.3086C222.25 52.2852 222.043 52.2734 221.855 52.2734C221.379 52.2734 220.965 52.3359 220.613 52.4609C220.27 52.5781 219.98 52.7539 219.746 52.9883C219.52 53.2227 219.348 53.5078 219.23 53.8438C219.121 54.1797 219.059 54.5625 219.043 54.9922L218.363 54.7812C218.363 53.9609 218.445 53.207 218.609 52.5195C218.773 51.8242 219.012 51.2188 219.324 50.7031C219.645 50.1875 220.035 49.7891 220.496 49.5078C220.957 49.2266 221.484 49.0859 222.078 49.0859C222.266 49.0859 222.457 49.1016 222.652 49.1328C222.848 49.1562 223.008 49.1914 223.133 49.2383ZM231.172 59.1406V53.4922C231.172 53.0859 231.105 52.7383 230.973 52.4492C230.84 52.1523 230.633 51.9219 230.352 51.7578C230.078 51.5938 229.723 51.5117 229.285 51.5117C228.91 51.5117 228.586 51.5781 228.312 51.7109C228.039 51.8359 227.828 52.0195 227.68 52.2617C227.531 52.4961 227.457 52.7734 227.457 53.0938H224.082C224.082 52.5547 224.207 52.043 224.457 51.5586C224.707 51.0742 225.07 50.6484 225.547 50.2812C226.023 49.9062 226.59 49.6133 227.246 49.4023C227.91 49.1914 228.652 49.0859 229.473 49.0859C230.457 49.0859 231.332 49.25 232.098 49.5781C232.863 49.9062 233.465 50.3984 233.902 51.0547C234.348 51.7109 234.57 52.5312 234.57 53.5156V58.9414C234.57 59.6367 234.613 60.207 234.699 60.6523C234.785 61.0898 234.91 61.4727 235.074 61.8008V62H231.664C231.5 61.6562 231.375 61.2266 231.289 60.7109C231.211 60.1875 231.172 59.6641 231.172 59.1406ZM231.617 54.2773L231.641 56.1875H229.754C229.309 56.1875 228.922 56.2383 228.594 56.3398C228.266 56.4414 227.996 56.5859 227.785 56.7734C227.574 56.9531 227.418 57.1641 227.316 57.4062C227.223 57.6484 227.176 57.9141 227.176 58.2031C227.176 58.4922 227.242 58.7539 227.375 58.9883C227.508 59.2148 227.699 59.3945 227.949 59.5273C228.199 59.6523 228.492 59.7148 228.828 59.7148C229.336 59.7148 229.777 59.6133 230.152 59.4102C230.527 59.207 230.816 58.957 231.02 58.6602C231.23 58.3633 231.34 58.082 231.348 57.8164L232.238 59.2461C232.113 59.5664 231.941 59.8984 231.723 60.2422C231.512 60.5859 231.242 60.9102 230.914 61.2148C230.586 61.5117 230.191 61.7578 229.73 61.9531C229.27 62.1406 228.723 62.2344 228.09 62.2344C227.285 62.2344 226.555 62.0742 225.898 61.7539C225.25 61.4258 224.734 60.9766 224.352 60.4062C223.977 59.8281 223.789 59.1719 223.789 58.4375C223.789 57.7734 223.914 57.1836 224.164 56.668C224.414 56.1523 224.781 55.7188 225.266 55.3672C225.758 55.0078 226.371 54.7383 227.105 54.5586C227.84 54.3711 228.691 54.2773 229.66 54.2773H231.617ZM242.41 59.5977C242.824 59.5977 243.191 59.5195 243.512 59.3633C243.832 59.1992 244.082 58.9727 244.262 58.6836C244.449 58.3867 244.547 58.0391 244.555 57.6406H247.73C247.723 58.5312 247.484 59.3242 247.016 60.0195C246.547 60.707 245.918 61.25 245.129 61.6484C244.34 62.0391 243.457 62.2344 242.48 62.2344C241.496 62.2344 240.637 62.0703 239.902 61.7422C239.176 61.4141 238.57 60.9609 238.086 60.3828C237.602 59.7969 237.238 59.1172 236.996 58.3438C236.754 57.5625 236.633 56.7266 236.633 55.8359V55.4961C236.633 54.5977 236.754 53.7617 236.996 52.9883C237.238 52.207 237.602 51.5273 238.086 50.9492C238.57 50.3633 239.176 49.9062 239.902 49.5781C240.629 49.25 241.48 49.0859 242.457 49.0859C243.496 49.0859 244.406 49.2852 245.188 49.6836C245.977 50.082 246.594 50.6523 247.039 51.3945C247.492 52.1289 247.723 53 247.73 54.0078H244.555C244.547 53.5859 244.457 53.2031 244.285 52.8594C244.121 52.5156 243.879 52.2422 243.559 52.0391C243.246 51.8281 242.859 51.7227 242.398 51.7227C241.906 51.7227 241.504 51.8281 241.191 52.0391C240.879 52.2422 240.637 52.5234 240.465 52.8828C240.293 53.2344 240.172 53.6367 240.102 54.0898C240.039 54.5352 240.008 55.0039 240.008 55.4961V55.8359C240.008 56.3281 240.039 56.8008 240.102 57.2539C240.164 57.707 240.281 58.1094 240.453 58.4609C240.633 58.8125 240.879 59.0898 241.191 59.293C241.504 59.4961 241.91 59.5977 242.41 59.5977ZM253.062 43.9883V62H249.688V43.9883H253.062ZM261.055 49.3203L255.547 55.6016L252.594 58.5898L251.363 56.1523L253.707 53.1758L257 49.3203H261.055ZM257.551 62L253.801 56.1406L256.133 54.1016L261.441 62H257.551ZM268.109 62.2344C267.125 62.2344 266.242 62.0781 265.461 61.7656C264.68 61.4453 264.016 61.0039 263.469 60.4414C262.93 59.8789 262.516 59.2266 262.227 58.4844C261.938 57.7344 261.793 56.9375 261.793 56.0938V55.625C261.793 54.6641 261.93 53.7852 262.203 52.9883C262.477 52.1914 262.867 51.5 263.375 50.9141C263.891 50.3281 264.516 49.8789 265.25 49.5664C265.984 49.2461 266.812 49.0859 267.734 49.0859C268.633 49.0859 269.43 49.2344 270.125 49.5312C270.82 49.8281 271.402 50.25 271.871 50.7969C272.348 51.3438 272.707 52 272.949 52.7656C273.191 53.5234 273.312 54.3672 273.312 55.2969V56.7031H263.234V54.4531H269.996V54.1953C269.996 53.7266 269.91 53.3086 269.738 52.9414C269.574 52.5664 269.324 52.2695 268.988 52.0508C268.652 51.832 268.223 51.7227 267.699 51.7227C267.254 51.7227 266.871 51.8203 266.551 52.0156C266.23 52.2109 265.969 52.4844 265.766 52.8359C265.57 53.1875 265.422 53.6016 265.32 54.0781C265.227 54.5469 265.18 55.0625 265.18 55.625V56.0938C265.18 56.6016 265.25 57.0703 265.391 57.5C265.539 57.9297 265.746 58.3008 266.012 58.6133C266.285 58.9258 266.613 59.168 266.996 59.3398C267.387 59.5117 267.828 59.5977 268.32 59.5977C268.93 59.5977 269.496 59.4805 270.02 59.2461C270.551 59.0039 271.008 58.6406 271.391 58.1562L273.031 59.9375C272.766 60.3203 272.402 60.6875 271.941 61.0391C271.488 61.3906 270.941 61.6797 270.301 61.9062C269.66 62.125 268.93 62.2344 268.109 62.2344ZM278.609 52.0859V62H275.234V49.3203H278.41L278.609 52.0859ZM282.43 49.2383L282.371 52.3672C282.207 52.3438 282.008 52.3242 281.773 52.3086C281.547 52.2852 281.34 52.2734 281.152 52.2734C280.676 52.2734 280.262 52.3359 279.91 52.4609C279.566 52.5781 279.277 52.7539 279.043 52.9883C278.816 53.2227 278.645 53.5078 278.527 53.8438C278.418 54.1797 278.355 54.5625 278.34 54.9922L277.66 54.7812C277.66 53.9609 277.742 53.207 277.906 52.5195C278.07 51.8242 278.309 51.2188 278.621 50.7031C278.941 50.1875 279.332 49.7891 279.793 49.5078C280.254 49.2266 280.781 49.0859 281.375 49.0859C281.562 49.0859 281.754 49.1016 281.949 49.1328C282.145 49.1562 282.305 49.1914 282.43 49.2383Z" fill="white" fill-opacity="0.5"/>
</g>
<g style="mix-blend-mode:exclusion">
<path d="M107.205 107.146H99.251V101.191H107.205C108.289 101.191 109.168 101.008 109.842 100.642C110.516 100.275 111.006 99.77 111.314 99.1255C111.636 98.4663 111.797 97.7266 111.797 96.9062C111.797 96.0273 111.636 95.2144 111.314 94.4673C111.006 93.7202 110.516 93.1196 109.842 92.6655C109.168 92.1968 108.289 91.9624 107.205 91.9624H102.151V118H94.439V86.0078H107.205C109.769 86.0078 111.973 86.4766 113.819 87.4141C115.679 88.3516 117.107 89.6406 118.104 91.2812C119.1 92.9072 119.598 94.7676 119.598 96.8623C119.598 98.9277 119.1 100.729 118.104 102.268C117.107 103.806 115.679 105.007 113.819 105.871C111.973 106.721 109.769 107.146 107.205 107.146ZM130.87 100.114V118H123.465V94.2256H130.386L130.87 100.114ZM137.901 94.0498L137.769 100.927C137.476 100.898 137.081 100.861 136.583 100.817C136.084 100.773 135.667 100.751 135.33 100.751C134.466 100.751 133.719 100.854 133.089 101.059C132.474 101.25 131.961 101.542 131.551 101.938C131.155 102.319 130.862 102.802 130.672 103.388C130.496 103.974 130.416 104.655 130.43 105.432L129.09 104.553C129.09 102.956 129.244 101.506 129.551 100.202C129.874 98.8838 130.328 97.7485 130.914 96.7964C131.5 95.8296 132.21 95.0898 133.045 94.5771C133.88 94.0498 134.817 93.7861 135.857 93.7861C136.224 93.7861 136.583 93.8081 136.934 93.8521C137.3 93.896 137.623 93.9619 137.901 94.0498ZM138.736 106.354V105.893C138.736 104.15 138.985 102.546 139.483 101.081C139.981 99.6016 140.713 98.3198 141.68 97.2358C142.647 96.1519 143.841 95.3096 145.262 94.709C146.683 94.0938 148.323 93.7861 150.184 93.7861C152.059 93.7861 153.707 94.0938 155.127 94.709C156.563 95.3096 157.764 96.1519 158.731 97.2358C159.698 98.3198 160.43 99.6016 160.928 101.081C161.426 102.546 161.675 104.15 161.675 105.893V106.354C161.675 108.083 161.426 109.687 160.928 111.167C160.43 112.631 159.698 113.913 158.731 115.012C157.764 116.096 156.57 116.938 155.149 117.539C153.729 118.139 152.088 118.439 150.228 118.439C148.367 118.439 146.719 118.139 145.284 117.539C143.848 116.938 142.647 116.096 141.68 115.012C140.713 113.913 139.981 112.631 139.483 111.167C138.985 109.687 138.736 108.083 138.736 106.354ZM146.141 105.893V106.354C146.141 107.248 146.207 108.083 146.338 108.859C146.47 109.636 146.69 110.317 146.998 110.903C147.305 111.474 147.723 111.921 148.25 112.243C148.777 112.565 149.437 112.727 150.228 112.727C151.004 112.727 151.648 112.565 152.161 112.243C152.688 111.921 153.106 111.474 153.414 110.903C153.721 110.317 153.941 109.636 154.073 108.859C154.205 108.083 154.271 107.248 154.271 106.354V105.893C154.271 105.029 154.205 104.216 154.073 103.454C153.941 102.678 153.721 101.997 153.414 101.411C153.106 100.81 152.688 100.341 152.161 100.004C151.634 99.6675 150.975 99.499 150.184 99.499C149.407 99.499 148.755 99.6675 148.228 100.004C147.715 100.341 147.305 100.81 146.998 101.411C146.69 101.997 146.47 102.678 146.338 103.454C146.207 104.216 146.141 105.029 146.141 105.893ZM165.521 94.2256H172.947V118.769C172.947 120.673 172.581 122.277 171.849 123.581C171.116 124.899 170.069 125.896 168.707 126.569C167.344 127.258 165.718 127.602 163.829 127.602C163.199 127.602 162.62 127.573 162.093 127.514C161.551 127.47 160.958 127.375 160.313 127.229V121.625C160.694 121.684 161.045 121.728 161.368 121.757C161.69 121.801 162.042 121.823 162.422 121.823C163.096 121.823 163.66 121.713 164.114 121.494C164.568 121.274 164.913 120.937 165.147 120.483C165.396 120.029 165.521 119.458 165.521 118.769V94.2256ZM164.971 88.0952C164.971 87.0405 165.352 86.1763 166.114 85.5024C166.875 84.8286 167.864 84.4917 169.08 84.4917C170.296 84.4917 171.285 84.8286 172.046 85.5024C172.808 86.1763 173.189 87.0405 173.189 88.0952C173.189 89.1499 172.808 90.0142 172.046 90.688C171.285 91.3618 170.296 91.6987 169.08 91.6987C167.864 91.6987 166.875 91.3618 166.114 90.688C165.352 90.0142 164.971 89.1499 164.971 88.0952ZM188.658 118.439C186.724 118.439 184.996 118.139 183.472 117.539C181.949 116.923 180.66 116.081 179.605 115.012C178.565 113.942 177.767 112.712 177.21 111.32C176.668 109.929 176.397 108.457 176.397 106.904V106.069C176.397 104.326 176.639 102.714 177.122 101.235C177.605 99.7407 178.323 98.437 179.275 97.3237C180.228 96.2104 181.421 95.3462 182.857 94.731C184.292 94.1011 185.962 93.7861 187.867 93.7861C189.551 93.7861 191.06 94.0571 192.393 94.5991C193.726 95.1411 194.854 95.9175 195.777 96.9282C196.714 97.939 197.425 99.1621 197.908 100.598C198.406 102.033 198.655 103.645 198.655 105.432V108.442H179.231V103.806H191.426V103.234C191.441 102.443 191.302 101.77 191.009 101.213C190.73 100.656 190.32 100.231 189.778 99.9385C189.236 99.6455 188.577 99.499 187.801 99.499C186.995 99.499 186.329 99.6748 185.801 100.026C185.289 100.378 184.886 100.861 184.593 101.477C184.314 102.077 184.117 102.773 184 103.564C183.882 104.355 183.824 105.19 183.824 106.069V106.904C183.824 107.783 183.941 108.581 184.175 109.299C184.424 110.017 184.776 110.632 185.23 111.145C185.699 111.643 186.255 112.031 186.9 112.309C187.559 112.587 188.306 112.727 189.141 112.727C190.152 112.727 191.148 112.536 192.129 112.155C193.111 111.774 193.953 111.145 194.656 110.266L198.018 114.265C197.535 114.953 196.846 115.62 195.953 116.264C195.074 116.909 194.019 117.436 192.789 117.846C191.558 118.242 190.181 118.439 188.658 118.439ZM211.707 112.727C212.396 112.727 212.981 112.602 213.465 112.353C213.963 112.089 214.336 111.723 214.585 111.254C214.849 110.771 214.974 110.192 214.959 109.519H221.924C221.939 111.306 221.5 112.873 220.606 114.221C219.727 115.554 218.526 116.594 217.002 117.341C215.494 118.073 213.787 118.439 211.883 118.439C210.022 118.439 208.396 118.139 207.005 117.539C205.613 116.923 204.449 116.074 203.511 114.99C202.588 113.891 201.893 112.609 201.424 111.145C200.97 109.68 200.743 108.09 200.743 106.376V105.871C200.743 104.157 200.97 102.568 201.424 101.103C201.893 99.6235 202.588 98.3418 203.511 97.2578C204.449 96.1592 205.606 95.3096 206.983 94.709C208.375 94.0938 209.993 93.7861 211.839 93.7861C213.816 93.7861 215.56 94.1597 217.068 94.9067C218.592 95.6538 219.786 96.7378 220.65 98.1587C221.514 99.5796 221.939 101.301 221.924 103.322H214.959C214.974 102.604 214.864 101.96 214.629 101.389C214.395 100.817 214.029 100.363 213.531 100.026C213.047 99.6748 212.425 99.499 211.663 99.499C210.901 99.499 210.286 99.6675 209.817 100.004C209.349 100.341 208.99 100.81 208.741 101.411C208.506 101.997 208.345 102.67 208.257 103.432C208.184 104.194 208.147 105.007 208.147 105.871V106.376C208.147 107.255 208.184 108.083 208.257 108.859C208.345 109.621 208.514 110.295 208.763 110.881C209.012 111.452 209.371 111.906 209.839 112.243C210.308 112.565 210.931 112.727 211.707 112.727ZM237.613 94.2256V99.3672H223.287V94.2256H237.613ZM226.297 88.3149H233.702V110.244C233.702 110.874 233.775 111.364 233.921 111.716C234.068 112.053 234.317 112.294 234.668 112.441C235.035 112.573 235.518 112.639 236.119 112.639C236.543 112.639 236.895 112.631 237.173 112.617C237.452 112.587 237.715 112.551 237.964 112.507V117.802C237.334 118.007 236.675 118.161 235.987 118.264C235.298 118.381 234.566 118.439 233.79 118.439C232.208 118.439 230.853 118.19 229.725 117.692C228.611 117.194 227.762 116.411 227.176 115.341C226.59 114.272 226.297 112.88 226.297 111.167V88.3149ZM264.881 107.146H256.927V101.191H264.881C265.965 101.191 266.844 101.008 267.518 100.642C268.191 100.275 268.682 99.77 268.99 99.1255C269.312 98.4663 269.473 97.7266 269.473 96.9062C269.473 96.0273 269.312 95.2144 268.99 94.4673C268.682 93.7202 268.191 93.1196 267.518 92.6655C266.844 92.1968 265.965 91.9624 264.881 91.9624H259.827V118H252.115V86.0078H264.881C267.444 86.0078 269.649 86.4766 271.495 87.4141C273.355 88.3516 274.783 89.6406 275.779 91.2812C276.775 92.9072 277.273 94.7676 277.273 96.8623C277.273 98.9277 276.775 100.729 275.779 102.268C274.783 103.806 273.355 105.007 271.495 105.871C269.649 106.721 267.444 107.146 264.881 107.146ZM288.326 84.25V118H280.921V84.25H288.326ZM287.447 105.3L285.711 105.344C285.711 103.674 285.916 102.136 286.326 100.729C286.736 99.3232 287.322 98.1001 288.084 97.0601C288.846 96.02 289.761 95.2144 290.831 94.6431C291.9 94.0718 293.086 93.7861 294.39 93.7861C295.562 93.7861 296.631 93.9546 297.598 94.2915C298.58 94.6284 299.422 95.1704 300.125 95.9175C300.843 96.6646 301.392 97.6387 301.773 98.8398C302.168 100.041 302.366 101.506 302.366 103.234V118H294.917V103.19C294.917 102.224 294.778 101.477 294.5 100.949C294.236 100.407 293.855 100.034 293.357 99.8286C292.859 99.6089 292.251 99.499 291.534 99.499C290.669 99.499 289.966 99.6455 289.424 99.9385C288.882 100.231 288.465 100.642 288.172 101.169C287.894 101.682 287.703 102.29 287.601 102.993C287.498 103.696 287.447 104.465 287.447 105.3ZM314.297 94.2256V118H306.871V94.2256H314.297ZM306.431 88.0952C306.431 87.0405 306.812 86.1763 307.574 85.5024C308.335 84.8286 309.324 84.4917 310.54 84.4917C311.756 84.4917 312.745 84.8286 313.506 85.5024C314.268 86.1763 314.649 87.0405 314.649 88.0952C314.649 89.1499 314.268 90.0142 313.506 90.688C312.745 91.3618 311.756 91.6987 310.54 91.6987C309.324 91.6987 308.335 91.3618 307.574 90.688C306.812 90.0142 306.431 89.1499 306.431 88.0952ZM326.69 84.25V118H319.263V84.25H326.69ZM330.337 106.354V105.893C330.337 104.15 330.586 102.546 331.084 101.081C331.583 99.6016 332.315 98.3198 333.282 97.2358C334.249 96.1519 335.442 95.3096 336.863 94.709C338.284 94.0938 339.925 93.7861 341.785 93.7861C343.66 93.7861 345.308 94.0938 346.729 94.709C348.165 95.3096 349.366 96.1519 350.333 97.2358C351.299 98.3198 352.032 99.6016 352.53 101.081C353.028 102.546 353.277 104.15 353.277 105.893V106.354C353.277 108.083 353.028 109.687 352.53 111.167C352.032 112.631 351.299 113.913 350.333 115.012C349.366 116.096 348.172 116.938 346.751 117.539C345.33 118.139 343.689 118.439 341.829 118.439C339.969 118.439 338.321 118.139 336.885 117.539C335.45 116.938 334.249 116.096 333.282 115.012C332.315 113.913 331.583 112.631 331.084 111.167C330.586 109.687 330.337 108.083 330.337 106.354ZM337.742 105.893V106.354C337.742 107.248 337.808 108.083 337.94 108.859C338.072 109.636 338.292 110.317 338.599 110.903C338.907 111.474 339.324 111.921 339.852 112.243C340.379 112.565 341.038 112.727 341.829 112.727C342.605 112.727 343.25 112.565 343.763 112.243C344.29 111.921 344.708 111.474 345.015 110.903C345.323 110.317 345.542 109.636 345.674 108.859C345.806 108.083 345.872 107.248 345.872 106.354V105.893C345.872 105.029 345.806 104.216 345.674 103.454C345.542 102.678 345.323 101.997 345.015 101.411C344.708 100.81 344.29 100.341 343.763 100.004C343.235 99.6675 342.576 99.499 341.785 99.499C341.009 99.499 340.357 99.6675 339.83 100.004C339.317 100.341 338.907 100.81 338.599 101.411C338.292 101.997 338.072 102.678 337.94 103.454C337.808 104.216 337.742 105.029 337.742 105.893ZM369.031 111.32C369.031 110.91 368.892 110.559 368.614 110.266C368.35 109.958 367.881 109.68 367.208 109.431C366.534 109.167 365.589 108.903 364.373 108.64C363.216 108.391 362.125 108.061 361.099 107.651C360.088 107.241 359.202 106.743 358.44 106.157C357.679 105.571 357.078 104.875 356.639 104.069C356.214 103.264 356.001 102.341 356.001 101.301C356.001 100.29 356.214 99.3379 356.639 98.4443C357.078 97.5361 357.715 96.7378 358.55 96.0493C359.4 95.3462 360.433 94.7969 361.648 94.4014C362.864 93.9912 364.249 93.7861 365.801 93.7861C367.94 93.7861 369.786 94.1157 371.338 94.7749C372.891 95.4194 374.085 96.3276 374.92 97.4995C375.77 98.6567 376.194 99.9971 376.194 101.521H368.79C368.79 100.92 368.687 100.407 368.482 99.9824C368.292 99.5576 367.977 99.2354 367.537 99.0156C367.098 98.7812 366.512 98.6641 365.779 98.6641C365.267 98.6641 364.798 98.7593 364.373 98.9497C363.963 99.1401 363.633 99.4038 363.384 99.7407C363.135 100.078 363.011 100.473 363.011 100.927C363.011 101.25 363.084 101.542 363.23 101.806C363.392 102.055 363.633 102.29 363.956 102.509C364.278 102.714 364.688 102.905 365.186 103.081C365.684 103.242 366.285 103.388 366.988 103.52C368.584 103.813 370.079 104.23 371.47 104.772C372.862 105.314 373.99 106.083 374.854 107.08C375.733 108.076 376.172 109.416 376.172 111.101C376.172 112.155 375.931 113.129 375.447 114.023C374.964 114.902 374.268 115.678 373.36 116.352C372.452 117.011 371.36 117.524 370.086 117.89C368.812 118.256 367.376 118.439 365.779 118.439C363.509 118.439 361.59 118.037 360.022 117.231C358.455 116.411 357.269 115.385 356.463 114.155C355.672 112.91 355.276 111.65 355.276 110.375H362.176C362.205 111.108 362.381 111.708 362.703 112.177C363.04 112.646 363.487 112.99 364.043 113.21C364.6 113.43 365.245 113.54 365.977 113.54C366.651 113.54 367.208 113.444 367.647 113.254C368.101 113.063 368.445 112.807 368.68 112.485C368.914 112.148 369.031 111.76 369.031 111.32ZM378.721 106.354V105.893C378.721 104.15 378.97 102.546 379.468 101.081C379.966 99.6016 380.699 98.3198 381.666 97.2358C382.632 96.1519 383.826 95.3096 385.247 94.709C386.668 94.0938 388.309 93.7861 390.169 93.7861C392.044 93.7861 393.692 94.0938 395.113 94.709C396.548 95.3096 397.75 96.1519 398.716 97.2358C399.683 98.3198 400.416 99.6016 400.914 101.081C401.412 102.546 401.661 104.15 401.661 105.893V106.354C401.661 108.083 401.412 109.687 400.914 111.167C400.416 112.631 399.683 113.913 398.716 115.012C397.75 116.096 396.556 116.938 395.135 117.539C393.714 118.139 392.073 118.439 390.213 118.439C388.353 118.439 386.705 118.139 385.269 117.539C383.833 116.938 382.632 116.096 381.666 115.012C380.699 113.913 379.966 112.631 379.468 111.167C378.97 109.687 378.721 108.083 378.721 106.354ZM386.126 105.893V106.354C386.126 107.248 386.192 108.083 386.324 108.859C386.456 109.636 386.675 110.317 386.983 110.903C387.291 111.474 387.708 111.921 388.235 112.243C388.763 112.565 389.422 112.727 390.213 112.727C390.989 112.727 391.634 112.565 392.146 112.243C392.674 111.921 393.091 111.474 393.399 110.903C393.707 110.317 393.926 109.636 394.058 108.859C394.19 108.083 394.256 107.248 394.256 106.354V105.893C394.256 105.029 394.19 104.216 394.058 103.454C393.926 102.678 393.707 101.997 393.399 101.411C393.091 100.81 392.674 100.341 392.146 100.004C391.619 99.6675 390.96 99.499 390.169 99.499C389.393 99.499 388.741 99.6675 388.213 100.004C387.701 100.341 387.291 100.81 386.983 101.411C386.675 101.997 386.456 102.678 386.324 103.454C386.192 104.216 386.126 105.029 386.126 105.893ZM412.427 98.7959V127.141H405.022V94.2256H411.922L412.427 98.7959ZM427.017 105.827V106.289C427.017 108.017 426.819 109.621 426.424 111.101C426.028 112.58 425.442 113.869 424.666 114.968C423.89 116.066 422.923 116.923 421.766 117.539C420.623 118.139 419.297 118.439 417.789 118.439C416.368 118.439 415.145 118.125 414.119 117.495C413.094 116.865 412.237 115.993 411.548 114.88C410.86 113.767 410.303 112.492 409.878 111.057C409.454 109.621 409.117 108.105 408.868 106.508V105.915C409.117 104.201 409.454 102.612 409.878 101.147C410.303 99.6675 410.86 98.3784 411.548 97.2798C412.237 96.1812 413.086 95.3242 414.097 94.709C415.123 94.0938 416.346 93.7861 417.767 93.7861C419.275 93.7861 420.601 94.0718 421.744 94.6431C422.901 95.2144 423.868 96.0347 424.644 97.104C425.435 98.1587 426.028 99.4258 426.424 100.905C426.819 102.385 427.017 104.025 427.017 105.827ZM419.612 106.289V105.827C419.612 104.904 419.546 104.062 419.415 103.3C419.283 102.524 419.07 101.85 418.777 101.279C418.499 100.708 418.125 100.268 417.657 99.9604C417.188 99.6528 416.609 99.499 415.921 99.499C415.13 99.499 414.463 99.6235 413.921 99.8726C413.394 100.107 412.969 100.473 412.647 100.971C412.339 101.455 412.12 102.062 411.988 102.795C411.871 103.513 411.819 104.355 411.834 105.322V107.124C411.805 108.237 411.915 109.218 412.164 110.068C412.413 110.903 412.845 111.555 413.46 112.023C414.075 112.492 414.91 112.727 415.965 112.727C416.668 112.727 417.254 112.565 417.723 112.243C418.191 111.906 418.565 111.445 418.843 110.859C419.122 110.258 419.319 109.57 419.437 108.793C419.554 108.017 419.612 107.182 419.612 106.289ZM437.564 84.25V118H430.159V84.25H437.564ZM436.685 105.3L434.949 105.344C434.949 103.674 435.154 102.136 435.564 100.729C435.975 99.3232 436.561 98.1001 437.322 97.0601C438.084 96.02 439 95.2144 440.069 94.6431C441.138 94.0718 442.325 93.7861 443.628 93.7861C444.8 93.7861 445.87 93.9546 446.836 94.2915C447.818 94.6284 448.66 95.1704 449.363 95.9175C450.081 96.6646 450.63 97.6387 451.011 98.8398C451.407 100.041 451.604 101.506 451.604 103.234V118H444.156V103.19C444.156 102.224 444.017 101.477 443.738 100.949C443.475 100.407 443.094 100.034 442.596 99.8286C442.098 99.6089 441.49 99.499 440.772 99.499C439.908 99.499 439.205 99.6455 438.663 99.9385C438.121 100.231 437.703 100.642 437.41 101.169C437.132 101.682 436.941 102.29 436.839 102.993C436.736 103.696 436.685 104.465 436.685 105.3ZM463.008 115.209L469.161 94.2256H477.115L467.557 121.538C467.352 122.138 467.081 122.783 466.744 123.471C466.407 124.174 465.945 124.841 465.359 125.471C464.773 126.101 464.019 126.613 463.096 127.009C462.188 127.404 461.06 127.602 459.712 127.602C458.995 127.602 458.467 127.565 458.13 127.492C457.808 127.434 457.31 127.324 456.636 127.163V121.867C456.827 121.867 456.988 121.867 457.12 121.867C457.266 121.867 457.427 121.867 457.603 121.867C458.394 121.867 459.024 121.787 459.493 121.625C459.976 121.464 460.342 121.23 460.591 120.922C460.855 120.615 461.06 120.241 461.207 119.802L463.008 115.209ZM461.448 94.2256L466.128 110.859L466.941 118.703H461.976L453.516 94.2256H461.448Z" fill="white"/>
</g>
<path d="M1363 15C1363 6.71573 1356.28 0 1348 0H1134V167H1348C1356.28 167 1363 160.284 1363 152V15Z" fill="#3AA346"/>
<path d="M1234.26 106.286H1262.74V111.857H1234.26V106.286ZM1239.96 117.429H1257.04V123H1239.96V117.429ZM1248.5 45C1240.95 45 1233.71 47.9349 1228.37 53.1592C1223.03 58.3834 1220.03 65.469 1220.03 72.8571C1219.84 76.9057 1220.63 80.9412 1222.34 84.6315C1224.05 88.3219 1226.64 91.5616 1229.88 94.0843C1232.73 96.675 1234.26 98.1514 1234.26 100.714H1239.96C1239.96 95.5886 1236.8 92.7193 1233.72 89.9614C1231.06 87.9676 1228.94 85.3658 1227.55 82.3838C1226.15 79.4019 1225.53 76.1308 1225.72 72.8571C1225.72 66.9466 1228.12 61.2781 1232.39 57.0988C1236.67 52.9194 1242.46 50.5714 1248.5 50.5714C1254.54 50.5714 1260.33 52.9194 1264.61 57.0988C1268.88 61.2781 1271.28 66.9466 1271.28 72.8571C1271.47 76.1333 1270.84 79.4059 1269.44 82.388C1268.04 85.3701 1265.92 87.9706 1263.25 89.9614C1260.2 92.7471 1257.04 95.5329 1257.04 100.714H1262.74C1262.74 98.1514 1264.25 96.675 1267.12 94.0564C1270.36 91.5381 1272.94 88.3031 1274.66 84.6176C1276.37 80.9321 1277.16 76.9014 1276.97 72.8571C1276.97 69.1989 1276.24 65.5765 1274.81 62.1967C1273.37 58.8169 1271.28 55.7459 1268.63 53.1592C1265.99 50.5724 1262.85 48.5205 1259.4 47.1205C1255.94 45.7205 1252.24 45 1248.5 45Z" fill="white"/>
</svg>
