<svg width="1363" height="301" viewBox="0 0 1363 301" fill="none" xmlns="http://www.w3.org/2000/svg">
<g style="mix-blend-mode:exclusion">
<rect width="1363" height="301" rx="15" fill="white" fill-opacity="0.05"/>
</g>
<path d="M0 15C0 6.71573 6.71573 0 15 0H37V301H15C6.71573 301 0 294.284 0 286V15Z" fill="#3AA346"/>
<g style="mix-blend-mode:exclusion">
<path d="M115.123 133.607C115.123 132.998 115.033 132.452 114.854 131.969C114.675 131.467 114.344 131.002 113.86 130.572C113.377 130.143 112.679 129.713 111.766 129.283C110.87 128.836 109.689 128.37 108.221 127.887C106.502 127.314 104.846 126.669 103.252 125.953C101.659 125.219 100.236 124.369 98.9824 123.402C97.7292 122.417 96.7355 121.271 96.0015 119.964C95.2674 118.639 94.9004 117.1 94.9004 115.345C94.9004 113.662 95.2764 112.149 96.0283 110.807C96.7803 109.446 97.8276 108.291 99.1704 107.342C100.531 106.375 102.125 105.641 103.951 105.14C105.777 104.621 107.773 104.361 109.939 104.361C112.804 104.361 115.328 104.863 117.513 105.865C119.715 106.85 121.434 108.255 122.669 110.082C123.922 111.89 124.549 114.029 124.549 116.5H115.176C115.176 115.515 114.97 114.647 114.559 113.895C114.165 113.143 113.565 112.552 112.759 112.123C111.954 111.693 110.942 111.478 109.725 111.478C108.543 111.478 107.549 111.657 106.744 112.015C105.938 112.373 105.329 112.857 104.917 113.465C104.506 114.056 104.3 114.71 104.3 115.426C104.3 116.017 104.461 116.554 104.783 117.037C105.123 117.503 105.598 117.941 106.207 118.353C106.833 118.765 107.585 119.159 108.462 119.535C109.358 119.911 110.36 120.278 111.47 120.636C113.547 121.298 115.391 122.041 117.002 122.865C118.632 123.67 120.001 124.592 121.111 125.631C122.239 126.651 123.09 127.815 123.663 129.122C124.253 130.429 124.549 131.906 124.549 133.553C124.549 135.308 124.209 136.865 123.528 138.226C122.848 139.587 121.872 140.742 120.601 141.69C119.33 142.621 117.808 143.329 116.036 143.812C114.263 144.295 112.285 144.537 110.101 144.537C108.095 144.537 106.117 144.286 104.166 143.785C102.232 143.266 100.477 142.478 98.9019 141.422C97.3263 140.348 96.0641 138.978 95.1152 137.313C94.1842 135.63 93.7188 133.634 93.7188 131.324H103.172C103.172 132.47 103.324 133.437 103.628 134.225C103.933 135.012 104.38 135.648 104.971 136.131C105.562 136.597 106.287 136.937 107.146 137.152C108.006 137.349 108.991 137.447 110.101 137.447C111.3 137.447 112.267 137.277 113.001 136.937C113.735 136.579 114.272 136.113 114.612 135.541C114.952 134.95 115.123 134.305 115.123 133.607ZM137.842 102.75V144H128.792V102.75H137.842ZM136.768 128.478L134.646 128.531C134.646 126.49 134.897 124.61 135.398 122.892C135.9 121.173 136.616 119.678 137.547 118.407C138.478 117.136 139.597 116.151 140.904 115.453C142.211 114.754 143.661 114.405 145.254 114.405C146.687 114.405 147.994 114.611 149.175 115.023C150.375 115.435 151.404 116.097 152.264 117.01C153.141 117.923 153.812 119.114 154.278 120.582C154.761 122.05 155.003 123.84 155.003 125.953V144H145.899V125.899C145.899 124.718 145.729 123.805 145.389 123.16C145.066 122.498 144.601 122.041 143.992 121.791C143.383 121.522 142.64 121.388 141.763 121.388C140.707 121.388 139.847 121.567 139.185 121.925C138.523 122.283 138.012 122.784 137.654 123.429C137.314 124.055 137.081 124.798 136.956 125.658C136.831 126.517 136.768 127.457 136.768 128.478ZM174.097 144.537C171.734 144.537 169.621 144.17 167.759 143.436C165.897 142.684 164.322 141.655 163.033 140.348C161.762 139.041 160.786 137.537 160.105 135.836C159.443 134.135 159.112 132.336 159.112 130.438V129.417C159.112 127.287 159.407 125.318 159.998 123.509C160.589 121.683 161.466 120.09 162.63 118.729C163.794 117.368 165.253 116.312 167.007 115.56C168.762 114.79 170.803 114.405 173.13 114.405C175.189 114.405 177.033 114.736 178.663 115.399C180.292 116.061 181.67 117.01 182.798 118.246C183.944 119.481 184.812 120.976 185.403 122.73C186.012 124.485 186.316 126.454 186.316 128.639V132.318H162.576V126.651H177.481V125.953C177.499 124.986 177.329 124.163 176.971 123.482C176.631 122.802 176.129 122.283 175.467 121.925C174.804 121.567 173.999 121.388 173.05 121.388C172.065 121.388 171.25 121.603 170.606 122.032C169.979 122.462 169.487 123.053 169.129 123.805C168.789 124.539 168.547 125.389 168.404 126.356C168.261 127.323 168.189 128.343 168.189 129.417V130.438C168.189 131.512 168.332 132.488 168.619 133.365C168.923 134.243 169.353 134.994 169.908 135.621C170.481 136.23 171.161 136.704 171.949 137.044C172.754 137.385 173.667 137.555 174.688 137.555C175.923 137.555 177.141 137.322 178.34 136.856C179.54 136.391 180.569 135.621 181.429 134.547L185.538 139.435C184.947 140.276 184.105 141.091 183.013 141.878C181.939 142.666 180.65 143.311 179.146 143.812C177.642 144.295 175.959 144.537 174.097 144.537ZM199.556 102.75V144H190.479V102.75H199.556ZM215.616 137.796L221.336 114.942H230.87L221.363 144H215.723L215.616 137.796ZM212.232 114.942L217.872 137.796L217.818 144H212.151L202.671 114.942H212.232ZM247.251 144.537C244.888 144.537 242.776 144.17 240.914 143.436C239.052 142.684 237.476 141.655 236.187 140.348C234.916 139.041 233.94 137.537 233.26 135.836C232.597 134.135 232.266 132.336 232.266 130.438V129.417C232.266 127.287 232.562 125.318 233.152 123.509C233.743 121.683 234.62 120.09 235.784 118.729C236.948 117.368 238.407 116.312 240.162 115.56C241.916 114.79 243.957 114.405 246.285 114.405C248.344 114.405 250.188 114.736 251.817 115.399C253.446 116.061 254.825 117.01 255.953 118.246C257.098 119.481 257.967 120.976 258.558 122.73C259.166 124.485 259.471 126.454 259.471 128.639V132.318H235.73V126.651H250.635V125.953C250.653 124.986 250.483 124.163 250.125 123.482C249.785 122.802 249.284 122.283 248.621 121.925C247.959 121.567 247.153 121.388 246.204 121.388C245.219 121.388 244.405 121.603 243.76 122.032C243.134 122.462 242.641 123.053 242.283 123.805C241.943 124.539 241.701 125.389 241.558 126.356C241.415 127.323 241.343 128.343 241.343 129.417V130.438C241.343 131.512 241.486 132.488 241.773 133.365C242.077 134.243 242.507 134.994 243.062 135.621C243.635 136.23 244.315 136.704 245.103 137.044C245.909 137.385 246.822 137.555 247.842 137.555C249.078 137.555 250.295 137.322 251.495 136.856C252.694 136.391 253.724 135.621 254.583 134.547L258.692 139.435C258.101 140.276 257.26 141.091 256.167 141.878C255.093 142.666 253.804 143.311 252.3 143.812C250.796 144.295 249.113 144.537 247.251 144.537ZM278.377 135.836C278.377 135.335 278.207 134.905 277.867 134.547C277.544 134.171 276.972 133.831 276.148 133.526C275.324 133.204 274.17 132.882 272.684 132.56C271.269 132.255 269.935 131.852 268.682 131.351C267.447 130.85 266.364 130.241 265.433 129.525C264.502 128.809 263.768 127.958 263.23 126.974C262.711 125.989 262.452 124.861 262.452 123.59C262.452 122.354 262.711 121.191 263.23 120.099C263.768 118.989 264.546 118.013 265.567 117.171C266.605 116.312 267.868 115.641 269.354 115.157C270.84 114.656 272.531 114.405 274.429 114.405C277.043 114.405 279.299 114.808 281.197 115.614C283.095 116.402 284.554 117.512 285.574 118.944C286.613 120.358 287.132 121.996 287.132 123.858H278.082C278.082 123.124 277.956 122.498 277.706 121.979C277.473 121.459 277.088 121.065 276.551 120.797C276.014 120.51 275.298 120.367 274.402 120.367C273.776 120.367 273.203 120.484 272.684 120.716C272.182 120.949 271.779 121.271 271.475 121.683C271.171 122.095 271.019 122.578 271.019 123.133C271.019 123.527 271.108 123.885 271.287 124.208C271.484 124.512 271.779 124.798 272.173 125.067C272.567 125.318 273.069 125.55 273.677 125.765C274.286 125.962 275.02 126.141 275.879 126.302C277.831 126.66 279.657 127.171 281.358 127.833C283.059 128.495 284.437 129.435 285.494 130.653C286.568 131.87 287.105 133.508 287.105 135.567C287.105 136.856 286.81 138.047 286.219 139.139C285.628 140.213 284.778 141.162 283.667 141.986C282.557 142.792 281.224 143.418 279.666 143.866C278.108 144.313 276.354 144.537 274.402 144.537C271.627 144.537 269.282 144.045 267.366 143.06C265.451 142.057 264 140.804 263.016 139.3C262.049 137.778 261.565 136.239 261.565 134.681H269.998C270.034 135.576 270.249 136.31 270.643 136.883C271.054 137.456 271.6 137.877 272.281 138.146C272.961 138.414 273.749 138.548 274.644 138.548C275.468 138.548 276.148 138.432 276.685 138.199C277.24 137.966 277.661 137.653 277.947 137.259C278.234 136.847 278.377 136.373 278.377 135.836ZM322.796 104.898V144H313.37V104.898H322.796ZM334.559 104.898V112.176H301.875V104.898H334.559ZM345.489 122.14V144H336.438V114.942H344.898L345.489 122.14ZM354.083 114.728L353.921 123.133C353.563 123.097 353.08 123.053 352.471 122.999C351.862 122.945 351.352 122.918 350.94 122.918C349.884 122.918 348.971 123.044 348.201 123.294C347.449 123.527 346.823 123.885 346.321 124.369C345.838 124.834 345.48 125.425 345.247 126.141C345.032 126.857 344.934 127.69 344.952 128.639L343.313 127.564C343.313 125.613 343.501 123.84 343.877 122.247C344.271 120.636 344.826 119.248 345.542 118.084C346.259 116.903 347.127 115.999 348.147 115.372C349.168 114.728 350.314 114.405 351.585 114.405C352.033 114.405 352.471 114.432 352.901 114.486C353.348 114.54 353.742 114.62 354.083 114.728ZM371.485 136.695V124.718C371.485 123.894 371.368 123.187 371.136 122.596C370.903 122.005 370.536 121.549 370.035 121.227C369.533 120.886 368.862 120.716 368.021 120.716C367.34 120.716 366.758 120.833 366.275 121.065C365.792 121.298 365.424 121.647 365.174 122.113C364.923 122.578 364.798 123.169 364.798 123.885H355.748C355.748 122.542 356.043 121.298 356.634 120.152C357.243 118.989 358.102 117.977 359.212 117.118C360.34 116.258 361.683 115.596 363.24 115.13C364.816 114.647 366.57 114.405 368.504 114.405C370.813 114.405 372.872 114.79 374.681 115.56C376.507 116.33 377.948 117.485 379.004 119.024C380.061 120.546 380.589 122.462 380.589 124.771V136.668C380.589 138.566 380.696 140.007 380.911 140.992C381.126 141.959 381.43 142.809 381.824 143.543V144H372.747C372.317 143.105 371.995 142.013 371.78 140.724C371.583 139.417 371.485 138.074 371.485 136.695ZM372.586 126.249L372.64 131.083H368.638C367.797 131.083 367.081 131.199 366.49 131.432C365.917 131.664 365.451 131.987 365.093 132.398C364.753 132.792 364.502 133.24 364.341 133.741C364.198 134.243 364.126 134.771 364.126 135.326C364.126 135.863 364.252 136.346 364.502 136.776C364.771 137.188 365.129 137.51 365.577 137.743C366.024 137.975 366.526 138.092 367.081 138.092C368.083 138.092 368.934 137.904 369.632 137.528C370.348 137.134 370.894 136.66 371.27 136.104C371.646 135.549 371.834 135.03 371.834 134.547L373.821 138.253C373.463 138.969 373.051 139.694 372.586 140.428C372.138 141.162 371.574 141.843 370.894 142.469C370.232 143.078 369.417 143.579 368.45 143.973C367.483 144.349 366.311 144.537 364.932 144.537C363.142 144.537 361.495 144.17 359.991 143.436C358.505 142.702 357.314 141.681 356.419 140.375C355.524 139.05 355.076 137.528 355.076 135.809C355.076 134.305 355.345 132.962 355.882 131.781C356.437 130.599 357.269 129.597 358.379 128.773C359.489 127.949 360.904 127.323 362.623 126.893C364.341 126.463 366.364 126.249 368.692 126.249H372.586ZM397.884 137.555C398.725 137.555 399.441 137.403 400.032 137.098C400.641 136.776 401.097 136.328 401.402 135.755C401.724 135.165 401.876 134.457 401.858 133.634H410.372C410.389 135.818 409.852 137.734 408.76 139.381C407.686 141.01 406.218 142.281 404.356 143.194C402.512 144.09 400.426 144.537 398.099 144.537C395.825 144.537 393.838 144.17 392.137 143.436C390.436 142.684 389.013 141.646 387.867 140.321C386.739 138.978 385.888 137.411 385.315 135.621C384.76 133.831 384.483 131.888 384.483 129.793V129.176C384.483 127.081 384.76 125.139 385.315 123.348C385.888 121.54 386.739 119.973 387.867 118.648C389.013 117.306 390.427 116.267 392.11 115.533C393.811 114.781 395.789 114.405 398.045 114.405C400.462 114.405 402.592 114.862 404.437 115.775C406.299 116.688 407.758 118.013 408.814 119.75C409.87 121.486 410.389 123.59 410.372 126.061H401.858C401.876 125.183 401.742 124.396 401.456 123.697C401.169 122.999 400.722 122.444 400.113 122.032C399.522 121.603 398.761 121.388 397.83 121.388C396.899 121.388 396.147 121.594 395.574 122.005C395.001 122.417 394.563 122.99 394.258 123.724C393.972 124.44 393.775 125.264 393.667 126.195C393.578 127.126 393.533 128.119 393.533 129.176V129.793C393.533 130.868 393.578 131.879 393.667 132.828C393.775 133.759 393.981 134.583 394.285 135.299C394.59 135.997 395.028 136.552 395.601 136.964C396.174 137.358 396.935 137.555 397.884 137.555ZM423.37 102.723V144H414.319V102.723H423.37ZM441.954 114.942L429.332 129.74L422.725 136.346L418.777 130.599L424.283 123.429L431.104 114.942H441.954ZM432.259 144L424.498 130.76L431.185 126.007L442.625 144H432.259ZM457.852 144.537C455.489 144.537 453.376 144.17 451.514 143.436C449.652 142.684 448.077 141.655 446.788 140.348C445.516 139.041 444.541 137.537 443.86 135.836C443.198 134.135 442.867 132.336 442.867 130.438V129.417C442.867 127.287 443.162 125.318 443.753 123.509C444.344 121.683 445.221 120.09 446.385 118.729C447.549 117.368 449.008 116.312 450.762 115.56C452.517 114.79 454.558 114.405 456.885 114.405C458.944 114.405 460.788 114.736 462.417 115.399C464.047 116.061 465.425 117.01 466.553 118.246C467.699 119.481 468.567 120.976 469.158 122.73C469.767 124.485 470.071 126.454 470.071 128.639V132.318H446.331V126.651H461.236V125.953C461.254 124.986 461.084 124.163 460.726 123.482C460.385 122.802 459.884 122.283 459.222 121.925C458.559 121.567 457.754 121.388 456.805 121.388C455.82 121.388 455.005 121.603 454.361 122.032C453.734 122.462 453.242 123.053 452.884 123.805C452.544 124.539 452.302 125.389 452.159 126.356C452.015 127.323 451.944 128.343 451.944 129.417V130.438C451.944 131.512 452.087 132.488 452.374 133.365C452.678 134.243 453.108 134.994 453.663 135.621C454.236 136.23 454.916 136.704 455.704 137.044C456.509 137.385 457.422 137.555 458.443 137.555C459.678 137.555 460.896 137.322 462.095 136.856C463.295 136.391 464.324 135.621 465.184 134.547L469.292 139.435C468.702 140.276 467.86 141.091 466.768 141.878C465.694 142.666 464.405 143.311 462.901 143.812C461.397 144.295 459.714 144.537 457.852 144.537ZM482.881 122.14V144H473.831V114.942H482.291L482.881 122.14ZM491.475 114.728L491.314 123.133C490.956 123.097 490.472 123.053 489.864 122.999C489.255 122.945 488.745 122.918 488.333 122.918C487.277 122.918 486.364 123.044 485.594 123.294C484.842 123.527 484.215 123.885 483.714 124.369C483.23 124.834 482.872 125.425 482.64 126.141C482.425 126.857 482.326 127.69 482.344 128.639L480.706 127.564C480.706 125.613 480.894 123.84 481.27 122.247C481.664 120.636 482.219 119.248 482.935 118.084C483.651 116.903 484.52 115.999 485.54 115.372C486.561 114.728 487.706 114.405 488.978 114.405C489.425 114.405 489.864 114.432 490.293 114.486C490.741 114.54 491.135 114.62 491.475 114.728Z" fill="white"/>
</g>
<g style="mix-blend-mode:exclusion">
<path d="M99.3486 55.1172V80H94.2217V55.1172H99.3486ZM114.251 55.1172L104.39 67.4048L98.6992 73.5229L97.7764 68.6694L101.622 63.4058L107.962 55.1172H114.251ZM108.423 80L101.092 68.4985L104.886 65.3198L114.49 80H108.423ZM120.967 53.75V80H116.045V53.75H120.967ZM120.267 70.105H118.917C118.928 68.8175 119.099 67.6326 119.429 66.5503C119.76 65.4565 120.232 64.5109 120.848 63.7134C121.463 62.9045 122.198 62.2778 123.052 61.8335C123.918 61.3892 124.875 61.167 125.923 61.167C126.835 61.167 127.661 61.298 128.401 61.5601C129.153 61.8107 129.797 62.2209 130.333 62.7905C130.879 63.3488 131.301 64.0837 131.597 64.9951C131.893 65.9066 132.042 67.0117 132.042 68.3105V80H127.085V68.2764C127.085 67.4561 126.966 66.8123 126.727 66.3452C126.499 65.8667 126.163 65.5306 125.718 65.3369C125.285 65.1318 124.75 65.0293 124.112 65.0293C123.405 65.0293 122.802 65.1603 122.3 65.4224C121.81 65.6844 121.417 66.049 121.121 66.5161C120.825 66.9718 120.608 67.5073 120.472 68.1226C120.335 68.7378 120.267 69.3986 120.267 70.105ZM145.765 75.8301V67.5928C145.765 67.0003 145.668 66.4933 145.474 66.0718C145.28 65.6388 144.979 65.3027 144.568 65.0635C144.17 64.8242 143.651 64.7046 143.013 64.7046C142.466 64.7046 141.993 64.8014 141.595 64.9951C141.196 65.1774 140.888 65.4451 140.672 65.7983C140.455 66.1401 140.347 66.5446 140.347 67.0117H135.425C135.425 66.2256 135.608 65.4793 135.972 64.7729C136.337 64.0666 136.867 63.4456 137.562 62.9102C138.257 62.3633 139.083 61.936 140.04 61.6284C141.008 61.3208 142.09 61.167 143.287 61.167C144.722 61.167 145.998 61.4062 147.115 61.8848C148.231 62.3633 149.109 63.0811 149.747 64.0381C150.396 64.9951 150.721 66.1914 150.721 67.627V75.5396C150.721 76.5535 150.783 77.3853 150.909 78.0347C151.034 78.6727 151.216 79.231 151.456 79.7095V80H146.482C146.243 79.4987 146.061 78.8721 145.936 78.1201C145.822 77.3568 145.765 76.5934 145.765 75.8301ZM146.414 68.7378L146.448 71.5234H143.697C143.047 71.5234 142.483 71.5975 142.005 71.7456C141.526 71.8937 141.133 72.1045 140.826 72.3779C140.518 72.64 140.29 72.9476 140.142 73.3008C140.005 73.654 139.937 74.0413 139.937 74.4629C139.937 74.8844 140.034 75.2661 140.228 75.6079C140.421 75.9383 140.7 76.2004 141.065 76.394C141.43 76.5763 141.857 76.6675 142.347 76.6675C143.087 76.6675 143.731 76.5194 144.278 76.2231C144.825 75.9269 145.246 75.5623 145.542 75.1294C145.85 74.6965 146.01 74.2863 146.021 73.8989L147.32 75.9839C147.138 76.451 146.887 76.9352 146.568 77.4365C146.26 77.9378 145.867 78.4106 145.389 78.855C144.91 79.2879 144.335 79.6468 143.663 79.9316C142.99 80.2051 142.193 80.3418 141.27 80.3418C140.097 80.3418 139.031 80.1082 138.074 79.6411C137.129 79.1626 136.377 78.5075 135.818 77.6758C135.271 76.8327 134.998 75.8757 134.998 74.8047C134.998 73.8363 135.18 72.9761 135.545 72.2241C135.91 71.4722 136.445 70.8398 137.151 70.3271C137.869 69.8031 138.764 69.41 139.834 69.1479C140.905 68.8745 142.147 68.7378 143.56 68.7378H146.414ZM159.71 53.75V80H154.771V53.75H159.71ZM172.288 80.3418C170.853 80.3418 169.565 80.1139 168.426 79.6582C167.286 79.1911 166.318 78.5474 165.521 77.7271C164.734 76.9067 164.131 75.9554 163.709 74.873C163.287 73.7793 163.077 72.6172 163.077 71.3867V70.7031C163.077 69.3018 163.276 68.02 163.675 66.8579C164.074 65.6958 164.643 64.6875 165.384 63.833C166.136 62.9785 167.047 62.3234 168.118 61.8677C169.189 61.4006 170.397 61.167 171.741 61.167C173.051 61.167 174.214 61.3835 175.228 61.8164C176.242 62.2493 177.09 62.8646 177.774 63.6621C178.469 64.4596 178.993 65.4167 179.346 66.5332C179.699 67.6383 179.876 68.8688 179.876 70.2246V72.2754H165.179V68.9941H175.04V68.6182C175.04 67.9346 174.914 67.325 174.664 66.7896C174.424 66.2427 174.06 65.8097 173.57 65.4907C173.08 65.1717 172.453 65.0122 171.69 65.0122C171.041 65.0122 170.482 65.1546 170.015 65.4395C169.548 65.7243 169.166 66.123 168.87 66.6357C168.585 67.1484 168.369 67.7523 168.221 68.4473C168.084 69.1309 168.016 69.8828 168.016 70.7031V71.3867C168.016 72.1273 168.118 72.8109 168.323 73.4375C168.54 74.0641 168.842 74.6053 169.229 75.061C169.628 75.5168 170.106 75.87 170.665 76.1206C171.234 76.3713 171.878 76.4966 172.596 76.4966C173.484 76.4966 174.31 76.3257 175.074 75.9839C175.848 75.6307 176.515 75.1009 177.073 74.3945L179.466 76.9922C179.078 77.5505 178.549 78.0859 177.876 78.5986C177.216 79.1113 176.418 79.5329 175.484 79.8633C174.55 80.1823 173.484 80.3418 172.288 80.3418ZM193.599 75.9668V53.75H198.555V80H194.095L193.599 75.9668ZM181.91 70.9766V70.6177C181.91 69.2049 182.069 67.9232 182.388 66.7725C182.707 65.6104 183.174 64.6134 183.79 63.7817C184.405 62.95 185.162 62.3063 186.062 61.8506C186.963 61.3949 187.988 61.167 189.139 61.167C190.221 61.167 191.167 61.3949 191.976 61.8506C192.796 62.3063 193.491 62.9557 194.061 63.7988C194.642 64.6305 195.109 65.616 195.462 66.7554C195.815 67.8833 196.071 69.1195 196.231 70.4639V71.25C196.071 72.5374 195.815 73.7337 195.462 74.8389C195.109 75.944 194.642 76.9124 194.061 77.7441C193.491 78.5645 192.796 79.2025 191.976 79.6582C191.155 80.1139 190.198 80.3418 189.104 80.3418C187.954 80.3418 186.928 80.1082 186.028 79.6411C185.14 79.174 184.388 78.5189 183.772 77.6758C183.169 76.8327 182.707 75.8415 182.388 74.7021C182.069 73.5628 181.91 72.321 181.91 70.9766ZM186.832 70.6177V70.9766C186.832 71.7399 186.889 72.452 187.002 73.1128C187.128 73.7736 187.327 74.3604 187.601 74.873C187.885 75.3743 188.25 75.7674 188.694 76.0522C189.15 76.3257 189.703 76.4624 190.352 76.4624C191.195 76.4624 191.89 76.2744 192.437 75.8984C192.984 75.5111 193.4 74.9813 193.685 74.3091C193.981 73.6369 194.152 72.8621 194.197 71.9849V69.7461C194.163 69.0283 194.061 68.3846 193.89 67.8149C193.73 67.2339 193.491 66.7383 193.172 66.3281C192.864 65.918 192.477 65.599 192.01 65.3711C191.554 65.1432 191.013 65.0293 190.386 65.0293C189.748 65.0293 189.201 65.1774 188.746 65.4736C188.29 65.7585 187.92 66.1515 187.635 66.6528C187.361 67.1541 187.156 67.7466 187.02 68.4302C186.894 69.1024 186.832 69.8315 186.832 70.6177ZM221.165 69.0796H214.773L214.739 65.5591H220.105C221.051 65.5591 221.826 65.4395 222.43 65.2002C223.034 64.9495 223.484 64.5907 223.78 64.1235C224.087 63.645 224.241 63.064 224.241 62.3804C224.241 61.6056 224.093 60.979 223.797 60.5005C223.512 60.022 223.062 59.6745 222.447 59.458C221.843 59.2415 221.062 59.1333 220.105 59.1333H216.551V80H211.424V55.1172H220.105C221.552 55.1172 222.846 55.2539 223.985 55.5273C225.136 55.8008 226.11 56.2166 226.907 56.7749C227.705 57.3332 228.314 58.0396 228.736 58.894C229.157 59.7371 229.368 60.7397 229.368 61.9019C229.368 62.9272 229.135 63.8729 228.667 64.7388C228.212 65.6047 227.488 66.311 226.497 66.8579C225.517 67.4048 224.236 67.7067 222.652 67.7637L221.165 69.0796ZM220.943 80H213.372L215.372 76.001H220.943C221.843 76.001 222.578 75.8586 223.147 75.5737C223.717 75.2775 224.139 74.8787 224.412 74.3774C224.686 73.8761 224.822 73.3008 224.822 72.6514C224.822 71.9222 224.697 71.2899 224.446 70.7544C224.207 70.2189 223.82 69.8088 223.284 69.5239C222.749 69.2277 222.042 69.0796 221.165 69.0796H216.226L216.26 65.5591H222.413L223.592 66.9434C225.107 66.9206 226.326 67.1883 227.249 67.7466C228.183 68.2935 228.861 69.0055 229.283 69.8828C229.716 70.7601 229.932 71.7 229.932 72.7026C229.932 74.2977 229.585 75.6421 228.89 76.7358C228.195 77.8182 227.175 78.6328 225.831 79.1797C224.498 79.7266 222.868 80 220.943 80ZM238.665 61.5088V80H233.726V61.5088H238.665ZM233.418 56.6895C233.418 55.9717 233.669 55.3792 234.17 54.9121C234.672 54.445 235.344 54.2114 236.187 54.2114C237.019 54.2114 237.685 54.445 238.187 54.9121C238.699 55.3792 238.956 55.9717 238.956 56.6895C238.956 57.4072 238.699 57.9997 238.187 58.4668C237.685 58.9339 237.019 59.1675 236.187 59.1675C235.344 59.1675 234.672 58.9339 234.17 58.4668C233.669 57.9997 233.418 57.4072 233.418 56.6895ZM252.73 74.8901C252.73 74.5369 252.627 74.2179 252.422 73.9331C252.217 73.6483 251.836 73.3862 251.277 73.147C250.73 72.8963 249.939 72.6685 248.902 72.4634C247.968 72.2583 247.096 72.002 246.287 71.6943C245.49 71.3753 244.795 70.9937 244.202 70.5493C243.621 70.105 243.165 69.5809 242.835 68.9771C242.505 68.3618 242.339 67.6611 242.339 66.875C242.339 66.1003 242.505 65.3711 242.835 64.6875C243.177 64.0039 243.661 63.4001 244.288 62.876C244.926 62.3405 245.7 61.9246 246.612 61.6284C247.535 61.3208 248.571 61.167 249.722 61.167C251.329 61.167 252.707 61.4233 253.858 61.936C255.02 62.4487 255.909 63.1551 256.524 64.0552C257.151 64.9438 257.464 65.9578 257.464 67.0972H252.542C252.542 66.6187 252.439 66.1914 252.234 65.8154C252.041 65.4281 251.733 65.1261 251.312 64.9097C250.901 64.6818 250.366 64.5679 249.705 64.5679C249.158 64.5679 248.685 64.6647 248.287 64.8584C247.888 65.0407 247.58 65.2913 247.364 65.6104C247.159 65.918 247.056 66.2598 247.056 66.6357C247.056 66.9206 247.113 67.1769 247.227 67.4048C247.352 67.6213 247.552 67.8206 247.825 68.0029C248.099 68.1852 248.452 68.3561 248.885 68.5156C249.329 68.6637 249.876 68.8005 250.525 68.9258C251.858 69.1992 253.049 69.5581 254.097 70.0024C255.145 70.4354 255.977 71.0278 256.592 71.7798C257.208 72.5203 257.515 73.4945 257.515 74.7021C257.515 75.5225 257.333 76.2744 256.968 76.958C256.604 77.6416 256.08 78.2397 255.396 78.7524C254.712 79.2537 253.892 79.6468 252.935 79.9316C251.989 80.2051 250.924 80.3418 249.739 80.3418C248.019 80.3418 246.561 80.0342 245.364 79.4189C244.179 78.8037 243.279 78.0233 242.664 77.0776C242.06 76.1206 241.758 75.1408 241.758 74.1382H246.424C246.447 74.8104 246.618 75.3516 246.937 75.7617C247.267 76.1719 247.683 76.4681 248.184 76.6504C248.697 76.8327 249.249 76.9238 249.842 76.9238C250.48 76.9238 251.01 76.8384 251.431 76.6675C251.853 76.4852 252.172 76.2459 252.388 75.9497C252.616 75.6421 252.73 75.2889 252.73 74.8901ZM270.708 74.8901C270.708 74.5369 270.606 74.2179 270.401 73.9331C270.196 73.6483 269.814 73.3862 269.256 73.147C268.709 72.8963 267.917 72.6685 266.88 72.4634C265.946 72.2583 265.075 72.002 264.266 71.6943C263.468 71.3753 262.773 70.9937 262.181 70.5493C261.6 70.105 261.144 69.5809 260.813 68.9771C260.483 68.3618 260.318 67.6611 260.318 66.875C260.318 66.1003 260.483 65.3711 260.813 64.6875C261.155 64.0039 261.639 63.4001 262.266 62.876C262.904 62.3405 263.679 61.9246 264.59 61.6284C265.513 61.3208 266.55 61.167 267.701 61.167C269.307 61.167 270.686 61.4233 271.836 61.936C272.999 62.4487 273.887 63.1551 274.502 64.0552C275.129 64.9438 275.442 65.9578 275.442 67.0972H270.521C270.521 66.6187 270.418 66.1914 270.213 65.8154C270.019 65.4281 269.712 65.1261 269.29 64.9097C268.88 64.6818 268.344 64.5679 267.684 64.5679C267.137 64.5679 266.664 64.6647 266.265 64.8584C265.866 65.0407 265.559 65.2913 265.342 65.6104C265.137 65.918 265.035 66.2598 265.035 66.6357C265.035 66.9206 265.092 67.1769 265.206 67.4048C265.331 67.6213 265.53 67.8206 265.804 68.0029C266.077 68.1852 266.43 68.3561 266.863 68.5156C267.308 68.6637 267.854 68.8005 268.504 68.9258C269.837 69.1992 271.028 69.5581 272.076 70.0024C273.124 70.4354 273.956 71.0278 274.571 71.7798C275.186 72.5203 275.494 73.4945 275.494 74.7021C275.494 75.5225 275.311 76.2744 274.947 76.958C274.582 77.6416 274.058 78.2397 273.375 78.7524C272.691 79.2537 271.871 79.6468 270.914 79.9316C269.968 80.2051 268.903 80.3418 267.718 80.3418C265.997 80.3418 264.539 80.0342 263.343 79.4189C262.158 78.8037 261.258 78.0233 260.643 77.0776C260.039 76.1206 259.737 75.1408 259.737 74.1382H264.402C264.425 74.8104 264.596 75.3516 264.915 75.7617C265.245 76.1719 265.661 76.4681 266.163 76.6504C266.675 76.8327 267.228 76.9238 267.82 76.9238C268.458 76.9238 268.988 76.8384 269.41 76.6675C269.831 76.4852 270.15 76.2459 270.367 75.9497C270.595 75.6421 270.708 75.2889 270.708 74.8901ZM288.67 75.8301V67.5928C288.67 67.0003 288.573 66.4933 288.379 66.0718C288.186 65.6388 287.884 65.3027 287.474 65.0635C287.075 64.8242 286.556 64.7046 285.918 64.7046C285.372 64.7046 284.899 64.8014 284.5 64.9951C284.101 65.1774 283.794 65.4451 283.577 65.7983C283.361 66.1401 283.252 66.5446 283.252 67.0117H278.331C278.331 66.2256 278.513 65.4793 278.877 64.7729C279.242 64.0666 279.772 63.4456 280.467 62.9102C281.162 62.3633 281.988 61.936 282.945 61.6284C283.913 61.3208 284.996 61.167 286.192 61.167C287.627 61.167 288.903 61.4062 290.02 61.8848C291.137 62.3633 292.014 63.0811 292.652 64.0381C293.301 64.9951 293.626 66.1914 293.626 67.627V75.5396C293.626 76.5535 293.689 77.3853 293.814 78.0347C293.939 78.6727 294.122 79.231 294.361 79.7095V80H289.388C289.148 79.4987 288.966 78.8721 288.841 78.1201C288.727 77.3568 288.67 76.5934 288.67 75.8301ZM289.319 68.7378L289.354 71.5234H286.602C285.953 71.5234 285.389 71.5975 284.91 71.7456C284.432 71.8937 284.039 72.1045 283.731 72.3779C283.423 72.64 283.195 72.9476 283.047 73.3008C282.911 73.654 282.842 74.0413 282.842 74.4629C282.842 74.8844 282.939 75.2661 283.133 75.6079C283.326 75.9383 283.606 76.2004 283.97 76.394C284.335 76.5763 284.762 76.6675 285.252 76.6675C285.993 76.6675 286.636 76.5194 287.183 76.2231C287.73 75.9269 288.152 75.5623 288.448 75.1294C288.755 74.6965 288.915 74.2863 288.926 73.8989L290.225 75.9839C290.043 76.451 289.792 76.9352 289.473 77.4365C289.166 77.9378 288.772 78.4106 288.294 78.855C287.815 79.2879 287.24 79.6468 286.568 79.9316C285.896 80.2051 285.098 80.3418 284.175 80.3418C283.002 80.3418 281.937 80.1082 280.979 79.6411C280.034 79.1626 279.282 78.5075 278.724 77.6758C278.177 76.8327 277.903 75.8757 277.903 74.8047C277.903 73.8363 278.086 72.9761 278.45 72.2241C278.815 71.4722 279.35 70.8398 280.057 70.3271C280.774 69.8031 281.669 69.41 282.74 69.1479C283.811 68.8745 285.053 68.7378 286.465 68.7378H289.319ZM302.239 65.4565V80H297.317V61.5088H301.932L302.239 65.4565ZM301.521 70.105H300.188C300.188 68.7378 300.365 67.5073 300.718 66.4136C301.071 65.3084 301.567 64.3685 302.205 63.5938C302.843 62.8076 303.601 62.2095 304.478 61.7993C305.367 61.3778 306.358 61.167 307.452 61.167C308.318 61.167 309.109 61.2923 309.827 61.543C310.545 61.7936 311.16 62.1924 311.673 62.7393C312.197 63.2861 312.596 64.0096 312.869 64.9097C313.154 65.8097 313.296 66.9092 313.296 68.208V80H308.34V68.1909C308.34 67.3706 308.226 66.7326 307.999 66.2769C307.771 65.8211 307.435 65.5021 306.99 65.3198C306.557 65.1261 306.022 65.0293 305.384 65.0293C304.723 65.0293 304.148 65.1603 303.658 65.4224C303.179 65.6844 302.78 66.049 302.461 66.5161C302.154 66.9718 301.92 67.5073 301.761 68.1226C301.601 68.7378 301.521 69.3986 301.521 70.105ZM322.234 61.5088V80H317.295V61.5088H322.234ZM316.988 56.6895C316.988 55.9717 317.238 55.3792 317.74 54.9121C318.241 54.445 318.913 54.2114 319.756 54.2114C320.588 54.2114 321.255 54.445 321.756 54.9121C322.269 55.3792 322.525 55.9717 322.525 56.6895C322.525 57.4072 322.269 57.9997 321.756 58.4668C321.255 58.9339 320.588 59.1675 319.756 59.1675C318.913 59.1675 318.241 58.9339 317.74 58.4668C317.238 57.9997 316.988 57.4072 316.988 56.6895Z" fill="white" fill-opacity="0.5"/>
</g>
<g style="mix-blend-mode:exclusion">
<rect x="92" y="181" width="1179" height="80" rx="13.3333" fill="white" fill-opacity="0.1"/>
</g>
<g style="mix-blend-mode:exclusion">
<rect x="105" y="194.333" width="212" height="53.3333" rx="6.66667" fill="white" fill-opacity="0.35"/>
</g>
<path d="M171.823 213.167H177.792C178.958 213.167 179.972 213.34 180.833 213.687C181.694 214.035 182.358 214.549 182.823 215.229C183.295 215.91 183.531 216.75 183.531 217.75C183.531 218.618 183.396 219.344 183.125 219.927C182.854 220.51 182.476 220.993 181.99 221.375C181.51 221.75 180.951 222.059 180.312 222.302L179.115 222.979H174.104L174.083 220.156H177.792C178.257 220.156 178.642 220.073 178.948 219.906C179.253 219.74 179.483 219.503 179.635 219.198C179.795 218.885 179.875 218.514 179.875 218.083C179.875 217.646 179.795 217.271 179.635 216.958C179.476 216.646 179.24 216.406 178.927 216.24C178.622 216.073 178.243 215.99 177.792 215.99H175.479V228.333H171.823V213.167ZM180.125 228.333L176.771 221.625L180.646 221.604L184.042 228.177V228.333H180.125ZM191.031 228.542C190.115 228.542 189.295 228.399 188.573 228.115C187.851 227.823 187.24 227.424 186.74 226.917C186.247 226.41 185.868 225.826 185.604 225.167C185.347 224.507 185.219 223.809 185.219 223.073V222.677C185.219 221.851 185.333 221.087 185.562 220.385C185.792 219.677 186.132 219.059 186.583 218.531C187.035 218.003 187.601 217.594 188.281 217.302C188.962 217.003 189.753 216.854 190.656 216.854C191.455 216.854 192.17 216.983 192.802 217.24C193.434 217.497 193.969 217.865 194.406 218.344C194.851 218.823 195.187 219.403 195.417 220.083C195.653 220.764 195.771 221.528 195.771 222.375V223.802H186.562V221.604H192.344V221.333C192.351 220.958 192.285 220.639 192.146 220.375C192.014 220.111 191.819 219.91 191.562 219.771C191.306 219.632 190.993 219.562 190.625 219.562C190.243 219.562 189.927 219.646 189.677 219.812C189.434 219.979 189.243 220.208 189.104 220.5C188.972 220.785 188.878 221.115 188.823 221.49C188.767 221.865 188.74 222.26 188.74 222.677V223.073C188.74 223.49 188.795 223.868 188.906 224.208C189.024 224.549 189.191 224.84 189.406 225.083C189.628 225.319 189.892 225.503 190.198 225.635C190.51 225.767 190.865 225.833 191.26 225.833C191.74 225.833 192.212 225.743 192.677 225.562C193.142 225.382 193.542 225.083 193.875 224.667L195.469 226.562C195.24 226.889 194.913 227.205 194.49 227.51C194.073 227.816 193.573 228.066 192.99 228.26C192.406 228.448 191.753 228.542 191.031 228.542ZM203.052 225.5V220.854C203.052 220.535 203.007 220.26 202.917 220.031C202.826 219.802 202.684 219.625 202.49 219.5C202.295 219.368 202.035 219.302 201.708 219.302C201.444 219.302 201.219 219.347 201.031 219.437C200.844 219.528 200.701 219.663 200.604 219.844C200.507 220.024 200.458 220.253 200.458 220.531H196.948C196.948 220.01 197.062 219.528 197.292 219.083C197.528 218.632 197.861 218.24 198.292 217.906C198.729 217.573 199.25 217.316 199.854 217.135C200.465 216.948 201.146 216.854 201.896 216.854C202.792 216.854 203.59 217.003 204.292 217.302C205 217.601 205.559 218.049 205.969 218.646C206.378 219.236 206.583 219.979 206.583 220.875V225.49C206.583 226.226 206.625 226.785 206.708 227.167C206.792 227.542 206.91 227.872 207.062 228.156V228.333H203.542C203.375 227.986 203.25 227.562 203.167 227.062C203.09 226.556 203.052 226.035 203.052 225.5ZM203.479 221.448L203.5 223.323H201.948C201.622 223.323 201.344 223.368 201.115 223.458C200.892 223.549 200.712 223.674 200.573 223.833C200.441 223.986 200.344 224.16 200.281 224.354C200.226 224.549 200.198 224.753 200.198 224.969C200.198 225.177 200.247 225.365 200.344 225.531C200.448 225.691 200.587 225.816 200.76 225.906C200.934 225.997 201.128 226.042 201.344 226.042C201.733 226.042 202.062 225.969 202.333 225.823C202.611 225.67 202.823 225.486 202.969 225.271C203.115 225.056 203.187 224.854 203.187 224.667L203.958 226.104C203.819 226.382 203.66 226.663 203.479 226.948C203.306 227.233 203.087 227.497 202.823 227.74C202.566 227.976 202.25 228.17 201.875 228.323C201.5 228.469 201.045 228.542 200.51 228.542C199.816 228.542 199.177 228.399 198.594 228.115C198.017 227.83 197.556 227.434 197.208 226.927C196.861 226.413 196.687 225.823 196.687 225.156C196.687 224.573 196.792 224.052 197 223.594C197.215 223.135 197.538 222.747 197.969 222.427C198.399 222.108 198.948 221.865 199.615 221.698C200.281 221.531 201.066 221.448 201.969 221.448H203.479ZM213.292 225.833C213.618 225.833 213.896 225.774 214.125 225.656C214.361 225.531 214.538 225.358 214.656 225.135C214.781 224.906 214.84 224.632 214.833 224.312H218.135C218.142 225.16 217.934 225.903 217.51 226.542C217.094 227.174 216.524 227.667 215.802 228.021C215.087 228.368 214.278 228.542 213.375 228.542C212.493 228.542 211.722 228.399 211.062 228.115C210.403 227.823 209.851 227.42 209.406 226.906C208.969 226.385 208.639 225.778 208.417 225.083C208.201 224.389 208.094 223.635 208.094 222.823V222.583C208.094 221.771 208.201 221.017 208.417 220.323C208.639 219.622 208.969 219.014 209.406 218.5C209.851 217.979 210.399 217.576 211.052 217.292C211.712 217 212.479 216.854 213.354 216.854C214.292 216.854 215.118 217.031 215.833 217.385C216.556 217.74 217.122 218.253 217.531 218.927C217.941 219.601 218.142 220.417 218.135 221.375H214.833C214.84 221.035 214.788 220.729 214.677 220.458C214.566 220.187 214.392 219.972 214.156 219.812C213.927 219.646 213.632 219.562 213.271 219.562C212.91 219.562 212.618 219.642 212.396 219.802C212.174 219.962 212.003 220.184 211.885 220.469C211.774 220.747 211.698 221.066 211.656 221.427C211.622 221.788 211.604 222.174 211.604 222.583V222.823C211.604 223.24 211.622 223.632 211.656 224C211.698 224.361 211.778 224.681 211.896 224.958C212.014 225.229 212.184 225.444 212.406 225.604C212.628 225.757 212.924 225.833 213.292 225.833ZM225.573 217.062V219.5H218.781V217.062H225.573ZM220.208 214.26H223.719V224.656C223.719 224.955 223.753 225.187 223.823 225.354C223.892 225.514 224.01 225.628 224.177 225.698C224.351 225.76 224.58 225.792 224.865 225.792C225.066 225.792 225.233 225.788 225.365 225.781C225.497 225.767 225.622 225.75 225.74 225.729V228.24C225.441 228.337 225.128 228.41 224.802 228.458C224.476 228.514 224.128 228.542 223.76 228.542C223.01 228.542 222.368 228.424 221.833 228.187C221.306 227.951 220.903 227.58 220.625 227.073C220.347 226.566 220.208 225.906 220.208 225.094V214.26ZM233.167 223.573V213.167H236.812V223.573C236.812 224.587 236.58 225.465 236.115 226.208C235.656 226.951 235.031 227.528 234.24 227.937C233.455 228.34 232.573 228.542 231.594 228.542C230.58 228.542 229.677 228.372 228.885 228.031C228.101 227.691 227.483 227.167 227.031 226.458C226.587 225.75 226.365 224.847 226.365 223.75H230.031C230.031 224.264 230.09 224.667 230.208 224.958C230.326 225.243 230.5 225.444 230.729 225.562C230.965 225.674 231.253 225.729 231.594 225.729C231.927 225.729 232.208 225.646 232.437 225.479C232.674 225.306 232.854 225.059 232.979 224.74C233.104 224.413 233.167 224.024 233.167 223.573ZM246.948 224.302C246.948 224.066 246.913 223.854 246.844 223.667C246.774 223.472 246.646 223.292 246.458 223.125C246.271 222.958 246 222.792 245.646 222.625C245.299 222.451 244.84 222.271 244.271 222.083C243.604 221.861 242.962 221.611 242.344 221.333C241.726 221.049 241.174 220.719 240.687 220.344C240.201 219.962 239.816 219.517 239.531 219.01C239.247 218.497 239.104 217.899 239.104 217.219C239.104 216.566 239.25 215.979 239.542 215.458C239.833 214.931 240.24 214.483 240.76 214.115C241.288 213.74 241.906 213.455 242.615 213.26C243.323 213.059 244.097 212.958 244.937 212.958C246.049 212.958 247.028 213.153 247.875 213.542C248.729 213.924 249.396 214.469 249.875 215.177C250.361 215.878 250.604 216.708 250.604 217.667H246.969C246.969 217.285 246.889 216.948 246.729 216.656C246.576 216.365 246.344 216.135 246.031 215.969C245.719 215.802 245.326 215.719 244.854 215.719C244.396 215.719 244.01 215.788 243.698 215.927C243.385 216.066 243.149 216.253 242.99 216.49C242.83 216.719 242.75 216.972 242.75 217.25C242.75 217.479 242.812 217.687 242.937 217.875C243.069 218.056 243.253 218.226 243.49 218.385C243.733 218.545 244.024 218.698 244.365 218.844C244.712 218.99 245.101 219.132 245.531 219.271C246.337 219.528 247.052 219.816 247.677 220.135C248.309 220.448 248.84 220.806 249.271 221.208C249.708 221.604 250.038 222.056 250.26 222.562C250.49 223.069 250.604 223.642 250.604 224.281C250.604 224.962 250.472 225.566 250.208 226.094C249.944 226.622 249.566 227.069 249.073 227.437C248.58 227.799 247.99 228.073 247.302 228.26C246.615 228.448 245.847 228.542 245 228.542C244.222 228.542 243.455 228.444 242.698 228.25C241.948 228.049 241.267 227.743 240.656 227.333C240.045 226.917 239.556 226.385 239.187 225.74C238.826 225.087 238.646 224.312 238.646 223.417H242.312C242.312 223.861 242.372 224.236 242.49 224.542C242.608 224.847 242.781 225.094 243.01 225.281C243.24 225.462 243.521 225.594 243.854 225.677C244.187 225.753 244.569 225.792 245 225.792C245.465 225.792 245.84 225.726 246.125 225.594C246.41 225.455 246.618 225.274 246.75 225.052C246.882 224.823 246.948 224.573 246.948 224.302Z" fill="white"/>
<g style="mix-blend-mode:exclusion">
<rect x="337" y="194.333" width="212" height="53.3333" rx="6.66667" fill="white" fill-opacity="0.35"/>
</g>
<path d="M382.833 213.167H388.802C389.969 213.167 390.983 213.34 391.844 213.687C392.705 214.035 393.368 214.549 393.833 215.229C394.306 215.91 394.542 216.75 394.542 217.75C394.542 218.618 394.406 219.344 394.135 219.927C393.865 220.51 393.486 220.993 393 221.375C392.521 221.75 391.962 222.059 391.323 222.302L390.125 222.979H385.115L385.094 220.156H388.802C389.267 220.156 389.653 220.073 389.958 219.906C390.264 219.74 390.493 219.503 390.646 219.198C390.806 218.885 390.885 218.514 390.885 218.083C390.885 217.646 390.806 217.271 390.646 216.958C390.486 216.646 390.25 216.406 389.937 216.24C389.632 216.073 389.253 215.99 388.802 215.99H386.49V228.333H382.833V213.167ZM391.135 228.333L387.781 221.625L391.656 221.604L395.052 228.177V228.333H391.135ZM402.042 228.542C401.125 228.542 400.306 228.399 399.583 228.115C398.861 227.823 398.25 227.424 397.75 226.917C397.257 226.41 396.878 225.826 396.615 225.167C396.358 224.507 396.229 223.809 396.229 223.073V222.677C396.229 221.851 396.344 221.087 396.573 220.385C396.802 219.677 397.142 219.059 397.594 218.531C398.045 218.003 398.611 217.594 399.292 217.302C399.972 217.003 400.764 216.854 401.667 216.854C402.465 216.854 403.181 216.983 403.813 217.24C404.444 217.497 404.979 217.865 405.417 218.344C405.861 218.823 406.198 219.403 406.427 220.083C406.663 220.764 406.781 221.528 406.781 222.375V223.802H397.573V221.604H403.354V221.333C403.361 220.958 403.295 220.639 403.156 220.375C403.024 220.111 402.83 219.91 402.573 219.771C402.316 219.632 402.003 219.562 401.635 219.562C401.253 219.562 400.938 219.646 400.688 219.812C400.444 219.979 400.253 220.208 400.115 220.5C399.983 220.785 399.889 221.115 399.833 221.49C399.778 221.865 399.75 222.26 399.75 222.677V223.073C399.75 223.49 399.806 223.868 399.917 224.208C400.035 224.549 400.201 224.84 400.417 225.083C400.639 225.319 400.903 225.503 401.208 225.635C401.521 225.767 401.875 225.833 402.271 225.833C402.75 225.833 403.222 225.743 403.688 225.562C404.153 225.382 404.552 225.083 404.885 224.667L406.479 226.562C406.25 226.889 405.924 227.205 405.5 227.51C405.083 227.816 404.583 228.066 404 228.26C403.417 228.448 402.764 228.542 402.042 228.542ZM414.063 225.5V220.854C414.063 220.535 414.017 220.26 413.927 220.031C413.837 219.802 413.694 219.625 413.5 219.5C413.306 219.368 413.045 219.302 412.719 219.302C412.455 219.302 412.229 219.347 412.042 219.437C411.854 219.528 411.712 219.663 411.615 219.844C411.517 220.024 411.469 220.253 411.469 220.531H407.958C407.958 220.01 408.073 219.528 408.302 219.083C408.538 218.632 408.872 218.24 409.302 217.906C409.74 217.573 410.26 217.316 410.865 217.135C411.476 216.948 412.156 216.854 412.906 216.854C413.802 216.854 414.601 217.003 415.302 217.302C416.01 217.601 416.569 218.049 416.979 218.646C417.389 219.236 417.594 219.979 417.594 220.875V225.49C417.594 226.226 417.635 226.785 417.719 227.167C417.802 227.542 417.92 227.872 418.073 228.156V228.333H414.552C414.385 227.986 414.26 227.562 414.177 227.062C414.101 226.556 414.063 226.035 414.063 225.5ZM414.49 221.448L414.51 223.323H412.958C412.632 223.323 412.354 223.368 412.125 223.458C411.903 223.549 411.722 223.674 411.583 223.833C411.451 223.986 411.354 224.16 411.292 224.354C411.236 224.549 411.208 224.753 411.208 224.969C411.208 225.177 411.257 225.365 411.354 225.531C411.458 225.691 411.597 225.816 411.771 225.906C411.944 225.997 412.139 226.042 412.354 226.042C412.743 226.042 413.073 225.969 413.344 225.823C413.622 225.67 413.833 225.486 413.979 225.271C414.125 225.056 414.198 224.854 414.198 224.667L414.969 226.104C414.83 226.382 414.67 226.663 414.49 226.948C414.316 227.233 414.097 227.497 413.833 227.74C413.576 227.976 413.26 228.17 412.885 228.323C412.51 228.469 412.056 228.542 411.521 228.542C410.826 228.542 410.188 228.399 409.604 228.115C409.028 227.83 408.566 227.434 408.219 226.927C407.872 226.413 407.698 225.823 407.698 225.156C407.698 224.573 407.802 224.052 408.01 223.594C408.226 223.135 408.549 222.747 408.979 222.427C409.41 222.108 409.958 221.865 410.625 221.698C411.292 221.531 412.076 221.448 412.979 221.448H414.49ZM424.302 225.833C424.628 225.833 424.906 225.774 425.135 225.656C425.372 225.531 425.549 225.358 425.667 225.135C425.792 224.906 425.851 224.632 425.844 224.312H429.146C429.153 225.16 428.944 225.903 428.521 226.542C428.104 227.174 427.535 227.667 426.812 228.021C426.097 228.368 425.288 228.542 424.385 228.542C423.503 228.542 422.733 228.399 422.073 228.115C421.413 227.823 420.861 227.42 420.417 226.906C419.979 226.385 419.649 225.778 419.427 225.083C419.212 224.389 419.104 223.635 419.104 222.823V222.583C419.104 221.771 419.212 221.017 419.427 220.323C419.649 219.622 419.979 219.014 420.417 218.5C420.861 217.979 421.41 217.576 422.062 217.292C422.722 217 423.49 216.854 424.365 216.854C425.302 216.854 426.128 217.031 426.844 217.385C427.566 217.74 428.132 218.253 428.542 218.927C428.951 219.601 429.153 220.417 429.146 221.375H425.844C425.851 221.035 425.799 220.729 425.687 220.458C425.576 220.187 425.403 219.972 425.167 219.812C424.937 219.646 424.642 219.562 424.281 219.562C423.92 219.562 423.628 219.642 423.406 219.802C423.184 219.962 423.014 220.184 422.896 220.469C422.785 220.747 422.708 221.066 422.667 221.427C422.632 221.788 422.615 222.174 422.615 222.583V222.823C422.615 223.24 422.632 223.632 422.667 224C422.708 224.361 422.788 224.681 422.906 224.958C423.024 225.229 423.194 225.444 423.417 225.604C423.639 225.757 423.934 225.833 424.302 225.833ZM436.583 217.062V219.5H429.792V217.062H436.583ZM431.219 214.26H434.729V224.656C434.729 224.955 434.764 225.187 434.833 225.354C434.903 225.514 435.021 225.628 435.188 225.698C435.361 225.76 435.59 225.792 435.875 225.792C436.076 225.792 436.243 225.788 436.375 225.781C436.507 225.767 436.632 225.75 436.75 225.729V228.24C436.451 228.337 436.139 228.41 435.813 228.458C435.486 228.514 435.139 228.542 434.771 228.542C434.021 228.542 433.378 228.424 432.844 228.187C432.316 227.951 431.913 227.58 431.635 227.073C431.358 226.566 431.219 225.906 431.219 225.094V214.26ZM456.125 213.167V228.333H452.479L447.115 218.896V228.333H443.458V213.167H447.115L452.479 222.604V213.167H456.125ZM464.125 225.5V220.854C464.125 220.535 464.08 220.26 463.99 220.031C463.899 219.802 463.757 219.625 463.563 219.5C463.368 219.368 463.108 219.302 462.781 219.302C462.517 219.302 462.292 219.347 462.104 219.437C461.917 219.528 461.774 219.663 461.677 219.844C461.58 220.024 461.531 220.253 461.531 220.531H458.021C458.021 220.01 458.135 219.528 458.365 219.083C458.601 218.632 458.934 218.24 459.365 217.906C459.802 217.573 460.323 217.316 460.927 217.135C461.538 216.948 462.219 216.854 462.969 216.854C463.865 216.854 464.663 217.003 465.365 217.302C466.073 217.601 466.632 218.049 467.042 218.646C467.451 219.236 467.656 219.979 467.656 220.875V225.49C467.656 226.226 467.698 226.785 467.781 227.167C467.865 227.542 467.983 227.872 468.135 228.156V228.333H464.615C464.448 227.986 464.323 227.562 464.24 227.062C464.163 226.556 464.125 226.035 464.125 225.5ZM464.552 221.448L464.573 223.323H463.021C462.694 223.323 462.417 223.368 462.188 223.458C461.965 223.549 461.785 223.674 461.646 223.833C461.514 223.986 461.417 224.16 461.354 224.354C461.299 224.549 461.271 224.753 461.271 224.969C461.271 225.177 461.319 225.365 461.417 225.531C461.521 225.691 461.66 225.816 461.833 225.906C462.007 225.997 462.201 226.042 462.417 226.042C462.806 226.042 463.135 225.969 463.406 225.823C463.684 225.67 463.896 225.486 464.042 225.271C464.188 225.056 464.26 224.854 464.26 224.667L465.031 226.104C464.892 226.382 464.733 226.663 464.552 226.948C464.378 227.233 464.16 227.497 463.896 227.74C463.639 227.976 463.323 228.17 462.948 228.323C462.573 228.469 462.118 228.542 461.583 228.542C460.889 228.542 460.25 228.399 459.667 228.115C459.09 227.83 458.628 227.434 458.281 226.927C457.934 226.413 457.76 225.823 457.76 225.156C457.76 224.573 457.865 224.052 458.073 223.594C458.288 223.135 458.611 222.747 459.042 222.427C459.472 222.108 460.021 221.865 460.688 221.698C461.354 221.531 462.139 221.448 463.042 221.448H464.552ZM475.542 217.062V219.5H468.75V217.062H475.542ZM470.177 214.26H473.687V224.656C473.687 224.955 473.722 225.187 473.792 225.354C473.861 225.514 473.979 225.628 474.146 225.698C474.319 225.76 474.549 225.792 474.833 225.792C475.035 225.792 475.201 225.788 475.333 225.781C475.465 225.767 475.59 225.75 475.708 225.729V228.24C475.41 228.337 475.097 228.41 474.771 228.458C474.444 228.514 474.097 228.542 473.729 228.542C472.979 228.542 472.337 228.424 471.802 228.187C471.274 227.951 470.872 227.58 470.594 227.073C470.316 226.566 470.177 225.906 470.177 225.094V214.26ZM480.646 217.062V228.333H477.125V217.062H480.646ZM476.917 214.156C476.917 213.656 477.097 213.247 477.458 212.927C477.819 212.608 478.288 212.448 478.865 212.448C479.441 212.448 479.91 212.608 480.271 212.927C480.632 213.247 480.813 213.656 480.813 214.156C480.813 214.656 480.632 215.066 480.271 215.385C479.91 215.705 479.441 215.865 478.865 215.865C478.288 215.865 477.819 215.705 477.458 215.385C477.097 215.066 476.917 214.656 476.917 214.156ZM486.875 225.927L489.094 217.062H492.792L489.104 228.333H486.917L486.875 225.927ZM485.563 217.062L487.75 225.927L487.729 228.333H485.531L481.854 217.062H485.563ZM499.146 228.542C498.229 228.542 497.41 228.399 496.688 228.115C495.965 227.823 495.354 227.424 494.854 226.917C494.361 226.41 493.983 225.826 493.719 225.167C493.462 224.507 493.333 223.809 493.333 223.073V222.677C493.333 221.851 493.448 221.087 493.677 220.385C493.906 219.677 494.247 219.059 494.698 218.531C495.149 218.003 495.715 217.594 496.396 217.302C497.076 217.003 497.868 216.854 498.771 216.854C499.569 216.854 500.285 216.983 500.917 217.24C501.549 217.497 502.083 217.865 502.521 218.344C502.965 218.823 503.302 219.403 503.531 220.083C503.767 220.764 503.885 221.528 503.885 222.375V223.802H494.677V221.604H500.458V221.333C500.465 220.958 500.399 220.639 500.26 220.375C500.128 220.111 499.934 219.91 499.677 219.771C499.42 219.632 499.108 219.562 498.74 219.562C498.358 219.562 498.042 219.646 497.792 219.812C497.549 219.979 497.358 220.208 497.219 220.5C497.087 220.785 496.993 221.115 496.938 221.49C496.882 221.865 496.854 222.26 496.854 222.677V223.073C496.854 223.49 496.91 223.868 497.021 224.208C497.139 224.549 497.306 224.84 497.521 225.083C497.743 225.319 498.007 225.503 498.313 225.635C498.625 225.767 498.979 225.833 499.375 225.833C499.854 225.833 500.326 225.743 500.792 225.562C501.257 225.382 501.656 225.083 501.99 224.667L503.583 226.562C503.354 226.889 503.028 227.205 502.604 227.51C502.188 227.816 501.688 228.066 501.104 228.26C500.521 228.448 499.868 228.542 499.146 228.542Z" fill="white"/>
<g style="mix-blend-mode:exclusion">
<rect x="569" y="194.333" width="212" height="53.3333" rx="6.66667" fill="white" fill-opacity="0.35"/>
</g>
<path d="M650.844 213.167V228.333H647.198L641.833 218.896V228.333H638.177V213.167H641.833L647.198 222.604V213.167H650.844ZM652.552 222.812V222.594C652.552 221.767 652.67 221.007 652.906 220.312C653.142 219.611 653.49 219.003 653.948 218.49C654.406 217.976 654.972 217.576 655.646 217.292C656.319 217 657.097 216.854 657.979 216.854C658.868 216.854 659.649 217 660.323 217.292C661.003 217.576 661.573 217.976 662.031 218.49C662.49 219.003 662.837 219.611 663.073 220.312C663.309 221.007 663.427 221.767 663.427 222.594V222.812C663.427 223.632 663.309 224.392 663.073 225.094C662.837 225.788 662.49 226.396 662.031 226.917C661.573 227.431 661.007 227.83 660.333 228.115C659.66 228.399 658.882 228.542 658 228.542C657.118 228.542 656.337 228.399 655.656 228.115C654.976 227.83 654.406 227.431 653.948 226.917C653.49 226.396 653.142 225.788 652.906 225.094C652.67 224.392 652.552 223.632 652.552 222.812ZM656.062 222.594V222.812C656.062 223.236 656.094 223.632 656.156 224C656.219 224.368 656.323 224.691 656.469 224.969C656.615 225.24 656.812 225.451 657.062 225.604C657.312 225.757 657.625 225.833 658 225.833C658.368 225.833 658.674 225.757 658.917 225.604C659.167 225.451 659.365 225.24 659.51 224.969C659.656 224.691 659.76 224.368 659.823 224C659.885 223.632 659.917 223.236 659.917 222.812V222.594C659.917 222.184 659.885 221.799 659.823 221.437C659.76 221.069 659.656 220.747 659.51 220.469C659.365 220.184 659.167 219.962 658.917 219.802C658.667 219.642 658.354 219.562 657.979 219.562C657.611 219.562 657.302 219.642 657.052 219.802C656.809 219.962 656.615 220.184 656.469 220.469C656.323 220.747 656.219 221.069 656.156 221.437C656.094 221.799 656.062 222.184 656.062 222.594ZM671.469 225.75V212.333H675V228.333H671.833L671.469 225.75ZM664.552 222.833V222.615C664.552 221.76 664.646 220.983 664.833 220.281C665.021 219.573 665.299 218.965 665.667 218.458C666.035 217.944 666.493 217.549 667.042 217.271C667.59 216.993 668.222 216.854 668.938 216.854C669.576 216.854 670.135 217.003 670.615 217.302C671.094 217.594 671.503 218.003 671.844 218.531C672.184 219.059 672.462 219.677 672.677 220.385C672.892 221.087 673.056 221.844 673.167 222.656V222.917C673.056 223.681 672.892 224.403 672.677 225.083C672.462 225.757 672.184 226.354 671.844 226.875C671.503 227.396 671.09 227.806 670.604 228.104C670.125 228.396 669.563 228.542 668.917 228.542C668.201 228.542 667.569 228.399 667.021 228.115C666.479 227.83 666.024 227.431 665.656 226.917C665.295 226.403 665.021 225.799 664.833 225.104C664.646 224.41 664.552 223.653 664.552 222.833ZM668.063 222.615V222.833C668.063 223.257 668.09 223.649 668.146 224.01C668.201 224.372 668.295 224.691 668.427 224.969C668.566 225.24 668.747 225.451 668.969 225.604C669.198 225.757 669.479 225.833 669.813 225.833C670.264 225.833 670.635 225.726 670.927 225.51C671.226 225.295 671.444 224.99 671.583 224.594C671.729 224.198 671.792 223.733 671.771 223.198V222.375C671.785 221.917 671.753 221.514 671.677 221.167C671.601 220.812 671.479 220.517 671.313 220.281C671.153 220.045 670.948 219.868 670.698 219.75C670.455 219.625 670.167 219.562 669.833 219.562C669.507 219.562 669.229 219.639 669 219.792C668.778 219.944 668.597 220.16 668.458 220.437C668.319 220.708 668.219 221.031 668.156 221.406C668.094 221.774 668.063 222.177 668.063 222.615ZM682.448 228.542C681.531 228.542 680.712 228.399 679.99 228.115C679.267 227.823 678.656 227.424 678.156 226.917C677.663 226.41 677.285 225.826 677.021 225.167C676.764 224.507 676.635 223.809 676.635 223.073V222.677C676.635 221.851 676.75 221.087 676.979 220.385C677.208 219.677 677.549 219.059 678 218.531C678.451 218.003 679.017 217.594 679.698 217.302C680.378 217.003 681.17 216.854 682.073 216.854C682.872 216.854 683.587 216.983 684.219 217.24C684.851 217.497 685.385 217.865 685.823 218.344C686.267 218.823 686.604 219.403 686.833 220.083C687.069 220.764 687.188 221.528 687.188 222.375V223.802H677.979V221.604H683.76V221.333C683.767 220.958 683.701 220.639 683.563 220.375C683.431 220.111 683.236 219.91 682.979 219.771C682.722 219.632 682.41 219.562 682.042 219.562C681.66 219.562 681.344 219.646 681.094 219.812C680.851 219.979 680.66 220.208 680.521 220.5C680.389 220.785 680.295 221.115 680.24 221.49C680.184 221.865 680.156 222.26 680.156 222.677V223.073C680.156 223.49 680.212 223.868 680.323 224.208C680.441 224.549 680.608 224.84 680.823 225.083C681.045 225.319 681.309 225.503 681.615 225.635C681.927 225.767 682.281 225.833 682.677 225.833C683.156 225.833 683.628 225.743 684.094 225.562C684.559 225.382 684.958 225.083 685.292 224.667L686.885 226.562C686.656 226.889 686.33 227.205 685.906 227.51C685.49 227.816 684.99 228.066 684.406 228.26C683.823 228.448 683.17 228.542 682.448 228.542ZM694.813 223.573V213.167H698.458V223.573C698.458 224.587 698.226 225.465 697.76 226.208C697.302 226.951 696.677 227.528 695.885 227.937C695.101 228.34 694.219 228.542 693.24 228.542C692.226 228.542 691.323 228.372 690.531 228.031C689.747 227.691 689.128 227.167 688.677 226.458C688.233 225.75 688.01 224.847 688.01 223.75H691.677C691.677 224.264 691.736 224.667 691.854 224.958C691.972 225.243 692.146 225.444 692.375 225.562C692.611 225.674 692.899 225.729 693.24 225.729C693.573 225.729 693.854 225.646 694.083 225.479C694.319 225.306 694.5 225.059 694.625 224.74C694.75 224.413 694.813 224.024 694.813 223.573ZM708.594 224.302C708.594 224.066 708.559 223.854 708.49 223.667C708.42 223.472 708.292 223.292 708.104 223.125C707.917 222.958 707.646 222.792 707.292 222.625C706.944 222.451 706.486 222.271 705.917 222.083C705.25 221.861 704.608 221.611 703.99 221.333C703.372 221.049 702.819 220.719 702.333 220.344C701.847 219.962 701.462 219.517 701.177 219.01C700.892 218.497 700.75 217.899 700.75 217.219C700.75 216.566 700.896 215.979 701.188 215.458C701.479 214.931 701.885 214.483 702.406 214.115C702.934 213.74 703.552 213.455 704.26 213.26C704.969 213.059 705.743 212.958 706.583 212.958C707.694 212.958 708.674 213.153 709.521 213.542C710.375 213.924 711.042 214.469 711.521 215.177C712.007 215.878 712.25 216.708 712.25 217.667H708.615C708.615 217.285 708.535 216.948 708.375 216.656C708.222 216.365 707.99 216.135 707.677 215.969C707.365 215.802 706.972 215.719 706.5 215.719C706.042 215.719 705.656 215.788 705.344 215.927C705.031 216.066 704.795 216.253 704.635 216.49C704.476 216.719 704.396 216.972 704.396 217.25C704.396 217.479 704.458 217.687 704.583 217.875C704.715 218.056 704.899 218.226 705.135 218.385C705.378 218.545 705.67 218.698 706.01 218.844C706.358 218.99 706.747 219.132 707.177 219.271C707.983 219.528 708.698 219.816 709.323 220.135C709.955 220.448 710.486 220.806 710.917 221.208C711.354 221.604 711.684 222.056 711.906 222.562C712.135 223.069 712.25 223.642 712.25 224.281C712.25 224.962 712.118 225.566 711.854 226.094C711.59 226.622 711.212 227.069 710.719 227.437C710.226 227.799 709.635 228.073 708.948 228.26C708.26 228.448 707.493 228.542 706.646 228.542C705.868 228.542 705.101 228.444 704.344 228.25C703.594 228.049 702.913 227.743 702.302 227.333C701.691 226.917 701.201 226.385 700.833 225.74C700.472 225.087 700.292 224.312 700.292 223.417H703.958C703.958 223.861 704.017 224.236 704.135 224.542C704.253 224.847 704.427 225.094 704.656 225.281C704.885 225.462 705.167 225.594 705.5 225.677C705.833 225.753 706.215 225.792 706.646 225.792C707.111 225.792 707.486 225.726 707.771 225.594C708.056 225.455 708.264 225.274 708.396 225.052C708.528 224.823 708.594 224.573 708.594 224.302Z" fill="white"/>
<g style="mix-blend-mode:exclusion">
<rect x="801" y="194.333" width="212" height="53.3333" rx="6.66667" fill="white" fill-opacity="0.35"/>
</g>
<path d="M864.438 213.167H867.417L870.802 223.719L874.188 213.167H877.167L872.01 228.333H869.594L864.438 213.167ZM862.625 213.167H865.708L866.281 224.792V228.333H862.625V213.167ZM875.896 213.167H878.99V228.333H875.323V224.792L875.896 213.167ZM880.729 222.812V222.594C880.729 221.767 880.847 221.007 881.083 220.312C881.319 219.611 881.667 219.003 882.125 218.49C882.583 217.976 883.149 217.576 883.823 217.292C884.497 217 885.274 216.854 886.156 216.854C887.045 216.854 887.826 217 888.5 217.292C889.181 217.576 889.75 217.976 890.208 218.49C890.667 219.003 891.014 219.611 891.25 220.312C891.486 221.007 891.604 221.767 891.604 222.594V222.812C891.604 223.632 891.486 224.392 891.25 225.094C891.014 225.788 890.667 226.396 890.208 226.917C889.75 227.431 889.184 227.83 888.51 228.115C887.837 228.399 887.059 228.542 886.177 228.542C885.295 228.542 884.514 228.399 883.833 228.115C883.153 227.83 882.583 227.431 882.125 226.917C881.667 226.396 881.319 225.788 881.083 225.094C880.847 224.392 880.729 223.632 880.729 222.812ZM884.24 222.594V222.812C884.24 223.236 884.271 223.632 884.333 224C884.396 224.368 884.5 224.691 884.646 224.969C884.792 225.24 884.99 225.451 885.24 225.604C885.49 225.757 885.802 225.833 886.177 225.833C886.545 225.833 886.851 225.757 887.094 225.604C887.344 225.451 887.542 225.24 887.688 224.969C887.833 224.691 887.938 224.368 888 224C888.063 223.632 888.094 223.236 888.094 222.812V222.594C888.094 222.184 888.063 221.799 888 221.437C887.938 221.069 887.833 220.747 887.688 220.469C887.542 220.184 887.344 219.962 887.094 219.802C886.844 219.642 886.531 219.562 886.156 219.562C885.788 219.562 885.479 219.642 885.229 219.802C884.986 219.962 884.792 220.184 884.646 220.469C884.5 220.747 884.396 221.069 884.333 221.437C884.271 221.799 884.24 222.184 884.24 222.594ZM896.615 219.469V228.333H893.104V217.062H896.396L896.615 219.469ZM896.198 222.312L895.375 222.333C895.375 221.472 895.479 220.705 895.688 220.031C895.896 219.351 896.191 218.774 896.573 218.302C896.955 217.83 897.41 217.472 897.938 217.229C898.472 216.979 899.066 216.854 899.719 216.854C900.24 216.854 900.715 216.931 901.146 217.083C901.583 217.236 901.958 217.483 902.271 217.823C902.59 218.163 902.833 218.615 903 219.177C903.174 219.733 903.26 220.42 903.26 221.24V228.333H899.729V221.229C899.729 220.778 899.667 220.434 899.542 220.198C899.417 219.955 899.236 219.788 899 219.698C898.764 219.608 898.476 219.562 898.135 219.562C897.774 219.562 897.469 219.632 897.219 219.771C896.969 219.91 896.767 220.104 896.615 220.354C896.469 220.597 896.361 220.885 896.292 221.219C896.229 221.552 896.198 221.917 896.198 222.312ZM912.292 217.062H915.479V227.896C915.479 228.937 915.24 229.819 914.76 230.542C914.281 231.271 913.611 231.823 912.75 232.198C911.896 232.58 910.896 232.771 909.75 232.771C909.243 232.771 908.726 232.705 908.198 232.573C907.67 232.448 907.177 232.26 906.719 232.01C906.26 231.76 905.875 231.451 905.563 231.083L907.031 229.021C907.316 229.34 907.674 229.611 908.104 229.833C908.535 230.062 909.042 230.177 909.625 230.177C910.132 230.177 910.556 230.087 910.896 229.906C911.243 229.726 911.507 229.462 911.688 229.115C911.868 228.774 911.958 228.361 911.958 227.875V219.729L912.292 217.062ZM904.802 222.833V222.615C904.802 221.76 904.906 220.983 905.115 220.281C905.33 219.573 905.635 218.965 906.031 218.458C906.434 217.944 906.92 217.549 907.49 217.271C908.059 216.993 908.701 216.854 909.417 216.854C910.188 216.854 910.819 217.003 911.313 217.302C911.813 217.594 912.212 218.003 912.51 218.531C912.816 219.059 913.052 219.677 913.219 220.385C913.392 221.087 913.538 221.844 913.656 222.656V222.917C913.538 223.681 913.375 224.403 913.167 225.083C912.965 225.757 912.701 226.354 912.375 226.875C912.049 227.396 911.639 227.806 911.146 228.104C910.66 228.396 910.076 228.542 909.396 228.542C908.688 228.542 908.049 228.399 907.479 228.115C906.917 227.83 906.434 227.431 906.031 226.917C905.635 226.403 905.33 225.799 905.115 225.104C904.906 224.41 904.802 223.653 904.802 222.833ZM908.313 222.615V222.833C908.313 223.257 908.351 223.649 908.427 224.01C908.51 224.372 908.635 224.691 908.802 224.969C908.969 225.24 909.174 225.451 909.417 225.604C909.667 225.757 909.958 225.833 910.292 225.833C910.799 225.833 911.208 225.726 911.521 225.51C911.833 225.295 912.059 224.99 912.198 224.594C912.337 224.198 912.396 223.733 912.375 223.198V222.375C912.389 221.917 912.358 221.514 912.281 221.167C912.205 220.812 912.083 220.517 911.917 220.281C911.757 220.045 911.542 219.868 911.271 219.75C911.007 219.625 910.688 219.562 910.313 219.562C909.986 219.562 909.698 219.639 909.448 219.792C909.198 219.944 908.99 220.16 908.823 220.437C908.656 220.708 908.528 221.031 908.438 221.406C908.354 221.774 908.313 222.177 908.313 222.615ZM917.063 222.812V222.594C917.063 221.767 917.181 221.007 917.417 220.312C917.653 219.611 918 219.003 918.458 218.49C918.917 217.976 919.483 217.576 920.156 217.292C920.83 217 921.608 216.854 922.49 216.854C923.378 216.854 924.16 217 924.833 217.292C925.514 217.576 926.083 217.976 926.542 218.49C927 219.003 927.347 219.611 927.583 220.312C927.819 221.007 927.938 221.767 927.938 222.594V222.812C927.938 223.632 927.819 224.392 927.583 225.094C927.347 225.788 927 226.396 926.542 226.917C926.083 227.431 925.517 227.83 924.844 228.115C924.17 228.399 923.392 228.542 922.51 228.542C921.628 228.542 920.847 228.399 920.167 228.115C919.486 227.83 918.917 227.431 918.458 226.917C918 226.396 917.653 225.788 917.417 225.094C917.181 224.392 917.063 223.632 917.063 222.812ZM920.573 222.594V222.812C920.573 223.236 920.604 223.632 920.667 224C920.729 224.368 920.833 224.691 920.979 224.969C921.125 225.24 921.323 225.451 921.573 225.604C921.823 225.757 922.135 225.833 922.51 225.833C922.878 225.833 923.184 225.757 923.427 225.604C923.677 225.451 923.875 225.24 924.021 224.969C924.167 224.691 924.271 224.368 924.333 224C924.396 223.632 924.427 223.236 924.427 222.812V222.594C924.427 222.184 924.396 221.799 924.333 221.437C924.271 221.069 924.167 220.747 924.021 220.469C923.875 220.184 923.677 219.962 923.427 219.802C923.177 219.642 922.865 219.562 922.49 219.562C922.122 219.562 921.813 219.642 921.563 219.802C921.319 219.962 921.125 220.184 920.979 220.469C920.833 220.747 920.729 221.069 920.667 221.437C920.604 221.799 920.573 222.184 920.573 222.594ZM935.979 225.75V212.333H939.51V228.333H936.344L935.979 225.75ZM929.063 222.833V222.615C929.063 221.76 929.156 220.983 929.344 220.281C929.531 219.573 929.809 218.965 930.177 218.458C930.545 217.944 931.003 217.549 931.552 217.271C932.101 216.993 932.733 216.854 933.448 216.854C934.087 216.854 934.646 217.003 935.125 217.302C935.604 217.594 936.014 218.003 936.354 218.531C936.694 219.059 936.972 219.677 937.188 220.385C937.403 221.087 937.566 221.844 937.677 222.656V222.917C937.566 223.681 937.403 224.403 937.188 225.083C936.972 225.757 936.694 226.354 936.354 226.875C936.014 227.396 935.601 227.806 935.115 228.104C934.635 228.396 934.073 228.542 933.427 228.542C932.712 228.542 932.08 228.399 931.531 228.115C930.99 227.83 930.535 227.431 930.167 226.917C929.806 226.403 929.531 225.799 929.344 225.104C929.156 224.41 929.063 223.653 929.063 222.833ZM932.573 222.615V222.833C932.573 223.257 932.601 223.649 932.656 224.01C932.712 224.372 932.806 224.691 932.938 224.969C933.076 225.24 933.257 225.451 933.479 225.604C933.708 225.757 933.99 225.833 934.323 225.833C934.774 225.833 935.146 225.726 935.438 225.51C935.736 225.295 935.955 224.99 936.094 224.594C936.24 224.198 936.302 223.733 936.281 223.198V222.375C936.295 221.917 936.264 221.514 936.188 221.167C936.111 220.812 935.99 220.517 935.823 220.281C935.663 220.045 935.458 219.868 935.208 219.75C934.965 219.625 934.677 219.562 934.344 219.562C934.017 219.562 933.74 219.639 933.51 219.792C933.288 219.944 933.108 220.16 932.969 220.437C932.83 220.708 932.729 221.031 932.667 221.406C932.604 221.774 932.573 222.177 932.573 222.615ZM941.531 212.333H945.042V225.562L944.677 228.333H941.531V212.333ZM951.958 222.573V222.792C951.958 223.646 951.872 224.424 951.698 225.125C951.524 225.826 951.257 226.434 950.896 226.948C950.535 227.455 950.08 227.847 949.531 228.125C948.983 228.403 948.333 228.542 947.583 228.542C946.903 228.542 946.319 228.396 945.833 228.104C945.347 227.806 944.941 227.396 944.615 226.875C944.288 226.347 944.024 225.74 943.823 225.052C943.622 224.358 943.462 223.615 943.344 222.823V222.562C943.462 221.778 943.622 221.042 943.823 220.354C944.024 219.66 944.288 219.052 944.615 218.531C944.941 218.003 945.344 217.594 945.823 217.302C946.309 217.003 946.889 216.854 947.563 216.854C948.319 216.854 948.972 216.997 949.521 217.281C950.076 217.566 950.535 217.965 950.896 218.479C951.257 218.993 951.524 219.597 951.698 220.292C951.872 220.986 951.958 221.747 951.958 222.573ZM948.448 222.792V222.573C948.448 222.163 948.424 221.778 948.375 221.417C948.326 221.056 948.24 220.736 948.115 220.458C947.99 220.181 947.813 219.962 947.583 219.802C947.354 219.642 947.056 219.562 946.688 219.562C946.313 219.562 945.997 219.625 945.74 219.75C945.49 219.875 945.288 220.056 945.135 220.292C944.99 220.521 944.885 220.806 944.823 221.146C944.76 221.479 944.733 221.858 944.74 222.281V223.104C944.726 223.681 944.778 224.174 944.896 224.583C945.014 224.993 945.219 225.306 945.51 225.521C945.802 225.736 946.201 225.844 946.708 225.844C947.083 225.844 947.385 225.771 947.615 225.625C947.851 225.479 948.028 225.271 948.146 225C948.264 224.729 948.344 224.406 948.385 224.031C948.427 223.656 948.448 223.243 948.448 222.792Z" fill="white"/>
<g style="mix-blend-mode:exclusion">
<rect x="1033" y="194.333" width="212" height="53.3333" rx="6.66667" fill="white" fill-opacity="0.35"/>
</g>
<path d="M1102.33 213.167V228.333H1098.68V213.167H1102.33ZM1108.23 219.479V222.292H1101.29V219.479H1108.23ZM1108.82 213.167V215.99H1101.29V213.167H1108.82ZM1113.89 217.062V228.333H1110.36V217.062H1113.89ZM1110.16 214.156C1110.16 213.656 1110.34 213.247 1110.7 212.927C1111.06 212.608 1111.53 212.448 1112.1 212.448C1112.68 212.448 1113.15 212.608 1113.51 212.927C1113.87 213.247 1114.05 213.656 1114.05 214.156C1114.05 214.656 1113.87 215.066 1113.51 215.385C1113.15 215.705 1112.68 215.865 1112.1 215.865C1111.53 215.865 1111.06 215.705 1110.7 215.385C1110.34 215.066 1110.16 214.656 1110.16 214.156ZM1119.59 219.854V228.333H1116.08V217.062H1119.36L1119.59 219.854ZM1122.93 216.979L1122.86 220.24C1122.73 220.226 1122.54 220.208 1122.3 220.187C1122.07 220.167 1121.87 220.156 1121.71 220.156C1121.3 220.156 1120.94 220.205 1120.65 220.302C1120.35 220.392 1120.11 220.531 1119.92 220.719C1119.73 220.899 1119.59 221.128 1119.5 221.406C1119.42 221.684 1119.38 222.007 1119.39 222.375L1118.75 221.958C1118.75 221.201 1118.82 220.514 1118.97 219.896C1119.12 219.271 1119.34 218.733 1119.61 218.281C1119.89 217.823 1120.23 217.472 1120.63 217.229C1121.02 216.979 1121.47 216.854 1121.96 216.854C1122.13 216.854 1122.3 216.865 1122.47 216.885C1122.64 216.906 1122.8 216.937 1122.93 216.979ZM1129.39 228.542C1128.47 228.542 1127.65 228.399 1126.93 228.115C1126.2 227.823 1125.59 227.424 1125.09 226.917C1124.6 226.41 1124.22 225.826 1123.96 225.167C1123.7 224.507 1123.57 223.809 1123.57 223.073V222.677C1123.57 221.851 1123.69 221.087 1123.92 220.385C1124.15 219.677 1124.49 219.059 1124.94 218.531C1125.39 218.003 1125.95 217.594 1126.64 217.302C1127.32 217.003 1128.11 216.854 1129.01 216.854C1129.81 216.854 1130.52 216.983 1131.16 217.24C1131.79 217.497 1132.32 217.865 1132.76 218.344C1133.2 218.823 1133.54 219.403 1133.77 220.083C1134.01 220.764 1134.13 221.528 1134.13 222.375V223.802H1124.92V221.604H1130.7V221.333C1130.7 220.958 1130.64 220.639 1130.5 220.375C1130.37 220.111 1130.17 219.91 1129.92 219.771C1129.66 219.632 1129.35 219.562 1128.98 219.562C1128.6 219.562 1128.28 219.646 1128.03 219.812C1127.79 219.979 1127.6 220.208 1127.46 220.5C1127.33 220.785 1127.23 221.115 1127.18 221.49C1127.12 221.865 1127.09 222.26 1127.09 222.677V223.073C1127.09 223.49 1127.15 223.868 1127.26 224.208C1127.38 224.549 1127.55 224.84 1127.76 225.083C1127.98 225.319 1128.25 225.503 1128.55 225.635C1128.86 225.767 1129.22 225.833 1129.61 225.833C1130.09 225.833 1130.57 225.743 1131.03 225.562C1131.5 225.382 1131.9 225.083 1132.23 224.667L1133.82 226.562C1133.59 226.889 1133.27 227.205 1132.84 227.51C1132.43 227.816 1131.93 228.066 1131.34 228.26C1130.76 228.448 1130.11 228.542 1129.39 228.542ZM1135.58 212.333H1139.09V225.562L1138.73 228.333H1135.58V212.333ZM1146.01 222.573V222.792C1146.01 223.646 1145.92 224.424 1145.75 225.125C1145.58 225.826 1145.31 226.434 1144.95 226.948C1144.59 227.455 1144.13 227.847 1143.58 228.125C1143.03 228.403 1142.39 228.542 1141.64 228.542C1140.95 228.542 1140.37 228.396 1139.89 228.104C1139.4 227.806 1138.99 227.396 1138.67 226.875C1138.34 226.347 1138.08 225.74 1137.88 225.052C1137.67 224.358 1137.51 223.615 1137.4 222.823V222.562C1137.51 221.778 1137.67 221.042 1137.88 220.354C1138.08 219.66 1138.34 219.052 1138.67 218.531C1138.99 218.003 1139.4 217.594 1139.88 217.302C1140.36 217.003 1140.94 216.854 1141.61 216.854C1142.37 216.854 1143.02 216.997 1143.57 217.281C1144.13 217.566 1144.59 217.965 1144.95 218.479C1145.31 218.993 1145.58 219.597 1145.75 220.292C1145.92 220.986 1146.01 221.747 1146.01 222.573ZM1142.5 222.792V222.573C1142.5 222.163 1142.48 221.778 1142.43 221.417C1142.38 221.056 1142.29 220.736 1142.17 220.458C1142.04 220.181 1141.86 219.962 1141.64 219.802C1141.41 219.642 1141.11 219.562 1140.74 219.562C1140.36 219.562 1140.05 219.625 1139.79 219.75C1139.54 219.875 1139.34 220.056 1139.19 220.292C1139.04 220.521 1138.94 220.806 1138.88 221.146C1138.81 221.479 1138.78 221.858 1138.79 222.281V223.104C1138.78 223.681 1138.83 224.174 1138.95 224.583C1139.07 224.993 1139.27 225.306 1139.56 225.521C1139.85 225.736 1140.25 225.844 1140.76 225.844C1141.14 225.844 1141.44 225.771 1141.67 225.625C1141.9 225.479 1142.08 225.271 1142.2 225C1142.32 224.729 1142.4 224.406 1142.44 224.031C1142.48 223.656 1142.5 223.243 1142.5 222.792ZM1153.43 225.5V220.854C1153.43 220.535 1153.38 220.26 1153.29 220.031C1153.2 219.802 1153.06 219.625 1152.86 219.5C1152.67 219.368 1152.41 219.302 1152.08 219.302C1151.82 219.302 1151.59 219.347 1151.41 219.437C1151.22 219.528 1151.08 219.663 1150.98 219.844C1150.88 220.024 1150.83 220.253 1150.83 220.531H1147.32C1147.32 220.01 1147.44 219.528 1147.67 219.083C1147.9 218.632 1148.24 218.24 1148.67 217.906C1149.1 217.573 1149.62 217.316 1150.23 217.135C1150.84 216.948 1151.52 216.854 1152.27 216.854C1153.17 216.854 1153.97 217.003 1154.67 217.302C1155.37 217.601 1155.93 218.049 1156.34 218.646C1156.75 219.236 1156.96 219.979 1156.96 220.875V225.49C1156.96 226.226 1157 226.785 1157.08 227.167C1157.17 227.542 1157.28 227.872 1157.44 228.156V228.333H1153.92C1153.75 227.986 1153.62 227.562 1153.54 227.062C1153.47 226.556 1153.43 226.035 1153.43 225.5ZM1153.85 221.448L1153.87 223.323H1152.32C1152 223.323 1151.72 223.368 1151.49 223.458C1151.27 223.549 1151.09 223.674 1150.95 223.833C1150.82 223.986 1150.72 224.16 1150.66 224.354C1150.6 224.549 1150.57 224.753 1150.57 224.969C1150.57 225.177 1150.62 225.365 1150.72 225.531C1150.82 225.691 1150.96 225.816 1151.14 225.906C1151.31 225.997 1151.5 226.042 1151.72 226.042C1152.11 226.042 1152.44 225.969 1152.71 225.823C1152.99 225.67 1153.2 225.486 1153.34 225.271C1153.49 225.056 1153.56 224.854 1153.56 224.667L1154.33 226.104C1154.19 226.382 1154.03 226.663 1153.85 226.948C1153.68 227.233 1153.46 227.497 1153.2 227.74C1152.94 227.976 1152.62 228.17 1152.25 228.323C1151.87 228.469 1151.42 228.542 1150.89 228.542C1150.19 228.542 1149.55 228.399 1148.97 228.115C1148.39 227.83 1147.93 227.434 1147.58 226.927C1147.24 226.413 1147.06 225.823 1147.06 225.156C1147.06 224.573 1147.17 224.052 1147.37 223.594C1147.59 223.135 1147.91 222.747 1148.34 222.427C1148.77 222.108 1149.32 221.865 1149.99 221.698C1150.66 221.531 1151.44 221.448 1152.34 221.448H1153.85ZM1164.81 225.167C1164.81 224.972 1164.75 224.806 1164.61 224.667C1164.49 224.521 1164.27 224.389 1163.95 224.271C1163.63 224.146 1163.18 224.021 1162.6 223.896C1162.06 223.778 1161.54 223.622 1161.05 223.427C1160.57 223.233 1160.15 222.997 1159.79 222.719C1159.43 222.441 1159.15 222.111 1158.94 221.729C1158.74 221.347 1158.64 220.91 1158.64 220.417C1158.64 219.937 1158.74 219.486 1158.94 219.062C1159.15 218.632 1159.45 218.253 1159.84 217.927C1160.25 217.594 1160.74 217.333 1161.31 217.146C1161.89 216.951 1162.55 216.854 1163.28 216.854C1164.3 216.854 1165.17 217.01 1165.91 217.323C1166.64 217.628 1167.21 218.059 1167.6 218.615C1168.01 219.163 1168.21 219.799 1168.21 220.521H1164.7C1164.7 220.236 1164.65 219.993 1164.55 219.792C1164.46 219.59 1164.31 219.437 1164.1 219.333C1163.9 219.222 1163.62 219.167 1163.27 219.167C1163.03 219.167 1162.81 219.212 1162.6 219.302C1162.41 219.392 1162.25 219.517 1162.14 219.677C1162.02 219.837 1161.96 220.024 1161.96 220.24C1161.96 220.392 1161.99 220.531 1162.06 220.656C1162.14 220.774 1162.25 220.885 1162.41 220.99C1162.56 221.087 1162.75 221.177 1162.99 221.26C1163.23 221.337 1163.51 221.406 1163.84 221.469C1164.6 221.608 1165.31 221.806 1165.97 222.062C1166.63 222.319 1167.16 222.684 1167.57 223.156C1167.99 223.628 1168.2 224.264 1168.2 225.062C1168.2 225.562 1168.08 226.024 1167.85 226.448C1167.62 226.865 1167.3 227.233 1166.86 227.552C1166.43 227.865 1165.92 228.108 1165.31 228.281C1164.71 228.455 1164.03 228.542 1163.27 228.542C1162.19 228.542 1161.28 228.351 1160.54 227.969C1159.8 227.58 1159.24 227.094 1158.85 226.51C1158.48 225.92 1158.29 225.323 1158.29 224.719H1161.56C1161.58 225.066 1161.66 225.351 1161.81 225.573C1161.97 225.795 1162.18 225.958 1162.45 226.062C1162.71 226.167 1163.02 226.219 1163.36 226.219C1163.68 226.219 1163.95 226.174 1164.16 226.083C1164.37 225.993 1164.53 225.872 1164.65 225.719C1164.76 225.559 1164.81 225.375 1164.81 225.167ZM1175.3 228.542C1174.39 228.542 1173.57 228.399 1172.84 228.115C1172.12 227.823 1171.51 227.424 1171.01 226.917C1170.52 226.41 1170.14 225.826 1169.87 225.167C1169.62 224.507 1169.49 223.809 1169.49 223.073V222.677C1169.49 221.851 1169.6 221.087 1169.83 220.385C1170.06 219.677 1170.4 219.059 1170.85 218.531C1171.31 218.003 1171.87 217.594 1172.55 217.302C1173.23 217.003 1174.02 216.854 1174.93 216.854C1175.73 216.854 1176.44 216.983 1177.07 217.24C1177.7 217.497 1178.24 217.865 1178.68 218.344C1179.12 218.823 1179.46 219.403 1179.69 220.083C1179.92 220.764 1180.04 221.528 1180.04 222.375V223.802H1170.83V221.604H1176.61V221.333C1176.62 220.958 1176.56 220.639 1176.42 220.375C1176.28 220.111 1176.09 219.91 1175.83 219.771C1175.58 219.632 1175.26 219.562 1174.9 219.562C1174.51 219.562 1174.2 219.646 1173.95 219.812C1173.7 219.979 1173.51 220.208 1173.37 220.5C1173.24 220.785 1173.15 221.115 1173.09 221.49C1173.04 221.865 1173.01 222.26 1173.01 222.677V223.073C1173.01 223.49 1173.07 223.868 1173.18 224.208C1173.3 224.549 1173.46 224.84 1173.68 225.083C1173.9 225.319 1174.16 225.503 1174.47 225.635C1174.78 225.767 1175.14 225.833 1175.53 225.833C1176.01 225.833 1176.48 225.743 1176.95 225.562C1177.41 225.382 1177.81 225.083 1178.15 224.667L1179.74 226.562C1179.51 226.889 1179.18 227.205 1178.76 227.51C1178.34 227.816 1177.84 228.066 1177.26 228.26C1176.68 228.448 1176.02 228.542 1175.3 228.542Z" fill="white"/>
</svg>
