<svg width="1363" height="167" viewBox="0 0 1363 167" fill="none" xmlns="http://www.w3.org/2000/svg">
<rect width="1363" height="167" rx="15" fill="#F0F0F0"/>
<path d="M0 15C0 6.71573 6.71573 0 15 0H37V167H15C6.71573 167 0 160.284 0 152V15Z" fill="#424241"/>
<path d="M100.906 54.9219L93.3945 52.2383V49.0859L103.602 53.375V55.6367L100.906 54.9219ZM93.3945 57.1719L100.918 54.4297L103.602 53.7852V56.0352L93.3945 60.3242V57.1719ZM120.781 57.5352C120.781 57.2305 120.734 56.957 120.641 56.7148C120.555 56.4648 120.391 56.2383 120.148 56.0352C119.906 55.8242 119.566 55.6172 119.129 55.4141C118.691 55.2109 118.125 55 117.43 54.7812C116.656 54.5312 115.922 54.25 115.227 53.9375C114.539 53.625 113.93 53.2617 113.398 52.8477C112.875 52.4258 112.461 51.9375 112.156 51.3828C111.859 50.8281 111.711 50.1836 111.711 49.4492C111.711 48.7383 111.867 48.0938 112.18 47.5156C112.492 46.9297 112.93 46.4297 113.492 46.0156C114.055 45.5938 114.719 45.2695 115.484 45.043C116.258 44.8164 117.105 44.7031 118.027 44.7031C119.285 44.7031 120.383 44.9297 121.32 45.3828C122.258 45.8359 122.984 46.457 123.5 47.2461C124.023 48.0352 124.285 48.9375 124.285 49.9531H120.793C120.793 49.4531 120.688 49.0156 120.477 48.6406C120.273 48.2578 119.961 47.957 119.539 47.7383C119.125 47.5195 118.602 47.4102 117.969 47.4102C117.359 47.4102 116.852 47.5039 116.445 47.6914C116.039 47.8711 115.734 48.1172 115.531 48.4297C115.328 48.7344 115.227 49.0781 115.227 49.4609C115.227 49.75 115.297 50.0117 115.438 50.2461C115.586 50.4805 115.805 50.6992 116.094 50.9023C116.383 51.1055 116.738 51.2969 117.16 51.4766C117.582 51.6562 118.07 51.832 118.625 52.0039C119.555 52.2852 120.371 52.6016 121.074 52.9531C121.785 53.3047 122.379 53.6992 122.855 54.1367C123.332 54.5742 123.691 55.0703 123.934 55.625C124.176 56.1797 124.297 56.8086 124.297 57.5117C124.297 58.2539 124.152 58.918 123.863 59.5039C123.574 60.0898 123.156 60.5859 122.609 60.9922C122.062 61.3984 121.41 61.707 120.652 61.918C119.895 62.1289 119.047 62.2344 118.109 62.2344C117.266 62.2344 116.434 62.125 115.613 61.9062C114.793 61.6797 114.047 61.3398 113.375 60.8867C112.711 60.4336 112.18 59.8555 111.781 59.1523C111.383 58.4492 111.184 57.6172 111.184 56.6562H114.711C114.711 57.1875 114.793 57.6367 114.957 58.0039C115.121 58.3711 115.352 58.668 115.648 58.8945C115.953 59.1211 116.312 59.2852 116.727 59.3867C117.148 59.4883 117.609 59.5391 118.109 59.5391C118.719 59.5391 119.219 59.4531 119.609 59.2812C120.008 59.1094 120.301 58.8711 120.488 58.5664C120.684 58.2617 120.781 57.918 120.781 57.5352ZM129.77 44V62H126.395V44H129.77ZM129.289 55.2148H128.363C128.371 54.332 128.488 53.5195 128.715 52.7773C128.941 52.0273 129.266 51.3789 129.688 50.832C130.109 50.2773 130.613 49.8477 131.199 49.543C131.793 49.2383 132.449 49.0859 133.168 49.0859C133.793 49.0859 134.359 49.1758 134.867 49.3555C135.383 49.5273 135.824 49.8086 136.191 50.1992C136.566 50.582 136.855 51.0859 137.059 51.7109C137.262 52.3359 137.363 53.0938 137.363 53.9844V62H133.965V53.9609C133.965 53.3984 133.883 52.957 133.719 52.6367C133.562 52.3086 133.332 52.0781 133.027 51.9453C132.73 51.8047 132.363 51.7344 131.926 51.7344C131.441 51.7344 131.027 51.8242 130.684 52.0039C130.348 52.1836 130.078 52.4336 129.875 52.7539C129.672 53.0664 129.523 53.4336 129.43 53.8555C129.336 54.2773 129.289 54.7305 129.289 55.2148ZM145.766 62.2344C144.781 62.2344 143.898 62.0781 143.117 61.7656C142.336 61.4453 141.672 61.0039 141.125 60.4414C140.586 59.8789 140.172 59.2266 139.883 58.4844C139.594 57.7344 139.449 56.9375 139.449 56.0938V55.625C139.449 54.6641 139.586 53.7852 139.859 52.9883C140.133 52.1914 140.523 51.5 141.031 50.9141C141.547 50.3281 142.172 49.8789 142.906 49.5664C143.641 49.2461 144.469 49.0859 145.391 49.0859C146.289 49.0859 147.086 49.2344 147.781 49.5312C148.477 49.8281 149.059 50.25 149.527 50.7969C150.004 51.3438 150.363 52 150.605 52.7656C150.848 53.5234 150.969 54.3672 150.969 55.2969V56.7031H140.891V54.4531H147.652V54.1953C147.652 53.7266 147.566 53.3086 147.395 52.9414C147.23 52.5664 146.98 52.2695 146.645 52.0508C146.309 51.832 145.879 51.7227 145.355 51.7227C144.91 51.7227 144.527 51.8203 144.207 52.0156C143.887 52.2109 143.625 52.4844 143.422 52.8359C143.227 53.1875 143.078 53.6016 142.977 54.0781C142.883 54.5469 142.836 55.0625 142.836 55.625V56.0938C142.836 56.6016 142.906 57.0703 143.047 57.5C143.195 57.9297 143.402 58.3008 143.668 58.6133C143.941 58.9258 144.27 59.168 144.652 59.3398C145.043 59.5117 145.484 59.5977 145.977 59.5977C146.586 59.5977 147.152 59.4805 147.676 59.2461C148.207 59.0039 148.664 58.6406 149.047 58.1562L150.688 59.9375C150.422 60.3203 150.059 60.6875 149.598 61.0391C149.145 61.3906 148.598 61.6797 147.957 61.9062C147.316 62.125 146.586 62.2344 145.766 62.2344ZM156.453 44V62H153.066V44H156.453ZM163.555 59.5391L166.367 49.3203H169.895L165.617 62H163.484L163.555 59.5391ZM161.621 49.3203L164.445 59.5508L164.504 62H162.359L158.082 49.3203H161.621ZM177.078 62.2344C176.094 62.2344 175.211 62.0781 174.43 61.7656C173.648 61.4453 172.984 61.0039 172.438 60.4414C171.898 59.8789 171.484 59.2266 171.195 58.4844C170.906 57.7344 170.762 56.9375 170.762 56.0938V55.625C170.762 54.6641 170.898 53.7852 171.172 52.9883C171.445 52.1914 171.836 51.5 172.344 50.9141C172.859 50.3281 173.484 49.8789 174.219 49.5664C174.953 49.2461 175.781 49.0859 176.703 49.0859C177.602 49.0859 178.398 49.2344 179.094 49.5312C179.789 49.8281 180.371 50.25 180.84 50.7969C181.316 51.3438 181.676 52 181.918 52.7656C182.16 53.5234 182.281 54.3672 182.281 55.2969V56.7031H172.203V54.4531H178.965V54.1953C178.965 53.7266 178.879 53.3086 178.707 52.9414C178.543 52.5664 178.293 52.2695 177.957 52.0508C177.621 51.832 177.191 51.7227 176.668 51.7227C176.223 51.7227 175.84 51.8203 175.52 52.0156C175.199 52.2109 174.938 52.4844 174.734 52.8359C174.539 53.1875 174.391 53.6016 174.289 54.0781C174.195 54.5469 174.148 55.0625 174.148 55.625V56.0938C174.148 56.6016 174.219 57.0703 174.359 57.5C174.508 57.9297 174.715 58.3008 174.98 58.6133C175.254 58.9258 175.582 59.168 175.965 59.3398C176.355 59.5117 176.797 59.5977 177.289 59.5977C177.898 59.5977 178.465 59.4805 178.988 59.2461C179.52 59.0039 179.977 58.6406 180.359 58.1562L182 59.9375C181.734 60.3203 181.371 60.6875 180.91 61.0391C180.457 61.3906 179.91 61.6797 179.27 61.9062C178.629 62.125 177.898 62.2344 177.078 62.2344ZM191.059 58.4961C191.059 58.2539 190.988 58.0352 190.848 57.8398C190.707 57.6445 190.445 57.4648 190.062 57.3008C189.688 57.1289 189.145 56.9727 188.434 56.832C187.793 56.6914 187.195 56.5156 186.641 56.3047C186.094 56.0859 185.617 55.8242 185.211 55.5195C184.812 55.2148 184.5 54.8555 184.273 54.4414C184.047 54.0195 183.934 53.5391 183.934 53C183.934 52.4688 184.047 51.9688 184.273 51.5C184.508 51.0312 184.84 50.6172 185.27 50.2578C185.707 49.8906 186.238 49.6055 186.863 49.4023C187.496 49.1914 188.207 49.0859 188.996 49.0859C190.098 49.0859 191.043 49.2617 191.832 49.6133C192.629 49.9648 193.238 50.4492 193.66 51.0664C194.09 51.6758 194.305 52.3711 194.305 53.1523H190.93C190.93 52.8242 190.859 52.5312 190.719 52.2734C190.586 52.0078 190.375 51.8008 190.086 51.6523C189.805 51.4961 189.438 51.418 188.984 51.418C188.609 51.418 188.285 51.4844 188.012 51.6172C187.738 51.7422 187.527 51.9141 187.379 52.1328C187.238 52.3438 187.168 52.5781 187.168 52.8359C187.168 53.0312 187.207 53.207 187.285 53.3633C187.371 53.5117 187.508 53.6484 187.695 53.7734C187.883 53.8984 188.125 54.0156 188.422 54.125C188.727 54.2266 189.102 54.3203 189.547 54.4062C190.461 54.5938 191.277 54.8398 191.996 55.1445C192.715 55.4414 193.285 55.8477 193.707 56.3633C194.129 56.8711 194.34 57.5391 194.34 58.3672C194.34 58.9297 194.215 59.4453 193.965 59.9141C193.715 60.3828 193.355 60.793 192.887 61.1445C192.418 61.4883 191.855 61.7578 191.199 61.9531C190.551 62.1406 189.82 62.2344 189.008 62.2344C187.828 62.2344 186.828 62.0234 186.008 61.6016C185.195 61.1797 184.578 60.6445 184.156 59.9961C183.742 59.3398 183.535 58.668 183.535 57.9805H186.734C186.75 58.4414 186.867 58.8125 187.086 59.0938C187.312 59.375 187.598 59.5781 187.941 59.7031C188.293 59.8281 188.672 59.8906 189.078 59.8906C189.516 59.8906 189.879 59.832 190.168 59.7148C190.457 59.5898 190.676 59.4258 190.824 59.2227C190.98 59.0117 191.059 58.7695 191.059 58.4961ZM209.715 44.9375V62H206.211V44.9375H209.715ZM214.965 44.9375V47.6914H201.043V44.9375H214.965ZM219.312 52.0859V62H215.938V49.3203H219.113L219.312 52.0859ZM223.133 49.2383L223.074 52.3672C222.91 52.3438 222.711 52.3242 222.477 52.3086C222.25 52.2852 222.043 52.2734 221.855 52.2734C221.379 52.2734 220.965 52.3359 220.613 52.4609C220.27 52.5781 219.98 52.7539 219.746 52.9883C219.52 53.2227 219.348 53.5078 219.23 53.8438C219.121 54.1797 219.059 54.5625 219.043 54.9922L218.363 54.7812C218.363 53.9609 218.445 53.207 218.609 52.5195C218.773 51.8242 219.012 51.2188 219.324 50.7031C219.645 50.1875 220.035 49.7891 220.496 49.5078C220.957 49.2266 221.484 49.0859 222.078 49.0859C222.266 49.0859 222.457 49.1016 222.652 49.1328C222.848 49.1562 223.008 49.1914 223.133 49.2383ZM231.172 59.1406V53.4922C231.172 53.0859 231.105 52.7383 230.973 52.4492C230.84 52.1523 230.633 51.9219 230.352 51.7578C230.078 51.5938 229.723 51.5117 229.285 51.5117C228.91 51.5117 228.586 51.5781 228.312 51.7109C228.039 51.8359 227.828 52.0195 227.68 52.2617C227.531 52.4961 227.457 52.7734 227.457 53.0938H224.082C224.082 52.5547 224.207 52.043 224.457 51.5586C224.707 51.0742 225.07 50.6484 225.547 50.2812C226.023 49.9062 226.59 49.6133 227.246 49.4023C227.91 49.1914 228.652 49.0859 229.473 49.0859C230.457 49.0859 231.332 49.25 232.098 49.5781C232.863 49.9062 233.465 50.3984 233.902 51.0547C234.348 51.7109 234.57 52.5312 234.57 53.5156V58.9414C234.57 59.6367 234.613 60.207 234.699 60.6523C234.785 61.0898 234.91 61.4727 235.074 61.8008V62H231.664C231.5 61.6562 231.375 61.2266 231.289 60.7109C231.211 60.1875 231.172 59.6641 231.172 59.1406ZM231.617 54.2773L231.641 56.1875H229.754C229.309 56.1875 228.922 56.2383 228.594 56.3398C228.266 56.4414 227.996 56.5859 227.785 56.7734C227.574 56.9531 227.418 57.1641 227.316 57.4062C227.223 57.6484 227.176 57.9141 227.176 58.2031C227.176 58.4922 227.242 58.7539 227.375 58.9883C227.508 59.2148 227.699 59.3945 227.949 59.5273C228.199 59.6523 228.492 59.7148 228.828 59.7148C229.336 59.7148 229.777 59.6133 230.152 59.4102C230.527 59.207 230.816 58.957 231.02 58.6602C231.23 58.3633 231.34 58.082 231.348 57.8164L232.238 59.2461C232.113 59.5664 231.941 59.8984 231.723 60.2422C231.512 60.5859 231.242 60.9102 230.914 61.2148C230.586 61.5117 230.191 61.7578 229.73 61.9531C229.27 62.1406 228.723 62.2344 228.09 62.2344C227.285 62.2344 226.555 62.0742 225.898 61.7539C225.25 61.4258 224.734 60.9766 224.352 60.4062C223.977 59.8281 223.789 59.1719 223.789 58.4375C223.789 57.7734 223.914 57.1836 224.164 56.668C224.414 56.1523 224.781 55.7188 225.266 55.3672C225.758 55.0078 226.371 54.7383 227.105 54.5586C227.84 54.3711 228.691 54.2773 229.66 54.2773H231.617ZM242.41 59.5977C242.824 59.5977 243.191 59.5195 243.512 59.3633C243.832 59.1992 244.082 58.9727 244.262 58.6836C244.449 58.3867 244.547 58.0391 244.555 57.6406H247.73C247.723 58.5312 247.484 59.3242 247.016 60.0195C246.547 60.707 245.918 61.25 245.129 61.6484C244.34 62.0391 243.457 62.2344 242.48 62.2344C241.496 62.2344 240.637 62.0703 239.902 61.7422C239.176 61.4141 238.57 60.9609 238.086 60.3828C237.602 59.7969 237.238 59.1172 236.996 58.3438C236.754 57.5625 236.633 56.7266 236.633 55.8359V55.4961C236.633 54.5977 236.754 53.7617 236.996 52.9883C237.238 52.207 237.602 51.5273 238.086 50.9492C238.57 50.3633 239.176 49.9062 239.902 49.5781C240.629 49.25 241.48 49.0859 242.457 49.0859C243.496 49.0859 244.406 49.2852 245.188 49.6836C245.977 50.082 246.594 50.6523 247.039 51.3945C247.492 52.1289 247.723 53 247.73 54.0078H244.555C244.547 53.5859 244.457 53.2031 244.285 52.8594C244.121 52.5156 243.879 52.2422 243.559 52.0391C243.246 51.8281 242.859 51.7227 242.398 51.7227C241.906 51.7227 241.504 51.8281 241.191 52.0391C240.879 52.2422 240.637 52.5234 240.465 52.8828C240.293 53.2344 240.172 53.6367 240.102 54.0898C240.039 54.5352 240.008 55.0039 240.008 55.4961V55.8359C240.008 56.3281 240.039 56.8008 240.102 57.2539C240.164 57.707 240.281 58.1094 240.453 58.4609C240.633 58.8125 240.879 59.0898 241.191 59.293C241.504 59.4961 241.91 59.5977 242.41 59.5977ZM253.062 43.9883V62H249.688V43.9883H253.062ZM261.055 49.3203L255.547 55.6016L252.594 58.5898L251.363 56.1523L253.707 53.1758L257 49.3203H261.055ZM257.551 62L253.801 56.1406L256.133 54.1016L261.441 62H257.551ZM268.109 62.2344C267.125 62.2344 266.242 62.0781 265.461 61.7656C264.68 61.4453 264.016 61.0039 263.469 60.4414C262.93 59.8789 262.516 59.2266 262.227 58.4844C261.938 57.7344 261.793 56.9375 261.793 56.0938V55.625C261.793 54.6641 261.93 53.7852 262.203 52.9883C262.477 52.1914 262.867 51.5 263.375 50.9141C263.891 50.3281 264.516 49.8789 265.25 49.5664C265.984 49.2461 266.812 49.0859 267.734 49.0859C268.633 49.0859 269.43 49.2344 270.125 49.5312C270.82 49.8281 271.402 50.25 271.871 50.7969C272.348 51.3438 272.707 52 272.949 52.7656C273.191 53.5234 273.312 54.3672 273.312 55.2969V56.7031H263.234V54.4531H269.996V54.1953C269.996 53.7266 269.91 53.3086 269.738 52.9414C269.574 52.5664 269.324 52.2695 268.988 52.0508C268.652 51.832 268.223 51.7227 267.699 51.7227C267.254 51.7227 266.871 51.8203 266.551 52.0156C266.23 52.2109 265.969 52.4844 265.766 52.8359C265.57 53.1875 265.422 53.6016 265.32 54.0781C265.227 54.5469 265.18 55.0625 265.18 55.625V56.0938C265.18 56.6016 265.25 57.0703 265.391 57.5C265.539 57.9297 265.746 58.3008 266.012 58.6133C266.285 58.9258 266.613 59.168 266.996 59.3398C267.387 59.5117 267.828 59.5977 268.32 59.5977C268.93 59.5977 269.496 59.4805 270.02 59.2461C270.551 59.0039 271.008 58.6406 271.391 58.1562L273.031 59.9375C272.766 60.3203 272.402 60.6875 271.941 61.0391C271.488 61.3906 270.941 61.6797 270.301 61.9062C269.66 62.125 268.93 62.2344 268.109 62.2344ZM278.609 52.0859V62H275.234V49.3203H278.41L278.609 52.0859ZM282.43 49.2383L282.371 52.3672C282.207 52.3438 282.008 52.3242 281.773 52.3086C281.547 52.2852 281.34 52.2734 281.152 52.2734C280.676 52.2734 280.262 52.3359 279.91 52.4609C279.566 52.5781 279.277 52.7539 279.043 52.9883C278.816 53.2227 278.645 53.5078 278.527 53.8438C278.418 54.1797 278.355 54.5625 278.34 54.9922L277.66 54.7812C277.66 53.9609 277.742 53.207 277.906 52.5195C278.07 51.8242 278.309 51.2188 278.621 50.7031C278.941 50.1875 279.332 49.7891 279.793 49.5078C280.254 49.2266 280.781 49.0859 281.375 49.0859C281.562 49.0859 281.754 49.1016 281.949 49.1328C282.145 49.1562 282.305 49.1914 282.43 49.2383Z" fill="#888888"/>
<path d="M115.994 98.708V104.641H99.5806V98.708H115.994ZM102.151 86.0078V118H94.439V86.0078H102.151ZM121.18 86.0078V118H113.489V86.0078H121.18ZM124.805 106.354V105.893C124.805 104.15 125.054 102.546 125.552 101.081C126.05 99.6016 126.783 98.3198 127.75 97.2358C128.716 96.1519 129.91 95.3096 131.331 94.709C132.752 94.0938 134.393 93.7861 136.253 93.7861C138.128 93.7861 139.776 94.0938 141.197 94.709C142.632 95.3096 143.833 96.1519 144.8 97.2358C145.767 98.3198 146.5 99.6016 146.998 101.081C147.496 102.546 147.745 104.15 147.745 105.893V106.354C147.745 108.083 147.496 109.687 146.998 111.167C146.5 112.631 145.767 113.913 144.8 115.012C143.833 116.096 142.64 116.938 141.219 117.539C139.798 118.139 138.157 118.439 136.297 118.439C134.437 118.439 132.789 118.139 131.353 117.539C129.917 116.938 128.716 116.096 127.75 115.012C126.783 113.913 126.05 112.631 125.552 111.167C125.054 109.687 124.805 108.083 124.805 106.354ZM132.21 105.893V106.354C132.21 107.248 132.276 108.083 132.408 108.859C132.54 109.636 132.759 110.317 133.067 110.903C133.375 111.474 133.792 111.921 134.319 112.243C134.847 112.565 135.506 112.727 136.297 112.727C137.073 112.727 137.718 112.565 138.23 112.243C138.758 111.921 139.175 111.474 139.483 110.903C139.791 110.317 140.01 109.636 140.142 108.859C140.274 108.083 140.34 107.248 140.34 106.354V105.893C140.34 105.029 140.274 104.216 140.142 103.454C140.01 102.678 139.791 101.997 139.483 101.411C139.175 100.81 138.758 100.341 138.23 100.004C137.703 99.6675 137.044 99.499 136.253 99.499C135.477 99.499 134.825 99.6675 134.297 100.004C133.785 100.341 133.375 100.81 133.067 101.411C132.759 101.997 132.54 102.678 132.408 103.454C132.276 104.216 132.21 105.029 132.21 105.893ZM158.27 110.925L162.664 94.2256H167.3L165.652 102.597L161.302 118H157.588L158.27 110.925ZM156.534 94.2256L159.258 110.793L159.566 118H155.062L149.437 94.2256H156.534ZM171.211 110.441L173.958 94.2256H181.055L175.474 118H170.97L171.211 110.441ZM167.828 94.2256L172.266 110.881L172.947 118H169.19L164.927 102.641L163.345 94.2256H167.828ZM209.466 86.0078V118H201.753V86.0078H209.466ZM219.09 86.0078V91.9624H192.349V86.0078H219.09ZM216.475 106.354V105.893C216.475 104.15 216.724 102.546 217.222 101.081C217.72 99.6016 218.453 98.3198 219.419 97.2358C220.386 96.1519 221.58 95.3096 223.001 94.709C224.422 94.0938 226.062 93.7861 227.923 93.7861C229.798 93.7861 231.446 94.0938 232.867 94.709C234.302 95.3096 235.503 96.1519 236.47 97.2358C237.437 98.3198 238.169 99.6016 238.667 101.081C239.166 102.546 239.415 104.15 239.415 105.893V106.354C239.415 108.083 239.166 109.687 238.667 111.167C238.169 112.631 237.437 113.913 236.47 115.012C235.503 116.096 234.31 116.938 232.889 117.539C231.468 118.139 229.827 118.439 227.967 118.439C226.106 118.439 224.458 118.139 223.023 117.539C221.587 116.938 220.386 116.096 219.419 115.012C218.453 113.913 217.72 112.631 217.222 111.167C216.724 109.687 216.475 108.083 216.475 106.354ZM223.88 105.893V106.354C223.88 107.248 223.946 108.083 224.078 108.859C224.209 109.636 224.429 110.317 224.737 110.903C225.044 111.474 225.462 111.921 225.989 112.243C226.517 112.565 227.176 112.727 227.967 112.727C228.743 112.727 229.388 112.565 229.9 112.243C230.428 111.921 230.845 111.474 231.153 110.903C231.46 110.317 231.68 109.636 231.812 108.859C231.944 108.083 232.01 107.248 232.01 106.354V105.893C232.01 105.029 231.944 104.216 231.812 103.454C231.68 102.678 231.46 101.997 231.153 101.411C230.845 100.81 230.428 100.341 229.9 100.004C229.373 99.6675 228.714 99.499 227.923 99.499C227.146 99.499 226.495 99.6675 225.967 100.004C225.455 100.341 225.044 100.81 224.737 101.411C224.429 101.997 224.209 102.678 224.078 103.454C223.946 104.216 223.88 105.029 223.88 105.893ZM254.268 86.0078H266.858C269.319 86.0078 271.458 86.374 273.274 87.1064C275.091 87.8389 276.49 88.9229 277.471 90.3584C278.467 91.7939 278.965 93.5664 278.965 95.6758C278.965 97.5068 278.68 99.0376 278.108 100.268C277.537 101.499 276.739 102.517 275.713 103.322C274.703 104.113 273.523 104.765 272.176 105.278L269.649 106.706H259.08L259.036 100.751H266.858C267.84 100.751 268.653 100.576 269.297 100.224C269.942 99.8726 270.425 99.3745 270.748 98.73C271.084 98.0708 271.253 97.2871 271.253 96.3789C271.253 95.4561 271.084 94.665 270.748 94.0059C270.411 93.3467 269.913 92.8413 269.253 92.4897C268.609 92.1382 267.811 91.9624 266.858 91.9624H261.98V118H254.268V86.0078ZM271.78 118L264.705 103.85L272.879 103.806L280.042 117.67V118H271.78ZM297.159 112.221V94.2256H304.585V118H297.642L297.159 112.221ZM297.862 107.387L299.795 107.343C299.795 108.94 299.605 110.419 299.224 111.782C298.843 113.129 298.279 114.301 297.532 115.297C296.8 116.293 295.892 117.07 294.808 117.626C293.738 118.168 292.5 118.439 291.094 118.439C289.922 118.439 288.846 118.278 287.864 117.956C286.897 117.619 286.062 117.099 285.359 116.396C284.656 115.678 284.107 114.763 283.711 113.649C283.331 112.521 283.14 111.174 283.14 109.606V94.2256H290.545V109.65C290.545 110.178 290.611 110.632 290.743 111.013C290.875 111.394 291.065 111.716 291.314 111.979C291.563 112.229 291.871 112.419 292.237 112.551C292.618 112.668 293.05 112.727 293.533 112.727C294.646 112.727 295.518 112.492 296.148 112.023C296.778 111.555 297.217 110.917 297.466 110.112C297.73 109.306 297.862 108.398 297.862 107.387ZM315.945 99.3013V118H308.541V94.2256H315.484L315.945 99.3013ZM315.066 105.3L313.331 105.344C313.331 103.527 313.55 101.909 313.99 100.488C314.429 99.0522 315.052 97.8364 315.857 96.8403C316.663 95.8442 317.623 95.0898 318.736 94.5771C319.864 94.0498 321.116 93.7861 322.493 93.7861C323.592 93.7861 324.595 93.9473 325.503 94.2695C326.426 94.5918 327.217 95.1118 327.876 95.8296C328.55 96.5474 329.063 97.4995 329.415 98.686C329.781 99.8579 329.964 101.308 329.964 103.037V118H322.515V103.015C322.515 102.062 322.383 101.337 322.12 100.839C321.856 100.327 321.475 99.9751 320.977 99.7847C320.479 99.5942 319.871 99.499 319.153 99.499C318.392 99.499 317.747 99.6455 317.22 99.9385C316.692 100.231 316.268 100.642 315.945 101.169C315.638 101.682 315.411 102.29 315.264 102.993C315.132 103.696 315.066 104.465 315.066 105.3ZM345.85 107.871H339.544C339.544 106.582 339.632 105.446 339.808 104.465C339.998 103.469 340.32 102.575 340.774 101.784C341.229 100.993 341.844 100.261 342.62 99.5869C343.309 99.0156 343.902 98.4663 344.4 97.939C344.898 97.4116 345.279 96.877 345.542 96.335C345.806 95.793 345.938 95.2144 345.938 94.5991C345.938 93.8374 345.828 93.2148 345.608 92.7314C345.403 92.248 345.088 91.8892 344.664 91.6548C344.253 91.4058 343.733 91.2812 343.104 91.2812C342.591 91.2812 342.107 91.4058 341.653 91.6548C341.214 91.9038 340.855 92.292 340.577 92.8193C340.298 93.332 340.145 94.0132 340.115 94.8628H332.667C332.71 92.6802 333.194 90.9077 334.117 89.5454C335.054 88.1685 336.299 87.165 337.852 86.5352C339.419 85.8906 341.17 85.5684 343.104 85.5684C345.242 85.5684 347.081 85.8979 348.619 86.5571C350.157 87.2163 351.336 88.1978 352.156 89.5015C352.977 90.7905 353.387 92.3799 353.387 94.2695C353.387 95.5293 353.145 96.6279 352.662 97.5654C352.193 98.4883 351.556 99.3525 350.75 100.158C349.959 100.949 349.073 101.799 348.091 102.707C347.242 103.454 346.663 104.216 346.355 104.992C346.048 105.754 345.879 106.713 345.85 107.871ZM338.643 114.55C338.643 113.496 339.024 112.617 339.786 111.914C340.547 111.196 341.536 110.837 342.752 110.837C343.968 110.837 344.957 111.196 345.718 111.914C346.48 112.617 346.861 113.496 346.861 114.55C346.861 115.605 346.48 116.491 345.718 117.209C344.957 117.912 343.968 118.264 342.752 118.264C341.536 118.264 340.547 117.912 339.786 117.209C339.024 116.491 338.643 115.605 338.643 114.55Z" fill="#424241"/>
<path d="M1363 15C1363 6.71573 1356.28 0 1348 0H1134V167H1348C1356.28 167 1363 160.284 1363 152V15Z" fill="#3AA346"/>
<path d="M1260.77 81.3079C1263.96 81.3079 1267.09 82.2553 1269.74 84.0303C1272.4 85.8053 1274.47 88.3282 1275.69 91.2799C1276.92 94.2316 1277.24 97.4796 1276.61 100.613C1275.99 103.747 1274.45 106.625 1272.19 108.884C1269.93 111.143 1267.05 112.682 1263.92 113.305C1260.79 113.928 1257.54 113.608 1254.59 112.386C1251.64 111.163 1249.11 109.093 1247.34 106.436C1245.56 103.78 1244.62 100.657 1244.62 97.4617C1244.62 93.1774 1246.32 89.0686 1249.35 86.0392C1252.38 83.0098 1256.48 81.3079 1260.77 81.3079ZM1260.77 75.9233C1256.51 75.9233 1252.35 77.1865 1248.8 79.5532C1245.26 81.9198 1242.5 85.2837 1240.87 89.2193C1239.24 93.1549 1238.81 97.4856 1239.64 101.664C1240.48 105.842 1242.53 109.679 1245.54 112.692C1248.55 115.704 1252.39 117.755 1256.57 118.586C1260.75 119.417 1265.08 118.991 1269.01 117.361C1272.95 115.73 1276.31 112.97 1278.68 109.428C1281.04 105.886 1282.31 101.722 1282.31 97.4617C1282.31 91.7493 1280.04 86.271 1276 82.2317C1271.96 78.1925 1266.48 75.9233 1260.77 75.9233Z" fill="white"/>
<path d="M1274.23 49H1220.38C1218.96 49 1217.59 49.5673 1216.58 50.5771C1215.57 51.5869 1215 52.9565 1215 54.3846V108.231C1215 109.659 1215.57 111.028 1216.58 112.038C1217.59 113.048 1218.96 113.615 1220.38 113.615H1231.15V108.231H1220.38V70.5384H1279.62V54.3846C1279.62 52.9565 1279.05 51.5869 1278.04 50.5771C1277.03 49.5673 1275.66 49 1274.23 49ZM1220.38 65.1538V54.3846H1274.23V65.1538H1220.38Z" fill="white"/>
<path d="M1255.38 89.3849V105.539L1268.85 97.4618L1255.38 89.3849Z" fill="white"/>
</svg>
